# This file uses centimeters as units for non-parametric coordinates.

mtllib Magic wand.mtl
g default
v -0.116181 -0.986463 0.116181
v 0.116181 -0.986463 0.116181
v -0.131923 0.982766 0.131923
v 0.131923 0.982766 0.131923
v -0.131923 0.982766 -0.131923
v 0.131923 0.982766 -0.131923
v -0.116181 -0.986463 -0.116181
v 0.116181 -0.986463 -0.116181
v -0.079947 1.331899 0.079947
v 0.079947 1.331899 0.079947
v 0.079947 1.331899 -0.079947
v -0.079947 1.331899 -0.079947
v -0.067900 3.730015 0.067900
v 0.067900 3.730015 0.067900
v 0.067900 3.730015 -0.067900
v -0.067900 3.730015 -0.067900
v 0.132593 0.864040 0.132940
v -0.132593 0.864040 0.132940
v -0.132593 0.864040 -0.132940
v 0.132593 0.864040 -0.132940
v 0.142316 -0.902432 0.142663
v -0.142316 -0.902432 0.142663
v -0.142316 -0.902432 -0.142663
v 0.142316 -0.902432 -0.142663
v 0.086620 -0.694667 0.089463
v -0.086620 -0.694667 0.089463
v 0.085432 0.651408 0.088276
v -0.085432 0.651408 0.088276
v -0.086620 -0.694667 -0.089463
v -0.085432 0.651408 -0.088276
v 0.085432 0.651408 -0.088276
v 0.086620 -0.694667 -0.089463
v -0.030619 4.744021 0.030619
v 0.030619 4.744021 0.030619
v 0.030619 4.744021 -0.030619
v -0.030619 4.744021 -0.030619
v -0.035405 4.841496 -0.000000
v -0.000000 4.841496 -0.035405
v -0.050821 4.470790 -0.050821
v 0.035405 4.841496 0.000000
v 0.050821 4.470790 -0.050821
v 0.000000 4.841496 0.035405
v 0.050821 4.470790 0.050821
v -0.050821 4.470790 0.050821
v 0.113539 0.654216 -0.000000
v 0.115129 -0.697207 0.000000
v 0.000000 -0.696771 -0.118853
v 0.079144 -0.021629 -0.082460
v 0.114867 -0.901332 -0.116468
v 0.000000 0.653758 -0.117260
v 0.109389 0.857763 -0.110990
v -0.079144 -0.021629 -0.082460
v -0.113539 0.654216 -0.000000
v -0.109389 0.857763 -0.110990
v -0.115129 -0.697207 -0.000000
v -0.114867 -0.901332 -0.116468
v -0.079144 -0.021629 0.082460
v 0.000000 0.653758 0.117260
v -0.109389 0.857763 0.110990
v 0.079144 -0.021629 0.082460
v 0.109389 0.857763 0.110990
v 0.000000 -0.696771 0.118853
v -0.114867 -0.901332 0.116468
v 0.114867 -0.901332 0.116468
v 0.190186 -0.901870 -0.000000
v -0.000000 -0.901857 -0.190701
v 0.152383 -0.945567 -0.152364
v -0.190186 -0.901870 0.000000
v -0.152383 -0.945567 -0.152364
v 0.000000 -0.901857 0.190701
v 0.177179 0.863259 0.000000
v 0.000000 0.863239 -0.177694
v -0.177179 0.863259 -0.000000
v 0.000000 0.863239 0.177694
v -0.139927 0.923403 0.139907
v 0.139927 0.923403 0.139907
v -0.090077 3.734303 -0.000000
v 0.000000 3.734303 -0.090077
v -0.074241 2.464239 -0.074241
v 0.090077 3.734303 0.000000
v 0.074241 2.464239 -0.074241
v -0.000000 3.734303 0.090077
v 0.074241 2.464239 0.074241
v -0.074241 2.464239 0.074241
v -0.106137 1.330593 0.000000
v -0.000000 1.330593 -0.106137
v -0.106693 0.978640 -0.106693
v 0.106137 1.330593 -0.000000
v 0.106693 0.978640 -0.106693
v 0.000000 1.330593 0.106137
v 0.106693 0.978640 0.106693
v -0.106693 0.978640 0.106693
v 0.157392 -0.989711 0.000000
v -0.157392 -0.989711 0.000000
v 0.139927 0.923403 -0.139907
v -0.139927 0.923403 -0.139907
v 0.176319 0.983557 -0.000000
v -0.176319 0.983557 0.000000
v 0.152383 -0.945567 0.152364
v -0.152383 -0.945567 0.152364
v 0.000000 -0.989711 -0.157392
v -0.000000 0.983557 -0.176319
v 0.000000 0.983557 0.176319
v 0.000000 -0.989711 0.157392
v -0.067327 4.473168 -0.000000
v 0.000000 4.473168 -0.067327
v 0.067327 4.473168 0.000000
v -0.000000 4.473168 0.067327
v 0.145990 0.861805 0.000000
v 0.153308 -0.905506 0.000000
v 0.000000 -0.905325 -0.155378
v 0.000000 0.861621 -0.148060
v -0.145990 0.861805 -0.000000
v -0.153308 -0.905506 -0.000000
v 0.000000 0.861621 0.148060
v 0.000000 -0.905325 0.155378
v 0.105918 -0.021629 0.000000
v 0.000000 -0.021629 -0.110036
v -0.105918 -0.021629 -0.000000
v 0.000000 -0.021629 0.110036
v 0.186981 0.923403 0.000000
v 0.000000 0.923403 -0.186981
v -0.186981 0.923403 0.000000
v 0.000000 0.923403 0.186981
v -0.099091 2.460327 -0.000000
v 0.000000 2.460327 -0.099091
v 0.099091 2.460327 0.000000
v -0.000000 2.460327 0.099091
v -0.142020 0.972735 0.000000
v 0.000000 0.972735 -0.142020
v 0.142020 0.972735 0.000000
v 0.000000 0.972735 0.142020
v -0.203743 -0.945787 0.000000
v 0.203743 -0.945787 0.000000
v 0.000000 -0.986464 0.000000
v -0.000000 -0.945789 -0.203743
v 0.000000 4.845460 0.000000
v 0.000000 -0.945789 0.203743
v 0.043428 4.744021 0.000000
v -0.000000 4.744021 -0.043904
v -0.043959 4.744021 -0.000000
v 0.000000 4.744021 0.044582
vt 0.525172 0.093516
vt 0.136805 0.093516
vt 0.136805 0.121143
vt 0.076190 0.121143
vt 0.557099 0.482888
vt 0.557099 0.503687
vt 0.546700 0.493287
vt 0.413828 0.138625
vt 0.357710 0.138625
vt 0.357710 0.121143
vt 0.413828 0.121143
vt 0.413828 0.093516
vt 0.357710 0.093516
vt 0.509763 0.251232
vt 0.552119 0.251232
vt 0.188982 0.093516
vt 0.467408 0.251232
vt 0.244555 0.121143
vt 0.188982 0.121143
vt 0.468205 0.121143
vt 0.480930 0.685727
vt 0.165034 0.685727
vt 0.890353 0.016663
vt 0.165034 0.696888
vt 0.116900 0.696888
vt 0.209944 0.685727
vt 0.927463 0.016663
vt 0.908938 0.016663
vt 0.255122 0.685727
vt 0.255122 0.696888
vt 0.778670 0.016303
vt 0.945924 0.016663
vt 0.209944 0.696888
vt 0.300329 0.685727
vt 0.815633 0.016303
vt 0.797150 0.016303
vt 0.834051 0.106755
vt 0.890353 0.107153
vt 0.890353 0.396453
vt 0.871834 0.396453
vt 0.908938 0.107153
vt 0.927463 0.107153
vt 0.927463 0.396453
vt 0.908938 0.396453
vt 0.945924 0.107153
vt 0.778670 0.106755
vt 0.778670 0.395933
vt 0.945924 0.396453
vt 0.797150 0.106755
vt 0.815633 0.106755
vt 0.815633 0.395933
vt 0.797150 0.395933
vt 0.345252 0.685727
vt 0.345252 0.696888
vt 0.300329 0.696888
vt 0.390270 0.685727
vt 0.435377 0.685727
vt 0.435377 0.696888
vt 0.390270 0.696888
vt 0.116837 0.643367
vt 0.165034 0.643367
vt 0.165034 0.664397
vt 0.116837 0.664397
vt 0.390270 0.643367
vt 0.435377 0.643367
vt 0.435377 0.664397
vt 0.390270 0.664397
vt 0.345252 0.664397
vt 0.209944 0.643367
vt 0.255122 0.643367
vt 0.255122 0.664397
vt 0.209944 0.664397
vt 0.386345 0.219413
vt 0.223484 0.219413
vt 0.223484 0.374460
vt 0.200437 0.374460
vt 0.340553 0.219413
vt 0.363321 0.219413
vt 0.363321 0.374460
vt 0.340553 0.374460
vt 0.525172 0.138625
vt 0.136805 0.138625
vt 0.340553 0.529526
vt 0.136805 0.150450
vt 0.318051 0.529526
vt 0.318051 0.374460
vt 0.076039 0.150450
vt 0.246221 0.219413
vt 0.468205 0.138625
vt 0.269861 0.219413
vt 0.269861 0.374460
vt 0.246221 0.374460
vt 0.223484 0.576450
vt 0.209944 0.633621
vt 0.468205 0.150450
vt 0.363321 0.576450
vt 0.413828 0.150450
vt 0.301120 0.138625
vt 0.357710 0.150450
vt 0.200437 0.576450
vt 0.345252 0.643367
vt 0.318051 0.576450
vt 0.340553 0.576450
vt 0.300329 0.643367
vt 0.834051 0.720731
vt 0.890353 0.721390
vt 0.890353 0.910740
vt 0.871834 0.910740
vt 0.908938 0.721390
vt 0.927463 0.721390
vt 0.927463 0.910740
vt 0.908938 0.910740
vt 0.945924 0.721390
vt 0.778670 0.720731
vt 0.778670 0.910000
vt 0.945924 0.910740
vt 0.797150 0.720731
vt 0.815633 0.720731
vt 0.815633 0.910000
vt 0.797150 0.910000
vt 0.815633 0.980064
vt 0.871834 0.980837
vt 0.890353 0.980837
vt 0.797150 0.980064
vt 0.536300 0.482888
vt 0.778670 0.980064
vt 0.760254 0.980064
vt 0.536300 0.503687
vt 0.927463 0.980837
vt 0.269861 0.576450
vt 0.294194 0.576450
vt 0.269861 0.529526
vt 0.246221 0.529526
vt 0.294194 0.529526
vt 0.269861 0.172634
vt 0.294194 0.172634
vt 0.294194 0.219413
vt 0.246221 0.172634
vt 0.318051 0.219413
vt 0.301120 0.150450
vt 0.188982 0.138625
vt 0.548152 0.544796
vt 0.597679 0.506295
vt 0.908938 0.980837
vt 0.598219 0.492303
vt 0.560539 0.442156
vt 0.546647 0.441772
vt 0.495875 0.478043
vt 0.495181 0.491914
vt 0.534354 0.544203
vt 0.562132 0.543995
vt 0.597380 0.478431
vt 0.532796 0.442784
vt 0.495893 0.505706
vt 0.318051 0.172634
vt 0.834051 0.016303
vt 0.340553 0.172634
vt 0.363321 0.529526
vt 0.200437 0.529526
vt 0.363321 0.172634
vt 0.386345 0.172634
vt 0.223484 0.529526
vt 0.244555 0.138625
vt 0.244555 0.150450
vt 0.223484 0.172634
vt 0.294194 0.374460
vt 0.300329 0.664397
vt 0.871834 0.016663
vt 0.871834 0.107153
vt 0.760254 0.016303
vt 0.076190 0.093516
vt 0.760254 0.106755
vt 0.834051 0.395933
vt 0.871834 0.721390
vt 0.760254 0.395933
vt 0.760254 0.720731
vt 0.525582 0.150450
vt 0.076302 0.138625
vt 0.188982 0.150450
vt 0.301120 0.121143
vt 0.525172 0.121143
vt 0.541022 0.282491
vt 0.244555 0.093516
vt 0.541022 0.219974
vt 0.468205 0.093516
vt 0.301120 0.093516
vt 0.478505 0.282491
vt 0.509763 0.293588
vt 0.478505 0.219974
vt 0.834051 0.910000
vt 0.834051 0.980064
vt 0.760254 0.910000
vt 0.945924 0.980837
vt 0.509763 0.208877
vt 0.165034 0.633621
vt 0.246221 0.576450
vt 0.480930 0.633621
vt 0.435377 0.633621
vt 0.390270 0.633621
vt 0.345252 0.633621
vt 0.300329 0.633621
vt 0.255122 0.633621
vt 0.480930 0.664397
vt 0.116837 0.685727
vt 0.480930 0.643367
vt 0.116845 0.633621
vt 0.480812 0.696888
vt 0.200437 0.172634
vt 0.200437 0.219413
vt 0.386345 0.576450
vt 0.386345 0.529526
vt 0.386345 0.374460
vn -0.220158 -0.950290 0.220182
vn 0.000000 -0.954698 0.297577
vn 0.000000 -0.338413 0.940998
vn -0.665783 -0.347533 0.660268
vn -0.970124 0.242611 -0.000001
vn -0.000000 0.243850 0.969813
vn -0.000000 1.000000 0.000000
vn -0.560492 0.606035 -0.564421
vn 0.000000 0.617957 -0.786212
vn -0.000000 -0.338413 -0.940998
vn -0.665783 -0.347533 -0.660268
vn -0.220158 -0.950289 -0.220182
vn -0.000000 -0.954698 -0.297577
vn 0.000000 -1.000000 -0.000000
vn -0.297561 -0.954703 0.000000
vn 0.220158 -0.950290 0.220182
vn 0.297561 -0.954703 -0.000000
vn 0.942284 -0.334813 -0.000000
vn 0.665783 -0.347533 0.660268
vn -0.942284 -0.334813 0.000000
vn -0.625277 0.466548 0.625589
vn 0.000000 0.489943 0.871755
vn 0.000000 0.266122 0.963939
vn -0.672915 0.307200 0.672915
vn 0.625277 0.466548 0.625589
vn 0.871702 0.490036 -0.000000
vn 0.963939 0.266122 0.000000
vn 0.672915 0.307200 0.672915
vn 0.625277 0.466548 -0.625589
vn -0.000000 0.489943 -0.871755
vn 0.000000 0.266122 -0.963939
vn 0.672915 0.307200 -0.672915
vn -0.625277 0.466548 -0.625589
vn -0.871702 0.490036 0.000000
vn -0.963939 0.266122 -0.000000
vn -0.672915 0.307200 -0.672915
vn -0.706599 0.037870 0.706599
vn 0.000000 0.034574 0.999402
vn 0.000000 0.006673 0.999978
vn -0.707089 0.007092 0.707089
vn 0.706599 0.037870 0.706599
vn 0.999402 0.034574 -0.000000
vn 0.999978 0.006673 -0.000000
vn 0.707089 0.007092 0.707089
vn 0.706599 0.037870 -0.706600
vn -0.000000 0.034574 -0.999402
vn -0.000000 0.006673 -0.999978
vn 0.707089 0.007092 -0.707089
vn -0.706599 0.037870 -0.706599
vn -0.999402 0.034574 0.000000
vn -0.999978 0.006673 0.000000
vn -0.707089 0.007092 -0.707089
vn -0.646892 -0.397028 0.651076
vn 0.000000 -0.405246 0.914208
vn -0.000000 0.009778 0.999952
vn -0.710061 0.008417 0.704089
vn -0.646892 -0.397028 -0.651076
vn -0.907606 -0.419822 -0.000000
vn -0.999976 0.006951 0.000000
vn -0.710061 0.008417 -0.704090
vn 0.000000 0.009778 -0.999952
vn 0.646892 -0.397028 0.651076
vn 0.907606 -0.419823 0.000000
vn 0.999976 0.006951 -0.000000
vn 0.710061 0.008417 0.704089
vn -0.715920 0.070388 0.694625
vn 0.000000 0.063293 0.997995
vn 0.000000 0.001247 0.999999
vn -0.718986 0.001327 0.695024
vn -0.715920 0.070388 -0.694625
vn -0.997922 0.064427 -0.000000
vn -0.999999 0.001236 -0.000000
vn -0.718986 0.001327 -0.695024
vn -0.716588 -0.058010 -0.695080
vn 0.000000 -0.052138 -0.998640
vn -0.000000 0.001247 -0.999999
vn 0.715920 0.070388 0.694625
vn 0.997922 0.064427 0.000000
vn 0.999999 0.001236 -0.000000
vn 0.718986 0.001327 0.695024
vn -0.560492 0.606034 0.564421
vn 0.000000 0.617957 0.786212
vn -0.000000 0.441391 0.897315
vn -0.619463 0.507466 0.598953
vn 0.000000 -0.360962 0.932580
vn 0.653551 -0.416465 0.632003
vn -0.775191 0.631727 0.000000
vn -0.893931 0.448204 -0.000000
vn -0.619463 0.507466 -0.598953
vn -0.929289 -0.369353 -0.000000
vn -0.653551 -0.416465 0.632003
vn -0.000000 -0.405246 -0.914208
vn -0.000000 -0.360962 -0.932580
vn -0.653551 -0.416465 -0.632003
vn 0.560492 0.606034 -0.564421
vn -0.000000 0.441391 -0.897315
vn 0.619463 0.507466 -0.598953
vn 0.560492 0.606034 0.564421
vn 0.775191 0.631727 0.000000
vn 0.893931 0.448204 0.000000
vn 0.619463 0.507466 0.598953
vn 0.646892 -0.397028 -0.651076
vn 0.929289 -0.369353 -0.000000
vn 0.653551 -0.416465 -0.632003
vn -0.707026 0.015111 0.707026
vn -0.000000 0.014467 0.999895
vn -0.000000 0.041923 0.999121
vn -0.706773 0.043365 0.706110
vn 0.707026 0.015111 0.707026
vn 0.999895 0.014467 0.000000
vn 0.999110 0.042172 0.000000
vn 0.707052 0.043446 0.705826
vn 0.707026 0.015111 -0.707026
vn -0.000000 0.014467 -0.999895
vn 0.000000 0.042069 -0.999115
vn 0.706689 0.043549 -0.706183
vn -0.707026 0.015111 -0.707026
vn -0.999895 0.014467 0.000000
vn -0.999115 0.042058 0.000000
vn -0.706410 0.043468 -0.706467
vn -0.993617 0.112803 0.000000
vn -0.705976 0.104980 0.700412
vn -0.000000 0.112108 0.993696
vn -0.702946 0.105133 -0.703431
vn 0.000000 0.242066 -0.970260
vn 0.000000 0.112547 -0.993646
vn 0.705321 0.105260 -0.701030
vn 0.970461 0.241256 0.000000
vn 0.993579 0.113137 -0.000000
vn 0.998570 -0.053452 -0.000000
vn 0.716588 -0.058010 0.695080
vn 0.716588 -0.058010 -0.695080
vn 0.715920 0.070388 -0.694625
vn -0.000000 0.063293 -0.997995
vn -0.998570 -0.053452 -0.000000
vn -0.716588 -0.058010 0.695080
vn 0.000000 -0.052138 0.998640
vn 0.718986 0.001327 -0.695024
vn 0.710062 0.008417 -0.704089
vn 0.665783 -0.347533 -0.660268
vn 0.220158 -0.950290 -0.220182
vn 0.708343 0.105100 0.698000
s 1
g pCube1
usemtl initialShadingGroup
f 1/171/1 104/2/2 138/3/3 100/4/4
f 37/5/5 42/6/6 137/7/7
f 23/8/8 66/9/9 136/10/10 69/11/11
f 7/182/12 101/188/13 135/14/14 94/15/15
f 2/16/16 93/183/17 134/18/18 99/19/19
f 7/12/12 94/185/15 133/20/20 69/11/11
f 3/204/21 103/22/22 132/24/23 92/25/24
f 4/26/25 97/29/26 131/30/27 91/33/28
f 6/34/29 102/53/30 130/54/31 89/55/32
f 5/56/33 98/57/34 129/58/35 87/59/36
f 9/169/37 90/38/38 128/39/39 84/40/40
f 10/41/41 88/42/42 127/43/43 83/44/44
f 11/172/45 86/46/46 126/47/47 81/175/48
f 12/49/49 85/50/50 125/51/51 79/52/52
f 18/60/53 74/61/54 124/62/55 75/63/56
f 19/64/57 73/65/58 123/66/59 96/67/60
f 5/56/33 102/53/30 122/68/61 96/67/60
f 17/69/62 71/70/63 121/71/64 76/72/65
f 26/209/66 62/74/67 120/75/68 57/76/69
f 29/77/70 55/78/71 119/79/72 52/80/73
f 30/83/74 50/85/75 118/86/76 52/80/73
f 25/88/77 46/90/78 117/91/79 60/92/80
f 22/178/81 70/82/82 116/84/83 63/87/84
f 17/69/62 74/61/54 115/195/85 61/94/86
f 23/8/8 68/89/87 114/95/88 56/97/89
f 18/205/53 73/65/58 113/198/90 59/197/91
f 19/64/57 72/101/92 112/200/93 54/199/94
f 24/98/95 66/9/9 111/99/96 49/140/97
f 21/141/98 65/163/99 110/164/100 64/179/101
f 20/104/102 71/70/63 109/202/103 51/201/104
f 13/174/105 82/106/106 108/107/107 44/108/108
f 14/109/109 80/110/110 107/111/111 43/112/112
f 15/176/113 78/114/114 106/115/115 41/192/116
f 16/117/117 77/118/118 105/119/119 39/120/120
f 42/6/6 37/5/5 141/152/121 33/145/122 142/143/123
f 44/190/108 105/119/119 77/118/118 13/105/105
f 36/147/124 141/146/121 37/5/5 38/125/125 140/153/126
f 39/120/120 106/115/115 78/114/114 16/117/117
f 35/149/127 140/148/126 38/125/125 40/128/128 139/154/129
f 41/116/116 107/111/111 80/110/110 15/113/113
f 43/112/112 108/107/107 82/106/106 14/109/109
f 45/132/130 109/130/103 61/196/86 27/133/131
f 61/94/86 109/202/103 71/70/63 17/69/62
f 51/131/104 109/130/103 45/132/130 31/134/132
f 46/90/78 110/135/100 49/136/97 32/137/133
f 49/140/97 110/164/100 65/163/99 24/98/95
f 64/138/101 110/135/100 46/90/78 25/88/77
f 47/139/134 111/155/96 56/157/89 29/77/70
f 56/97/89 111/99/96 66/9/9 23/8/8
f 49/136/97 111/155/96 47/139/134 32/137/133
f 50/85/75 112/102/93 51/131/104 31/134/132
f 51/201/104 112/200/93 72/101/92 20/104/102
f 54/103/94 112/102/93 50/85/75 30/83/74
f 53/158/135 113/96/90 54/103/94 30/83/74
f 54/199/94 113/198/90 73/65/58 19/64/57
f 59/210/91 113/96/90 53/158/135 28/211/136
f 55/78/71 114/160/88 63/161/84 26/73/66
f 63/177/84 114/95/88 68/89/87 22/81/81
f 56/157/89 114/160/88 55/78/71 29/77/70
f 58/162/137 115/93/85 59/100/91 28/159/136
f 59/206/91 115/195/85 74/61/54 18/60/53
f 61/196/86 115/93/85 58/162/137 27/133/131
f 62/74/67 116/165/83 64/138/101 25/88/77
f 64/179/101 116/84/83 70/82/82 21/141/98
f 63/208/84 116/165/83 62/74/67 26/209/66
f 45/132/130 117/91/79 48/166/138 31/134/132
f 48/166/138 117/91/79 46/90/78 32/137/133
f 60/92/80 117/91/79 45/132/130 27/133/131
f 47/139/134 118/86/76 48/166/138 32/137/133
f 48/166/138 118/86/76 50/85/75 31/134/132
f 52/80/73 118/86/76 47/139/134 29/77/70
f 53/158/135 119/79/72 57/212/69 28/211/136
f 57/212/69 119/79/72 55/78/71 26/73/66
f 52/80/73 119/79/72 53/158/135 30/83/74
f 58/162/137 120/75/68 60/92/80 27/133/131
f 60/92/80 120/75/68 62/74/67 25/88/77
f 57/76/69 120/75/68 58/162/137 28/159/136
f 97/29/26 121/71/64 95/167/139 6/34/29
f 95/167/139 121/71/64 71/70/63 20/104/102
f 76/72/65 121/71/64 97/29/26 4/26/25
f 72/101/92 122/68/61 95/167/139 20/104/102
f 95/167/139 122/68/61 102/53/30 6/34/29
f 96/67/60 122/68/61 72/101/92 19/64/57
f 98/57/34 123/66/59 75/203/56 3/21/21
f 75/203/56 123/66/59 73/65/58 18/205/53
f 96/67/60 123/66/59 98/57/34 5/56/33
f 103/22/22 124/62/55 76/72/65 4/26/25
f 76/72/65 124/62/55 74/61/54 17/69/62
f 75/63/56 124/62/55 103/22/22 3/204/21
f 77/118/118 125/51/51 84/173/40 13/105/105
f 84/173/40 125/51/51 85/50/50 9/37/37
f 79/52/52 125/51/51 77/118/118 16/117/117
f 78/114/114 126/47/47 79/52/52 16/117/117
f 79/52/52 126/47/47 86/46/46 12/49/49
f 81/175/48 126/47/47 78/114/114 15/176/113
f 80/110/110 127/43/43 81/48/48 15/113/113
f 81/48/48 127/43/43 88/42/42 11/45/45
f 83/44/44 127/43/43 80/110/110 14/109/109
f 82/106/106 128/39/39 83/44/44 14/109/109
f 83/44/44 128/39/39 90/38/38 10/41/41
f 84/40/40 128/39/39 82/106/106 13/174/105
f 85/50/50 129/35/35 92/156/24 9/37/37
f 92/207/24 129/58/35 98/57/34 3/21/21
f 87/36/36 129/35/35 85/50/50 12/49/49
f 86/46/46 130/31/31 87/36/36 12/49/49
f 87/59/36 130/54/31 102/53/30 5/56/33
f 89/170/32 130/31/31 86/46/46 11/172/45
f 88/42/42 131/27/27 89/32/32 11/45/45
f 89/55/32 131/30/27 97/29/26 6/34/29
f 91/28/28 131/27/27 88/42/42 10/41/41
f 90/38/38 132/23/23 91/28/28 10/41/41
f 91/33/28 132/24/23 103/22/22 4/26/25
f 92/168/24 132/23/23 90/38/38 9/169/37
f 68/89/87 133/20/20 100/181/4 22/81/81
f 100/181/4 133/20/20 94/185/15 1/1/1
f 69/11/11 133/20/20 68/89/87 23/8/8
f 65/163/99 134/18/18 67/180/140 24/98/95
f 67/180/140 134/18/18 93/183/17 8/186/141
f 99/19/19 134/18/18 65/163/99 21/141/98
f 104/194/2 135/14/14 93/17/17 2/189/16
f 93/17/17 135/14/14 101/188/13 8/187/141
f 94/15/15 135/14/14 104/194/2 1/184/1
f 101/13/13 136/10/10 67/180/140 8/186/141
f 67/180/140 136/10/10 66/9/9 24/98/95
f 69/11/11 136/10/10 101/13/13 7/12/12
f 38/125/125 137/7/7 40/128/128
f 40/128/128 137/7/7 42/6/6
f 37/5/5 137/7/7 38/125/125
f 70/82/82 138/3/3 99/19/19 21/141/98
f 99/19/19 138/3/3 104/2/2 2/16/16
f 100/4/4 138/3/3 70/82/82 22/178/81
f 40/128/128 42/6/6 142/151/123 34/142/142 139/150/129
f 43/112/112 107/111/111 139/129/129 34/144/142
f 35/193/127 139/129/129 107/111/111 41/116/116
f 41/192/116 106/115/115 140/126/126 35/127/127
f 36/124/124 140/126/126 106/115/115 39/120/120
f 39/120/120 105/119/119 141/121/121 36/124/124
f 33/191/122 141/121/121 105/119/119 44/190/108
f 44/108/108 108/107/107 142/123/123 33/122/122
f 34/144/142 142/123/123 108/107/107 43/112/112
