# This file uses centimeters as units for non-parametric coordinates.

mtllib Model_Left_Cattail.mtl
g default
v -31.241757 -1.382133 -3.704827
v -31.253158 -1.382133 -3.780511
v -31.314737 -1.382133 -3.825967
v -31.390419 -1.382133 -3.814565
v -31.435874 -1.382133 -3.752989
v -31.424472 -1.382133 -3.677304
v -31.362894 -1.382133 -3.631849
v -31.287212 -1.382133 -3.643251
v -33.125107 6.383022 -2.570220
v -33.143357 6.403133 -2.641779
v -33.198086 6.383022 -2.691360
v -33.257234 6.334471 -2.689919
v -33.286156 6.285919 -2.638304
v -33.267905 6.265809 -2.566746
v -33.213176 6.285919 -2.517164
v -33.154028 6.334471 -2.518605
v -31.338815 -1.382133 -3.728908
v -33.205631 6.334471 -2.604262
v -32.048386 4.758383 -3.301434
v -32.066161 4.777888 -3.373278
v -32.036090 4.824979 -3.425586
v -31.975794 4.872070 -3.427719
v -31.920588 4.891575 -3.378424
v -31.902814 4.872070 -3.306579
v -31.932884 4.824979 -3.254272
v -31.993181 4.777888 -3.252138
v -31.567946 3.556274 -3.590870
v -31.581329 3.567684 -3.665361
v -31.540657 3.595226 -3.724055
v -31.469759 3.622767 -3.732575
v -31.410162 3.634177 -3.685925
v -31.396779 3.622767 -3.611435
v -31.437451 3.595226 -3.552741
v -31.508349 3.567684 -3.544221
v -31.423391 2.194733 -3.677956
v -31.435109 2.199373 -3.753449
v -31.390419 2.210574 -3.814565
v -31.315501 2.221775 -3.825506
v -31.254240 2.226415 -3.779859
v -31.242522 2.221775 -3.704366
v -31.287212 2.210574 -3.643251
v -31.362130 2.199373 -3.632309
vt 0.976134 0.166882
vt 0.964360 0.166882
vt 0.830973 0.319979
vt 0.827053 0.319618
vt 0.956035 0.175207
vt 0.803625 0.319001
vt 0.956036 0.186981
vt 0.807527 0.318480
vt 0.964361 0.195306
vt 0.811431 0.317956
vt 0.976134 0.195306
vt 0.815355 0.317799
vt 0.984459 0.186981
vt 0.819273 0.318162
vt 0.984460 0.175207
vt 0.823164 0.318891
vt 0.970248 0.181094
vt 0.822949 0.709429
vt 0.826871 0.709548
vt 0.969960 0.222443
vt 0.799545 0.708813
vt 0.803455 0.708899
vt 0.807353 0.708989
vt 0.811247 0.709089
vt 0.815141 0.709194
vt 0.819038 0.709309
vt 0.809090 0.539904
vt 0.813025 0.539725
vt 0.805215 0.540511
vt 0.801346 0.541111
vt 0.828581 0.542113
vt 0.824668 0.541724
vt 0.820814 0.540922
vt 0.816954 0.540110
vt 0.810240 0.430565
vt 0.814173 0.430377
vt 0.806369 0.431182
vt 0.802502 0.431782
vt 0.829722 0.432784
vt 0.825808 0.432395
vt 0.821956 0.431592
vt 0.818100 0.430772
vt 0.969960 0.237590
vt 0.959249 0.233154
vt 0.980671 0.233153
vt 0.985106 0.222443
vt 0.980670 0.211732
vt 0.969960 0.207296
vt 0.959250 0.211732
vt 0.954813 0.222443
vt 0.826248 0.027352
vt 0.830174 0.027455
vt 0.822327 0.027249
vt 0.818407 0.027145
vt 0.814486 0.027043
vt 0.810565 0.026940
vt 0.806639 0.026835
vt 0.834101 0.027558
vt 0.799700 0.319157
vt 0.798583 0.431965
vt 0.797427 0.541293
vt 0.954813 0.222443
vt 0.795622 0.708726
vt 0.802712 0.026733
vt 0.964360 0.166882
vn 0.988508 0.000276 -0.151167
vn 0.988508 0.000276 -0.151167
vn 0.988088 0.027323 -0.151444
vn 0.987680 0.039071 -0.151530
vn 0.595687 0.000276 -0.803216
vn 0.595687 0.000276 -0.803216
vn 0.595621 0.039071 -0.802315
vn 0.595736 0.027323 -0.802715
vn -0.146761 0.000048 -0.989172
vn -0.146761 0.000048 -0.989172
vn -0.146091 0.019642 -0.989076
vn -0.146602 0.004839 -0.989184
vn -0.805867 0.000048 -0.592096
vn -0.805867 0.000048 -0.592096
vn -0.806142 -0.019123 -0.591413
vn -0.805962 -0.004681 -0.591948
vn -0.988506 0.000278 0.151184
vn -0.988506 0.000278 0.151184
vn -0.987749 -0.036642 0.151687
vn -0.988116 -0.025638 0.151559
vn -0.595701 0.000278 0.803206
vn -0.595701 0.000278 0.803206
vn -0.595850 -0.025638 0.802686
vn -0.595792 -0.036642 0.802302
vn 0.146754 0.000048 0.989173
vn 0.146754 0.000048 0.989173
vn 0.146578 -0.004681 0.989188
vn 0.146022 -0.019123 0.989097
vn 0.805863 0.000048 0.592102
vn 0.805863 0.000048 0.592102
vn 0.805947 0.004839 0.591967
vn 0.806091 0.019642 0.591466
vn 0.000000 -1.000000 0.000000
vn 0.000000 -1.000000 0.000000
vn 0.000000 -1.000000 0.000000
vn 0.000000 -1.000000 0.000000
vn 0.000000 -1.000000 0.000000
vn 0.000000 -1.000000 0.000000
vn 0.000000 -1.000000 0.000000
vn 0.000000 -1.000000 0.000000
vn 0.000000 -1.000000 0.000000
vn -0.588140 0.727015 0.354316
vn -0.588136 0.727018 0.354317
vn -0.588137 0.727017 0.354317
vn -0.588137 0.727015 0.354321
vn -0.588138 0.727016 0.354318
vn -0.588136 0.727018 0.354317
vn -0.588137 0.727018 0.354316
vn -0.588136 0.727018 0.354316
vn -0.588138 0.727016 0.354318
vn -0.850073 -0.522698 0.064511
vn -0.822915 -0.566181 0.047420
vn -0.772784 -0.634388 0.018883
vn -0.772784 -0.634388 0.018883
vn -0.763970 -0.188402 -0.617134
vn -0.722495 -0.252245 -0.643719
vn -0.715080 -0.262791 -0.647767
vn -0.715080 -0.262791 -0.647767
vn -0.188575 0.188663 -0.963766
vn -0.231294 0.252168 -0.939635
vn -0.238399 0.262788 -0.934937
vn -0.238399 0.262788 -0.934937
vn 0.454710 0.522274 -0.721435
vn 0.427133 0.565406 -0.705602
vn 0.377923 0.634364 -0.674356
vn 0.377923 0.634364 -0.674356
vn 0.823427 0.565406 -0.047787
vn 0.850315 0.522274 -0.064764
vn 0.772803 0.634364 -0.018888
vn 0.772803 0.634364 -0.018888
vn 0.722558 0.252168 0.643678
vn 0.763858 0.188663 0.617193
vn 0.715084 0.262788 0.647763
vn 0.715084 0.262788 0.647763
vn 0.231360 -0.252245 0.939598
vn 0.188472 -0.188402 0.963838
vn 0.238404 -0.262791 0.934936
vn 0.238404 -0.262791 0.934936
vn -0.426570 -0.566181 0.705320
vn -0.454373 -0.522698 0.721340
vn -0.377910 -0.634388 0.674341
vn -0.377910 -0.634388 0.674341
vn -0.965350 -0.221395 0.138140
vn -0.949615 -0.285739 0.128784
vn -0.802852 -0.064258 -0.592705
vn -0.782519 -0.147963 -0.604790
vn -0.148924 0.065025 -0.986708
vn -0.169271 0.148784 -0.974274
vn 0.572067 0.226381 -0.788347
vn 0.556103 0.290804 -0.778577
vn 0.948224 0.290804 -0.127691
vn 0.964323 0.226381 -0.137236
vn 0.782171 0.148784 0.605039
vn 0.802674 0.065025 0.592863
vn 0.168889 -0.147963 0.974466
vn 0.148701 -0.064258 0.986792
vn -0.557721 -0.285739 0.779295
vn -0.573347 -0.221395 0.788833
s 1
g pasted__Cattail_Stalk_Tall Left_Cattail_Tall1
usemtl lambert4SG
f 1/52/1 2/58/2 39/3/3 40/4/4
s 2
f 2/64/5 3/57/6 38/6/7 39/59/8
s 3
f 3/57/9 4/56/10 37/8/11 38/6/12
s 4
f 4/56/13 5/55/14 36/10/15 37/8/16
s 5
f 5/55/17 6/54/18 35/12/19 36/10/20
s 6
f 6/54/21 7/53/22 42/14/23 35/12/24
s 7
f 7/53/25 8/51/26 41/16/27 42/14/28
s 8
f 8/51/29 1/52/30 40/4/31 41/16/32
s 9
f 2/2/33 1/1/34 17/17/35
f 3/5/36 2/65/33 17/17/35
f 4/7/37 3/5/36 17/17/35
f 5/9/38 4/7/37 17/17/35
f 6/11/39 5/9/38 17/17/35
f 7/13/40 6/11/39 17/17/35
f 8/15/41 7/13/40 17/17/35
f 1/1/34 8/15/41 17/17/35
s 10
f 9/44/42 10/50/43 18/20/44
f 10/62/43 11/49/45 18/20/44
f 11/49/45 12/48/46 18/20/44
f 12/48/46 13/47/47 18/20/44
f 13/47/47 14/46/48 18/20/44
f 14/46/48 15/45/49 18/20/44
f 15/45/49 16/43/50 18/20/44
f 16/43/50 9/44/42 18/20/44
s 5
f 20/27/51 19/28/52 14/24/53 13/23/54
s 4
f 21/29/55 20/27/56 13/23/57 12/22/58
s 3
f 22/30/59 21/29/60 12/22/61 11/21/62
s 2
f 23/61/63 22/30/64 11/21/65 10/63/66
s 1
f 24/32/67 23/31/68 10/19/69 9/18/70
s 8
f 25/33/71 24/32/72 9/18/73 16/26/74
s 7
f 26/34/75 25/33/76 16/26/77 15/25/78
s 6
f 19/28/79 26/34/80 15/25/81 14/24/82
s 5
f 28/35/83 27/36/84 19/28/52 20/27/51
s 4
f 29/37/85 28/35/86 20/27/56 21/29/55
s 3
f 30/38/87 29/37/88 21/29/60 22/30/59
s 2
f 31/60/89 30/38/90 22/30/64 23/61/63
s 1
f 32/40/91 31/39/92 23/31/68 24/32/67
s 8
f 33/41/93 32/40/94 24/32/72 25/33/71
s 7
f 34/42/95 33/41/96 25/33/76 26/34/75
s 6
f 27/36/97 34/42/98 26/34/80 19/28/79
s 5
f 36/10/20 35/12/19 27/36/84 28/35/83
s 4
f 37/8/16 36/10/15 28/35/86 29/37/85
s 3
f 38/6/12 37/8/11 29/37/88 30/38/87
s 2
f 39/59/8 38/6/7 30/38/90 31/60/89
s 1
f 40/4/4 39/3/3 31/39/92 32/40/91
s 8
f 41/16/32 40/4/31 32/40/94 33/41/93
s 7
f 42/14/28 41/16/27 33/41/96 34/42/95
s 6
f 35/12/24 42/14/23 34/42/98 27/36/97
g default
v -31.920490 5.152707 -3.095139
v -31.929589 5.226992 -3.264772
v -32.025267 5.226992 -3.423588
v -32.170976 5.152707 -3.510925
v -32.311059 5.032511 -3.493420
v -32.392012 4.912315 -3.377764
v -32.382911 4.838030 -3.208129
v -32.287233 4.838030 -3.049313
v -32.141526 4.912315 -2.961978
v -32.001441 5.032511 -2.979481
v -32.854673 6.323420 -2.532349
v -32.863772 6.397705 -2.701982
v -32.959450 6.397705 -2.860799
v -33.105159 6.323420 -2.948135
v -33.245243 6.203224 -2.930630
v -33.326195 6.083029 -2.814974
v -33.317094 6.008743 -2.645340
v -33.221417 6.008744 -2.486523
v -33.075709 6.083029 -2.399188
v -32.935625 6.203224 -2.416691
v -32.156250 5.032511 -3.236452
v -33.090434 6.203224 -2.673661
vt 0.264933 0.427434
vt 0.267830 0.427434
vt 0.256375 0.422951
vt 0.255538 0.420172
vt 0.270175 0.425730
vt 0.255420 0.425692
vt 0.271070 0.422975
vt 0.253037 0.427348
vt 0.270175 0.420220
vt 0.250135 0.427286
vt 0.267831 0.418517
vt 0.247823 0.425531
vt 0.264933 0.418517
vt 0.246985 0.422752
vt 0.262589 0.420220
vt 0.247940 0.420011
vt 0.261694 0.422975
vt 0.250324 0.418356
vt 0.262589 0.425731
vt 0.253226 0.418417
vt 0.266382 0.422975
vt 0.251680 0.422851
vt 0.261629 0.485525
vt 0.267828 0.485525
vt 0.255430 0.485525
vt 0.249231 0.485525
vt 0.243032 0.485525
vt 0.236833 0.485525
vt 0.230633 0.485525
vt 0.224434 0.485525
vt 0.218235 0.485525
vt 0.212036 0.485525
vt 0.261629 0.432029
vt 0.267828 0.432029
vt 0.255430 0.432029
vt 0.249231 0.432029
vt 0.243032 0.432029
vt 0.236833 0.432029
vt 0.230633 0.432029
vt 0.224434 0.432029
vt 0.218235 0.432029
vt 0.274027 0.432029
vt 0.212036 0.432029
vt 0.274027 0.485525
vn 0.810366 0.551448 0.198018
vn 0.810366 0.551448 0.198018
vn 0.810366 0.551448 0.198018
vn 0.810366 0.551448 0.198018
vn 0.626748 0.681631 -0.377578
vn 0.626748 0.681631 -0.377578
vn 0.626748 0.681631 -0.377578
vn 0.626748 0.681631 -0.377578
vn 0.203734 0.551451 -0.808946
vn 0.203734 0.551451 -0.808946
vn 0.203734 0.551451 -0.808946
vn 0.203734 0.551451 -0.808946
vn -0.297104 0.210632 -0.931323
vn -0.297104 0.210632 -0.931323
vn -0.297104 0.210632 -0.931323
vn -0.297104 0.210632 -0.931323
vn -0.684449 -0.210632 -0.697971
vn -0.684449 -0.210632 -0.697971
vn -0.684449 -0.210632 -0.697971
vn -0.684449 -0.210632 -0.697971
vn -0.810366 -0.551451 -0.198012
vn -0.810366 -0.551451 -0.198012
vn -0.810366 -0.551451 -0.198012
vn -0.810366 -0.551451 -0.198012
vn -0.626748 -0.681631 0.377579
vn -0.626748 -0.681631 0.377579
vn -0.626748 -0.681631 0.377579
vn -0.626748 -0.681631 0.377579
vn -0.203728 -0.551448 0.808950
vn -0.203728 -0.551448 0.808950
vn -0.203728 -0.551448 0.808950
vn -0.203728 -0.551448 0.808950
vn 0.297095 -0.210640 0.931325
vn 0.297095 -0.210640 0.931325
vn 0.297095 -0.210640 0.931325
vn 0.297095 -0.210640 0.931325
vn 0.684454 0.210639 0.697964
vn 0.684454 0.210639 0.697964
vn 0.684454 0.210639 0.697964
vn 0.684454 0.210639 0.697964
vn 0.583864 -0.731696 -0.351744
vn 0.583864 -0.731696 -0.351744
vn 0.583864 -0.731696 -0.351743
vn 0.583864 -0.731696 -0.351744
vn 0.583864 -0.731696 -0.351744
vn 0.583864 -0.731697 -0.351743
vn 0.583863 -0.731697 -0.351743
vn 0.583863 -0.731697 -0.351743
vn 0.583864 -0.731697 -0.351743
vn 0.583864 -0.731697 -0.351743
vn 0.583864 -0.731697 -0.351743
vn -0.583864 0.731697 0.351742
vn -0.583863 0.731698 0.351741
vn -0.583864 0.731696 0.351743
vn -0.583862 0.731698 0.351744
vn -0.583863 0.731697 0.351744
vn -0.583864 0.731696 0.351744
vn -0.583865 0.731695 0.351745
vn -0.583867 0.731694 0.351744
vn -0.583866 0.731695 0.351742
vn -0.583864 0.731696 0.351744
vn -0.583864 0.731696 0.351744
s off
g Left_Cattail_Tall1 pasted__Cattail_Tall
usemtl lambert4SG
f 43/99/99 44/107/100 54/109/101 53/89/102
f 44/108/103 45/106/104 55/96/105 54/97/106
f 45/106/107 46/105/108 56/95/109 55/96/110
f 46/105/111 47/104/112 57/94/113 56/95/114
f 47/104/115 48/103/116 58/93/117 57/94/118
f 48/103/119 49/102/120 59/92/121 58/93/122
f 49/102/123 50/101/124 60/91/125 59/92/126
f 50/101/127 51/100/128 61/90/129 60/91/130
f 51/100/131 52/98/132 62/88/133 61/90/134
f 52/98/135 43/99/136 53/89/137 62/88/138
s 1
f 44/67/139 43/66/140 63/86/141
f 45/70/142 44/67/139 63/86/141
f 46/72/143 45/70/142 63/86/141
f 47/74/144 46/72/143 63/86/141
f 48/76/145 47/74/144 63/86/141
f 49/78/146 48/76/145 63/86/141
f 50/80/147 49/78/146 63/86/141
f 51/82/148 50/80/147 63/86/141
f 52/84/149 51/82/148 63/86/141
f 43/66/140 52/84/149 63/86/141
s 2
f 53/69/150 54/68/151 64/87/152
f 54/68/151 55/71/153 64/87/152
f 55/71/153 56/73/154 64/87/152
f 56/73/154 57/75/155 64/87/152
f 57/75/155 58/77/156 64/87/152
f 58/77/156 59/79/157 64/87/152
f 59/79/157 60/81/158 64/87/152
f 60/81/158 61/83/159 64/87/152
f 61/83/159 62/85/160 64/87/152
f 62/85/160 53/69/150 64/87/152
g default
v -28.700956 -1.166223 -4.703366
v -28.753158 -1.166223 -4.647392
v -28.750492 -1.166223 -4.570900
v -28.694519 -1.166223 -4.518701
v -28.618029 -1.166223 -4.521366
v -28.565827 -1.166223 -4.577340
v -28.568493 -1.166223 -4.653831
v -28.624466 -1.166223 -4.706031
v -26.641527 6.598932 -3.933242
v -26.686240 6.619043 -3.874467
v -26.691063 6.598932 -3.800776
v -26.653170 6.550380 -3.755338
v -26.594760 6.501829 -3.764764
v -26.550047 6.481719 -3.823538
v -26.545224 6.501829 -3.897229
v -26.583118 6.550380 -3.942668
v -28.659492 -1.166223 -4.612366
v -26.618144 6.550380 -3.849003
v -27.883582 4.974293 -4.322214
v -27.928815 4.993798 -4.263634
v -27.988482 5.040888 -4.254678
v -28.027630 5.087979 -4.300586
v -28.023328 5.107484 -4.374472
v -27.978095 5.087979 -4.433052
v -27.918429 5.040888 -4.442008
v -27.879280 4.993798 -4.396100
v -28.408940 3.772184 -4.518672
v -28.458975 3.783594 -4.461888
v -28.530234 3.811135 -4.457266
v -28.580976 3.838677 -4.507510
v -28.581475 3.850086 -4.583191
v -28.531440 3.838677 -4.639975
v -28.460181 3.811135 -4.644597
v -28.409439 3.783593 -4.594353
v -28.567010 2.410643 -4.577782
v -28.618865 2.415283 -4.521678
v -28.694519 2.426484 -4.518701
v -28.749655 2.437685 -4.570588
v -28.751975 2.442325 -4.646950
v -28.700120 2.437685 -4.703053
v -28.624466 2.426484 -4.706031
v -28.569329 2.415283 -4.654144
vt 0.974306 0.247497
vt 0.962532 0.247497
vt 0.782939 0.321887
vt 0.779020 0.321526
vt 0.954207 0.255822
vt 0.755591 0.320909
vt 0.954208 0.267596
vt 0.759494 0.320388
vt 0.962533 0.275921
vt 0.763397 0.319864
vt 0.974306 0.275921
vt 0.767321 0.319707
vt 0.982631 0.267595
vt 0.771240 0.320070
vt 0.982632 0.255822
vt 0.775130 0.320799
vt 0.968420 0.261709
vt 0.774915 0.711337
vt 0.778837 0.711456
vt 0.968132 0.301937
vt 0.751511 0.710721
vt 0.755422 0.710807
vt 0.759320 0.710897
vt 0.763213 0.710997
vt 0.767107 0.711102
vt 0.771005 0.711217
vt 0.761057 0.541812
vt 0.764991 0.541633
vt 0.757181 0.542419
vt 0.753313 0.543019
vt 0.780548 0.544021
vt 0.776635 0.543632
vt 0.772780 0.542830
vt 0.768920 0.542018
vt 0.762206 0.432473
vt 0.766140 0.432285
vt 0.758335 0.433090
vt 0.754468 0.433690
vt 0.781688 0.434692
vt 0.777775 0.434303
vt 0.773923 0.433500
vt 0.770066 0.432680
vt 0.968132 0.317083
vt 0.957421 0.312648
vt 0.978843 0.312647
vt 0.983278 0.301937
vt 0.978842 0.291226
vt 0.968132 0.286790
vt 0.957422 0.291226
vt 0.952985 0.301937
vt 0.778214 0.029260
vt 0.782140 0.029363
vt 0.774293 0.029157
vt 0.770373 0.029053
vt 0.766452 0.028951
vt 0.762531 0.028848
vt 0.758605 0.028744
vt 0.786067 0.029467
vt 0.751666 0.321065
vt 0.750549 0.433873
vt 0.749393 0.543201
vt 0.952985 0.301937
vt 0.747589 0.710634
vt 0.754678 0.028641
vt 0.962532 0.247497
vn -0.732837 0.000276 -0.680404
vn -0.732837 0.000276 -0.680404
vn -0.732794 0.027323 -0.679902
vn -0.732607 0.039071 -0.679529
vn -0.999468 0.000276 0.032607
vn -0.999468 0.000276 0.032607
vn -0.998721 0.039071 0.032098
vn -0.999106 0.027323 0.032258
vn -0.683663 0.000048 0.729798
vn -0.683663 0.000048 0.729798
vn -0.684004 0.019642 0.729214
vn -0.683770 0.004839 0.729681
vn 0.037068 0.000048 0.999313
vn 0.037068 0.000048 0.999313
vn 0.037774 -0.019123 0.999103
vn 0.037243 -0.004681 0.999295
vn 0.732849 0.000278 0.680391
vn 0.732849 0.000278 0.680391
vn 0.732773 -0.036642 0.679486
vn 0.732900 -0.025638 0.679853
vn 0.999469 0.000278 -0.032591
vn 0.999469 0.000278 -0.032591
vn 0.999154 -0.025638 -0.032150
vn 0.998817 -0.036642 -0.031957
vn 0.683668 0.000048 -0.729793
vn 0.683668 0.000048 -0.729793
vn 0.683789 -0.004681 -0.729665
vn 0.684063 -0.019123 -0.729172
vn -0.037061 0.000048 -0.999313
vn -0.037061 0.000048 -0.999313
vn -0.037219 0.004839 -0.999295
vn -0.037701 0.019642 -0.999096
vn 0.000000 -1.000000 0.000000
vn 0.000000 -1.000000 0.000000
vn 0.000000 -1.000000 0.000000
vn 0.000000 -1.000000 0.000000
vn 0.000000 -1.000000 0.000000
vn 0.000000 -1.000000 0.000000
vn 0.000000 -1.000000 0.000000
vn 0.000000 -1.000000 0.000000
vn 0.000000 -1.000000 0.000000
vn 0.643124 0.727015 0.240499
vn 0.643123 0.727018 0.240496
vn 0.643123 0.727017 0.240497
vn 0.643126 0.727015 0.240494
vn 0.643124 0.727016 0.240497
vn 0.643122 0.727018 0.240496
vn 0.643122 0.727018 0.240498
vn 0.643121 0.727018 0.240497
vn 0.643124 0.727016 0.240497
vn 0.578908 -0.522698 0.625821
vn 0.548639 -0.566181 0.615169
vn 0.495125 -0.634388 0.593635
vn 0.495125 -0.634388 0.593635
vn -0.008588 -0.188402 0.982055
vn -0.055192 -0.252245 0.966088
vn -0.062972 -0.262791 0.962796
vn -0.062972 -0.262791 0.962796
vn -0.637770 0.188663 0.746763
vn -0.592314 0.252168 0.765229
vn -0.584218 0.262788 0.767875
vn -0.584218 0.262788 0.767875
vn -0.847777 0.522274 0.092212
vn -0.818233 0.565406 0.103973
vn -0.763170 0.634364 0.123102
vn -0.763170 0.634364 0.123102
vn -0.549245 0.565406 -0.615342
vn -0.579257 0.522274 -0.625852
vn -0.495141 0.634364 -0.593648
vn -0.495141 0.634364 -0.593648
vn 0.055121 0.252168 -0.966112
vn 0.008703 0.188663 -0.982003
vn 0.062967 0.262788 -0.962797
vn 0.062967 0.262788 -0.962797
vn 0.592245 -0.252245 -0.765257
vn 0.637891 -0.188402 -0.746727
vn 0.584214 -0.262791 -0.767877
vn 0.584214 -0.262791 -0.767877
vn 0.817663 -0.566181 -0.104240
vn 0.847494 -0.522698 -0.092417
vn 0.763150 -0.634388 -0.123103
vn 0.763150 -0.634388 -0.123103
vn 0.708239 -0.221395 0.670360
vn 0.691129 -0.285739 0.663848
vn 0.034717 -0.064258 0.997329
vn 0.012612 -0.147963 0.988912
vn -0.680388 0.065025 0.729961
vn -0.658001 0.148784 0.738172
vn -0.973139 0.226381 0.041868
vn -0.955563 0.290804 0.048301
vn -0.689408 0.290804 -0.663438
vn -0.706892 0.226381 -0.670116
vn -0.012201 0.148784 -0.988794
vn -0.034483 0.065025 -0.997288
vn 0.658388 -0.147963 -0.737992
vn 0.680592 -0.064258 -0.729839
vn 0.957131 -0.285739 -0.047480
vn 0.974315 -0.221395 -0.041168
s 1
g pasted__pCylinder7 Left_Cattail_Tall
usemtl lambert4SG
f 65/161/161 66/167/162 103/112/163 104/113/164
s 2
f 66/173/165 67/166/166 102/115/167 103/168/168
s 3
f 67/166/169 68/165/170 101/117/171 102/115/172
s 4
f 68/165/173 69/164/174 100/119/175 101/117/176
s 5
f 69/164/177 70/163/178 99/121/179 100/119/180
s 6
f 70/163/181 71/162/182 106/123/183 99/121/184
s 7
f 71/162/185 72/160/186 105/125/187 106/123/188
s 8
f 72/160/189 65/161/190 104/113/191 105/125/192
s 9
f 66/111/193 65/110/194 81/126/195
f 67/114/196 66/174/193 81/126/195
f 68/116/197 67/114/196 81/126/195
f 69/118/198 68/116/197 81/126/195
f 70/120/199 69/118/198 81/126/195
f 71/122/200 70/120/199 81/126/195
f 72/124/201 71/122/200 81/126/195
f 65/110/194 72/124/201 81/126/195
s 10
f 73/153/202 74/159/203 82/129/204
f 74/171/203 75/158/205 82/129/204
f 75/158/205 76/157/206 82/129/204
f 76/157/206 77/156/207 82/129/204
f 77/156/207 78/155/208 82/129/204
f 78/155/208 79/154/209 82/129/204
f 79/154/209 80/152/210 82/129/204
f 80/152/210 73/153/202 82/129/204
s 5
f 84/136/211 83/137/212 78/133/213 77/132/214
s 4
f 85/138/215 84/136/216 77/132/217 76/131/218
s 3
f 86/139/219 85/138/220 76/131/221 75/130/222
s 2
f 87/170/223 86/139/224 75/130/225 74/172/226
s 1
f 88/141/227 87/140/228 74/128/229 73/127/230
s 8
f 89/142/231 88/141/232 73/127/233 80/135/234
s 7
f 90/143/235 89/142/236 80/135/237 79/134/238
s 6
f 83/137/239 90/143/240 79/134/241 78/133/242
s 5
f 92/144/243 91/145/244 83/137/212 84/136/211
s 4
f 93/146/245 92/144/246 84/136/216 85/138/215
s 3
f 94/147/247 93/146/248 85/138/220 86/139/219
s 2
f 95/169/249 94/147/250 86/139/224 87/170/223
s 1
f 96/149/251 95/148/252 87/140/228 88/141/227
s 8
f 97/150/253 96/149/254 88/141/232 89/142/231
s 7
f 98/151/255 97/150/256 89/142/236 90/143/235
s 6
f 91/145/257 98/151/258 90/143/240 83/137/239
s 5
f 100/119/180 99/121/179 91/145/244 92/144/243
s 4
f 101/117/176 100/119/175 92/144/246 93/146/245
s 3
f 102/115/172 101/117/171 93/146/248 94/147/247
s 2
f 103/168/168 102/115/167 94/147/250 95/169/249
s 1
f 104/113/164 103/112/163 95/148/252 96/149/251
s 8
f 105/125/192 104/113/191 96/149/254 97/150/253
s 7
f 106/123/188 105/125/187 97/150/256 98/151/255
s 6
f 99/121/184 106/123/183 98/151/258 91/145/257
g default
v -27.801474 5.368617 -4.550628
v -27.928702 5.442902 -4.438063
v -27.993644 5.442902 -4.264398
v -27.971494 5.368617 -4.095970
v -27.870711 5.248421 -3.997113
v -27.729792 5.128225 -4.005586
v -27.602563 5.053940 -4.118153
v -27.537621 5.053940 -4.291818
v -27.559773 5.128225 -4.460244
v -27.660555 5.248421 -4.559103
v -26.779951 6.539330 -4.168629
v -26.907180 6.613615 -4.056064
v -26.972122 6.613615 -3.882399
v -26.949971 6.539330 -3.713971
v -26.849188 6.419134 -3.615115
v -26.708270 6.298938 -3.623587
v -26.581041 6.224653 -3.736154
v -26.516099 6.224654 -3.909819
v -26.538250 6.298938 -4.078245
v -26.639032 6.419134 -4.177104
v -27.765633 5.248421 -4.278107
v -26.744110 6.419134 -3.896108
vt 0.157412 0.427597
vt 0.160309 0.427597
vt 0.148854 0.423114
vt 0.148016 0.420336
vt 0.162653 0.425894
vt 0.147899 0.425855
vt 0.163548 0.423139
vt 0.145515 0.427511
vt 0.162653 0.420383
vt 0.142614 0.427450
vt 0.160309 0.418680
vt 0.140303 0.425695
vt 0.157412 0.418680
vt 0.139464 0.422916
vt 0.155068 0.420383
vt 0.140419 0.420175
vt 0.154172 0.423139
vt 0.142803 0.418519
vt 0.155068 0.425894
vt 0.145704 0.418581
vt 0.158861 0.423139
vt 0.144159 0.423015
vt 0.154108 0.485688
vt 0.160307 0.485688
vt 0.147909 0.485688
vt 0.141710 0.485688
vt 0.135511 0.485688
vt 0.129312 0.485688
vt 0.123112 0.485688
vt 0.116913 0.485688
vt 0.110714 0.485688
vt 0.104515 0.485688
vt 0.154108 0.432192
vt 0.160307 0.432192
vt 0.147909 0.432192
vt 0.141710 0.432192
vt 0.135511 0.432192
vt 0.129311 0.432192
vt 0.123112 0.432192
vt 0.116913 0.432192
vt 0.110714 0.432192
vt 0.166506 0.432192
vt 0.104515 0.432192
vt 0.166506 0.485688
vn -0.348572 0.551448 -0.757893
vn -0.348572 0.551448 -0.757893
vn -0.348572 0.551448 -0.757893
vn -0.348572 0.551448 -0.757893
vn -0.685344 0.681631 -0.256285
vn -0.685344 0.681631 -0.256285
vn -0.685344 0.681631 -0.256285
vn -0.685344 0.681631 -0.256285
vn -0.760334 0.551451 0.343211
vn -0.760334 0.551451 0.343211
vn -0.760334 0.551451 0.343211
vn -0.760334 0.551451 0.343211
vn -0.544898 0.210632 0.811616
vn -0.544898 0.210632 0.811616
vn -0.544898 0.210632 0.811616
vn -0.544898 0.210632 0.811616
vn -0.121340 -0.210632 0.970006
vn -0.121340 -0.210632 0.970006
vn -0.121340 -0.210632 0.970006
vn -0.121340 -0.210632 0.970006
vn 0.348576 -0.551451 0.757889
vn 0.348576 -0.551451 0.757889
vn 0.348576 -0.551451 0.757889
vn 0.348576 -0.551451 0.757889
vn 0.685345 -0.681631 0.256284
vn 0.685345 -0.681631 0.256284
vn 0.685345 -0.681631 0.256284
vn 0.685345 -0.681631 0.256284
vn 0.760333 -0.551448 -0.343218
vn 0.760333 -0.551448 -0.343218
vn 0.760333 -0.551448 -0.343218
vn 0.760333 -0.551448 -0.343218
vn 0.544905 -0.210640 -0.811610
vn 0.544905 -0.210640 -0.811610
vn 0.544905 -0.210640 -0.811610
vn 0.544905 -0.210640 -0.811610
vn 0.121331 0.210639 -0.970005
vn 0.121331 0.210639 -0.970005
vn 0.121331 0.210639 -0.970005
vn 0.121331 0.210639 -0.970005
vn -0.638451 -0.731696 -0.238749
vn -0.638451 -0.731696 -0.238749
vn -0.638451 -0.731696 -0.238749
vn -0.638451 -0.731696 -0.238749
vn -0.638451 -0.731696 -0.238749
vn -0.638451 -0.731697 -0.238749
vn -0.638450 -0.731697 -0.238748
vn -0.638451 -0.731697 -0.238748
vn -0.638450 -0.731697 -0.238749
vn -0.638450 -0.731697 -0.238749
vn -0.638451 -0.731697 -0.238749
vn 0.638450 0.731697 0.238750
vn 0.638449 0.731698 0.238750
vn 0.638451 0.731696 0.238749
vn 0.638450 0.731698 0.238747
vn 0.638451 0.731697 0.238748
vn 0.638451 0.731696 0.238749
vn 0.638453 0.731695 0.238748
vn 0.638453 0.731694 0.238751
vn 0.638451 0.731695 0.238751
vn 0.638451 0.731696 0.238749
vn 0.638451 0.731696 0.238749
s off
g Left_Cattail_Tall pasted__pCylinder8
usemtl lambert4SG
f 107/208/259 108/216/260 118/218/261 117/198/262
f 108/217/263 109/215/264 119/205/265 118/206/266
f 109/215/267 110/214/268 120/204/269 119/205/270
f 110/214/271 111/213/272 121/203/273 120/204/274
f 111/213/275 112/212/276 122/202/277 121/203/278
f 112/212/279 113/211/280 123/201/281 122/202/282
f 113/211/283 114/210/284 124/200/285 123/201/286
f 114/210/287 115/209/288 125/199/289 124/200/290
f 115/209/291 116/207/292 126/197/293 125/199/294
f 116/207/295 107/208/296 117/198/297 126/197/298
s 1
f 108/176/299 107/175/300 127/195/301
f 109/179/302 108/176/299 127/195/301
f 110/181/303 109/179/302 127/195/301
f 111/183/304 110/181/303 127/195/301
f 112/185/305 111/183/304 127/195/301
f 113/187/306 112/185/305 127/195/301
f 114/189/307 113/187/306 127/195/301
f 115/191/308 114/189/307 127/195/301
f 116/193/309 115/191/308 127/195/301
f 107/175/300 116/193/309 127/195/301
s 2
f 117/178/310 118/177/311 128/196/312
f 118/177/311 119/180/313 128/196/312
f 119/180/313 120/182/314 128/196/312
f 120/182/314 121/184/315 128/196/312
f 121/184/315 122/186/316 128/196/312
f 122/186/316 123/188/317 128/196/312
f 123/188/317 124/190/318 128/196/312
f 124/190/318 125/192/319 128/196/312
f 125/192/319 126/194/320 128/196/312
f 126/194/320 117/178/310 128/196/312
g default
v -31.949977 -1.673240 -2.691979
v -32.016817 -1.673240 -2.654690
v -32.037714 -1.673240 -2.581059
v -32.000425 -1.673240 -2.514221
v -31.926796 -1.673240 -2.493325
v -31.859957 -1.673240 -2.530614
v -31.839060 -1.673240 -2.604245
v -31.876349 -1.673240 -2.671082
v -29.829344 5.011527 -1.014580
v -29.883250 5.037873 -0.967060
v -29.917080 5.011527 -0.903660
v -29.911020 4.947923 -0.861524
v -29.868618 4.884319 -0.865327
v -29.814713 4.857974 -0.912848
v -29.780882 4.884319 -0.976247
v -29.786944 4.947923 -1.018385
v -31.938387 -1.673240 -2.592652
v -29.848982 4.947923 -0.939954
v -31.278900 4.031232 -2.161164
v -31.232504 3.970364 -2.161808
v -31.222448 3.909497 -2.116511
v -31.254625 3.884284 -2.051803
v -31.310185 3.909497 -2.005591
v -31.356580 3.970364 -2.004947
v -31.366636 4.031232 -2.050244
v -31.334460 4.056444 -2.114952
v -31.771636 3.212223 -2.550912
v -31.708938 3.170072 -2.538662
v -31.682580 3.127920 -2.480470
v -31.708004 3.110461 -2.410421
v -31.770316 3.127920 -2.369550
v -31.833013 3.170072 -2.381801
v -31.859372 3.212223 -2.439993
v -31.833948 3.229683 -2.510041
v -31.947233 2.332100 -2.689808
v -31.876349 2.310131 -2.671082
v -31.841805 2.288163 -2.606416
v -31.863838 2.279063 -2.533684
v -31.929541 2.288163 -2.495496
v -32.000425 2.310131 -2.514221
v -32.034969 2.332100 -2.578888
v -32.012936 2.341200 -2.651620
vt 0.980758 0.526866
vt 0.980758 0.515192
vt 0.626784 0.316791
vt 0.622499 0.316279
vt 0.972504 0.506938
vt 0.597268 0.316177
vt 0.960831 0.506938
vt 0.601430 0.314993
vt 0.952576 0.515192
vt 0.605596 0.313798
vt 0.952576 0.526865
vt 0.609890 0.313318
vt 0.960831 0.535120
vt 0.614182 0.313833
vt 0.972504 0.535119
vt 0.618343 0.315062
vt 0.966667 0.521029
vt 0.622001 0.607357
vt 0.626304 0.607472
vt 0.966505 0.559248
vt 0.596397 0.607253
vt 0.600680 0.607063
vt 0.604943 0.606880
vt 0.609200 0.606818
vt 0.613458 0.606915
vt 0.617720 0.607132
vt 0.618083 0.453061
vt 0.622276 0.453873
vt 0.613881 0.452232
vt 0.609565 0.451905
vt 0.605246 0.452197
vt 0.601041 0.452992
vt 0.596843 0.453769
vt 0.626568 0.454206
vt 0.618212 0.379986
vt 0.622375 0.381039
vt 0.614044 0.378887
vt 0.609737 0.378436
vt 0.605428 0.378852
vt 0.601256 0.379917
vt 0.597087 0.380936
vt 0.626663 0.381473
vt 0.981467 0.559248
vt 0.977085 0.569827
vt 0.977085 0.548668
vt 0.966504 0.544285
vt 0.955924 0.548668
vt 0.951542 0.559248
vt 0.955925 0.569827
vt 0.966505 0.574210
vt 0.619176 0.020707
vt 0.623484 0.020725
vt 0.614876 0.020686
vt 0.610578 0.020666
vt 0.606280 0.020651
vt 0.601981 0.020637
vt 0.597672 0.020620
vt 0.627796 0.020748
vt 0.592980 0.316653
vt 0.592797 0.381335
vt 0.592551 0.454067
vt 0.966505 0.574210
vt 0.592094 0.607333
vt 0.593361 0.020608
vt 0.980758 0.515192
vn -0.494797 0.000977 -0.869008
vn -0.494797 0.000977 -0.869008
vn -0.493741 0.034648 -0.868919
vn -0.492991 0.051730 -0.868495
vn -0.959591 0.000977 -0.281397
vn -0.959591 0.000977 -0.281397
vn -0.958676 0.051730 -0.279758
vn -0.959260 0.034648 -0.280391
vn -0.877591 0.000171 0.479410
vn -0.877591 0.000171 0.479410
vn -0.876538 0.026812 0.480586
vn -0.877429 0.005530 0.479674
vn -0.264399 0.000172 0.964413
vn -0.264399 0.000172 0.964413
vn -0.265501 -0.025192 0.963781
vn -0.264642 -0.005090 0.964333
vn 0.494899 0.000990 0.868950
vn 0.494899 0.000990 0.868950
vn 0.493729 -0.044831 0.868459
vn 0.494212 -0.030321 0.868812
vn 0.959558 0.000990 0.281510
vn 0.959558 0.000990 0.281510
vn 0.959266 -0.030321 0.280873
vn 0.958811 -0.044831 0.280485
vn 0.877615 0.000172 -0.479366
vn 0.877615 0.000172 -0.479366
vn 0.877482 -0.005090 -0.479584
vn 0.876746 -0.025192 -0.480293
vn 0.264448 0.000171 -0.964400
vn 0.264448 0.000171 -0.964400
vn 0.264742 0.005530 -0.964303
vn 0.265835 0.026812 -0.963646
vn 0.000000 -1.000000 0.000000
vn 0.000000 -1.000000 0.000000
vn 0.000000 -1.000000 0.000000
vn 0.000000 -1.000000 0.000000
vn 0.000000 -1.000000 0.000000
vn 0.000000 -1.000000 0.000000
vn 0.000000 -1.000000 0.000000
vn 0.000000 -1.000000 0.000000
vn 0.000000 -1.000000 0.000000
vn 0.705483 0.436912 0.558034
vn 0.705481 0.436922 0.558028
vn 0.705480 0.436926 0.558027
vn 0.705487 0.436912 0.558029
vn 0.705481 0.436922 0.558028
vn 0.705477 0.436934 0.558024
vn 0.705478 0.436932 0.558024
vn 0.705477 0.436934 0.558025
vn 0.705481 0.436922 0.558028
vn 0.420285 0.327268 -0.846319
vn 0.365177 0.277134 -0.888731
vn 0.432354 0.338305 -0.835835
vn 0.432354 0.338305 -0.835835
vn 0.726661 -0.327363 -0.603984
vn 0.780914 -0.276854 -0.559934
vn 0.713813 -0.338306 -0.613204
vn 0.713813 -0.338306 -0.613204
vn 0.649177 -0.760313 0.022195
vn 0.679072 -0.732632 0.045957
vn 0.576783 -0.816296 -0.031338
vn 0.576783 -0.816296 -0.031338
vn 0.201089 -0.732632 0.650241
vn 0.171082 -0.760313 0.626622
vn 0.102318 -0.816296 0.568500
vn 0.102318 -0.816296 0.568500
vn -0.365069 -0.276854 0.888863
vn -0.420428 -0.327363 0.846211
vn -0.432359 -0.338306 0.835832
vn -0.432359 -0.338306 0.835832
vn -0.780761 0.277134 0.560009
vn -0.726799 0.327268 0.603869
vn -0.713817 0.338305 0.613200
vn -0.713817 0.338305 0.613200
vn -0.679798 0.731905 -0.046788
vn -0.650221 0.759391 -0.023172
vn -0.576807 0.816280 0.031322
vn -0.576807 0.816280 0.031322
vn -0.172273 0.759391 -0.627413
vn -0.202065 0.731905 -0.650757
vn -0.102339 0.816280 -0.568520
vn -0.102339 0.816280 -0.568520
vn 0.316477 0.220039 -0.922727
vn 0.278456 0.121099 -0.952784
vn 0.826130 -0.218440 -0.519416
vn 0.863834 -0.119013 -0.489517
vn 0.873360 -0.438724 0.211573
vn 0.899889 -0.369023 0.232426
vn 0.433394 -0.369024 0.822187
vn 0.406993 -0.438724 0.801173
vn -0.277451 -0.119013 0.953340
vn -0.315229 -0.218440 0.923534
vn -0.863061 0.121099 0.490367
vn -0.825057 0.220038 0.520446
vn -0.896016 0.380894 -0.228199
vn -0.868829 0.449796 -0.206927
vn -0.401428 0.449796 -0.797834
vn -0.428389 0.380894 -0.819392
s 1
g pasted__pCylinder9 Left_Cattail_Medium1
usemtl lambert4SG
f 129/270/321 130/276/322 170/221/323 163/222/324
s 2
f 130/282/325 131/275/326 169/224/327 170/277/328
s 3
f 131/275/329 132/274/330 168/226/331 169/224/332
s 4
f 132/274/333 133/273/334 167/228/335 168/226/336
s 5
f 133/273/337 134/272/338 166/230/339 167/228/340
s 6
f 134/272/341 135/271/342 165/232/343 166/230/344
s 7
f 135/271/345 136/269/346 164/234/347 165/232/348
s 8
f 136/269/349 129/270/350 163/222/351 164/234/352
s 9
f 130/220/353 129/219/354 145/235/355
f 131/223/356 130/283/353 145/235/355
f 132/225/357 131/223/356 145/235/355
f 133/227/358 132/225/357 145/235/355
f 134/229/359 133/227/358 145/235/355
f 135/231/360 134/229/359 145/235/355
f 136/233/361 135/231/360 145/235/355
f 129/219/354 136/233/361 145/235/355
s 10
f 137/262/362 138/268/363 146/238/364
f 138/280/363 139/267/365 146/238/364
f 139/267/365 140/266/366 146/238/364
f 140/266/366 141/265/367 146/238/364
f 141/265/367 142/264/368 146/238/364
f 142/264/368 143/263/369 146/238/364
f 143/263/369 144/261/370 146/238/364
f 144/261/370 137/262/362 146/238/364
s 8
f 148/245/371 147/246/372 137/236/373 144/244/374
s 7
f 149/247/375 148/245/376 144/244/377 143/243/378
s 6
f 150/248/379 149/247/380 143/243/381 142/242/382
s 5
f 151/249/383 150/248/384 142/242/385 141/241/386
s 4
f 152/250/387 151/249/388 141/241/389 140/240/390
s 3
f 153/251/391 152/250/392 140/240/393 139/239/394
s 2
f 154/279/395 153/251/396 139/239/397 138/281/398
s 1
f 147/246/399 154/252/400 138/237/401 137/236/402
s 8
f 156/253/403 155/254/404 147/246/372 148/245/371
s 7
f 157/255/405 156/253/406 148/245/376 149/247/375
s 6
f 158/256/407 157/255/408 149/247/380 150/248/379
s 5
f 159/257/409 158/256/410 150/248/384 151/249/383
s 4
f 160/258/411 159/257/412 151/249/388 152/250/387
s 3
f 161/259/413 160/258/414 152/250/392 153/251/391
s 2
f 162/278/415 161/259/416 153/251/396 154/279/395
s 1
f 155/254/417 162/260/418 154/252/400 147/246/399
s 8
f 164/234/352 163/222/351 155/254/404 156/253/403
s 7
f 165/232/348 164/234/347 156/253/406 157/255/405
s 6
f 166/230/344 165/232/343 157/255/408 158/256/407
s 5
f 167/228/340 166/230/339 158/256/410 159/257/409
s 4
f 168/226/336 167/228/335 159/257/412 160/258/411
s 3
f 169/224/332 168/226/331 160/258/414 161/259/413
s 2
f 170/277/328 169/224/327 161/259/416 162/278/415
s 1
f 163/222/324 170/221/323 162/260/418 155/254/417
g default
v -31.025390 4.255225 -2.179932
v -31.159318 4.350939 -2.094618
v -31.274342 4.350939 -1.949200
v -31.326526 4.255225 -1.799225
v -31.295935 4.100357 -1.701978
v -31.194257 3.945489 -1.694602
v -31.060327 3.849776 -1.779917
v -30.945303 3.849776 -1.925335
v -30.893121 3.945489 -2.075309
v -30.923711 4.100357 -2.172558
v -29.923277 5.020330 -1.308173
v -30.057206 5.116044 -1.222859
v -30.172230 5.116044 -1.077441
v -30.224413 5.020330 -0.927465
v -30.193823 4.865462 -0.830218
v -30.092145 4.710595 -0.822843
v -29.958216 4.614881 -0.908158
v -29.843191 4.614881 -1.053576
v -29.791010 4.710595 -1.203550
v -29.821599 4.865462 -1.300799
v -31.109824 4.100357 -1.937267
v -30.007712 4.865462 -1.065508
vt 0.263577 0.511604
vt 0.266474 0.511604
vt 0.248033 0.511152
vt 0.250916 0.511152
vt 0.268818 0.509901
vt 0.245701 0.509458
vt 0.269714 0.507145
vt 0.244810 0.506716
vt 0.268818 0.504389
vt 0.245700 0.503974
vt 0.266474 0.502686
vt 0.248033 0.502279
vt 0.263576 0.502686
vt 0.250916 0.502279
vt 0.261232 0.504389
vt 0.253248 0.503974
vt 0.260337 0.507145
vt 0.254139 0.506716
vt 0.261232 0.509901
vt 0.253248 0.509458
vt 0.265025 0.507145
vt 0.249474 0.506716
vt 0.260077 0.569986
vt 0.266228 0.569986
vt 0.253925 0.569986
vt 0.247773 0.569986
vt 0.241621 0.569986
vt 0.235469 0.569986
vt 0.229317 0.569986
vt 0.223165 0.569986
vt 0.217013 0.569986
vt 0.210861 0.569986
vt 0.260077 0.516898
vt 0.266228 0.516898
vt 0.253925 0.516898
vt 0.247773 0.516898
vt 0.241621 0.516898
vt 0.235469 0.516898
vt 0.229317 0.516898
vt 0.223165 0.516898
vt 0.217013 0.516898
vt 0.272380 0.516898
vt 0.210861 0.516898
vt 0.272381 0.569986
vn 0.061235 0.710520 -0.701008
vn 0.061235 0.710520 -0.701008
vn 0.061235 0.710520 -0.701008
vn 0.061235 0.710520 -0.701008
vn -0.375047 0.878256 -0.296658
vn -0.375047 0.878256 -0.296658
vn -0.375047 0.878256 -0.296658
vn -0.375047 0.878256 -0.296658
vn -0.668068 0.710524 0.221001
vn -0.668068 0.710524 0.221001
vn -0.668068 0.710524 0.221001
vn -0.668068 0.710524 0.221001
vn -0.705908 0.271391 0.654249
vn -0.705908 0.271391 0.654249
vn -0.705908 0.271391 0.654249
vn -0.705908 0.271391 0.654249
vn -0.474120 -0.271391 0.837590
vn -0.474120 -0.271391 0.837590
vn -0.474120 -0.271391 0.837590
vn -0.474120 -0.271391 0.837590
vn -0.061230 -0.710523 0.701005
vn -0.061230 -0.710523 0.701005
vn -0.061230 -0.710523 0.701005
vn -0.061230 -0.710523 0.701005
vn 0.375048 -0.878256 0.296658
vn 0.375048 -0.878256 0.296658
vn 0.375048 -0.878256 0.296658
vn 0.375048 -0.878256 0.296658
vn 0.668070 -0.710520 -0.221007
vn 0.668070 -0.710520 -0.221007
vn 0.668070 -0.710520 -0.221007
vn 0.668070 -0.710520 -0.221007
vn 0.705910 -0.271401 -0.654242
vn 0.705910 -0.271401 -0.654242
vn 0.705910 -0.271401 -0.654242
vn 0.705910 -0.271401 -0.654242
vn 0.474114 0.271401 -0.837590
vn 0.474114 0.271400 -0.837590
vn 0.474114 0.271400 -0.837590
vn 0.474114 0.271400 -0.837590
vn -0.688822 -0.478188 -0.544849
vn -0.688821 -0.478189 -0.544849
vn -0.688820 -0.478191 -0.544849
vn -0.688820 -0.478188 -0.544851
vn -0.688820 -0.478189 -0.544851
vn -0.688819 -0.478193 -0.544849
vn -0.688819 -0.478193 -0.544848
vn -0.688820 -0.478193 -0.544848
vn -0.688818 -0.478193 -0.544849
vn -0.688818 -0.478194 -0.544849
vn -0.688819 -0.478193 -0.544849
vn 0.688819 0.478189 0.544851
vn 0.688818 0.478191 0.544851
vn 0.688820 0.478191 0.544850
vn 0.688821 0.478191 0.544848
vn 0.688822 0.478189 0.544848
vn 0.688821 0.478189 0.544850
vn 0.688820 0.478191 0.544849
vn 0.688818 0.478191 0.544851
vn 0.688818 0.478193 0.544849
vn 0.688820 0.478192 0.544848
vn 0.688821 0.478189 0.544850
s off
g Left_Cattail_Medium1 pasted__pCylinder10
usemtl lambert4SG
f 171/317/419 172/325/420 182/327/421 181/307/422
f 172/326/423 173/324/424 183/314/425 182/315/426
f 173/324/427 174/323/428 184/313/429 183/314/430
f 174/323/431 175/322/432 185/312/433 184/313/434
f 175/322/435 176/321/436 186/311/437 185/312/438
f 176/321/439 177/320/440 187/310/441 186/311/442
f 177/320/443 178/319/444 188/309/445 187/310/446
f 178/319/447 179/318/448 189/308/449 188/309/450
f 179/318/451 180/316/452 190/306/453 189/308/454
f 180/316/455 171/317/456 181/307/457 190/306/458
s 1
f 172/285/459 171/284/460 191/304/461
f 173/288/462 172/285/459 191/304/461
f 174/290/463 173/288/462 191/304/461
f 175/292/464 174/290/463 191/304/461
f 176/294/465 175/292/464 191/304/461
f 177/296/466 176/294/465 191/304/461
f 178/298/467 177/296/466 191/304/461
f 179/300/468 178/298/467 191/304/461
f 180/302/469 179/300/468 191/304/461
f 171/284/460 180/302/469 191/304/461
s 2
f 181/287/470 182/286/471 192/305/472
f 182/286/471 183/289/473 192/305/472
f 183/289/473 184/291/474 192/305/472
f 184/291/474 185/293/475 192/305/472
f 185/293/475 186/295/476 192/305/472
f 186/295/476 187/297/477 192/305/472
f 187/297/477 188/299/478 192/305/472
f 188/299/478 189/301/479 192/305/472
f 189/301/479 190/303/480 192/305/472
f 190/303/480 181/287/470 192/305/472
g default
v -29.656509 -1.418845 -3.253021
v -29.590223 -1.418845 -3.291286
v -29.570408 -1.418845 -3.365215
v -29.608673 -1.418845 -3.431499
v -29.682599 -1.418845 -3.451315
v -29.748885 -1.418845 -3.413050
v -29.768701 -1.418845 -3.339121
v -29.730436 -1.418845 -3.272837
v -31.801497 5.265923 -4.899164
v -31.748293 5.292268 -4.947469
v -31.715395 5.265923 -5.011357
v -31.722072 5.202319 -5.053400
v -31.764413 5.138715 -5.048976
v -31.817617 5.112369 -5.000670
v -31.850515 5.138715 -4.936782
v -31.843836 5.202319 -4.894738
v -29.669554 -1.418845 -3.352168
v -31.782954 5.202319 -4.974069
v -30.335294 4.285627 -3.773946
v -30.381675 4.224759 -3.772622
v -30.392394 4.163892 -3.817766
v -30.361169 4.138680 -3.882938
v -30.306292 4.163892 -3.929960
v -30.259912 4.224759 -3.931284
v -30.249192 4.285627 -3.886139
v -30.280417 4.310839 -3.820967
v -29.836900 3.466618 -3.391459
v -29.899770 3.424467 -3.402790
v -29.926978 3.382316 -3.460589
v -29.902583 3.364856 -3.531003
v -29.840876 3.382316 -3.572783
v -29.778007 3.424467 -3.561452
v -29.750798 3.466618 -3.503653
v -29.775193 3.484078 -3.433239
v -29.659286 2.586495 -3.255152
v -29.730436 2.564527 -3.272837
v -29.765924 2.542558 -3.336990
v -29.744960 2.533458 -3.410037
v -29.679823 2.542558 -3.449184
v -29.608673 2.564527 -3.431499
v -29.573184 2.586495 -3.367346
v -29.594149 2.595595 -3.294299
vt 0.980282 0.603048
vt 0.980282 0.591374
vt 0.579114 0.317219
vt 0.574828 0.316707
vt 0.972028 0.583120
vt 0.549597 0.316605
vt 0.960355 0.583120
vt 0.553759 0.315421
vt 0.952101 0.591374
vt 0.557926 0.314226
vt 0.952101 0.603047
vt 0.562220 0.313745
vt 0.960355 0.611301
vt 0.566511 0.314261
vt 0.972028 0.611301
vt 0.570672 0.315489
vt 0.966191 0.597211
vt 0.574331 0.607784
vt 0.578634 0.607900
vt 0.965927 0.634770
vt 0.548726 0.607680
vt 0.553009 0.607491
vt 0.557272 0.607308
vt 0.561530 0.607246
vt 0.565787 0.607342
vt 0.570049 0.607560
vt 0.570412 0.453489
vt 0.574606 0.454300
vt 0.566211 0.452660
vt 0.561894 0.452332
vt 0.557576 0.452624
vt 0.553370 0.453420
vt 0.549173 0.454197
vt 0.578897 0.454633
vt 0.570541 0.380414
vt 0.574705 0.381467
vt 0.566373 0.379315
vt 0.562067 0.378864
vt 0.557757 0.379280
vt 0.553585 0.380345
vt 0.549417 0.381364
vt 0.578993 0.381901
vt 0.980890 0.634770
vt 0.976507 0.645350
vt 0.976507 0.624190
vt 0.965927 0.619808
vt 0.955347 0.624191
vt 0.950965 0.634770
vt 0.955347 0.645350
vt 0.965927 0.649732
vt 0.571505 0.021135
vt 0.575814 0.021153
vt 0.567205 0.021113
vt 0.562908 0.021093
vt 0.558610 0.021078
vt 0.554310 0.021065
vt 0.550001 0.021048
vt 0.580125 0.021175
vt 0.545309 0.317081
vt 0.545126 0.381763
vt 0.544880 0.454495
vt 0.965927 0.649732
vt 0.544423 0.607761
vt 0.545690 0.021036
vt 0.980282 0.591374
vn 0.507478 0.000977 0.861664
vn 0.507478 0.000977 0.861664
vn 0.506422 0.034648 0.861590
vn 0.505665 0.051730 0.861178
vn 0.963612 0.000977 0.267305
vn 0.963612 0.000977 0.267305
vn 0.962673 0.051730 0.265679
vn 0.963266 0.034648 0.266303
vn 0.870471 0.000171 -0.492219
vn 0.870471 0.000171 -0.492219
vn 0.869401 0.026812 -0.493380
vn 0.870306 0.005530 -0.492481
vn 0.250238 0.000172 -0.968184
vn 0.250238 0.000172 -0.968184
vn 0.251349 -0.025192 -0.967569
vn 0.250482 -0.005090 -0.968108
vn -0.507579 0.000990 -0.861604
vn -0.507580 0.000990 -0.861604
vn -0.506403 -0.044831 -0.861131
vn -0.506891 -0.030321 -0.861477
vn -0.963580 0.000990 -0.267418
vn -0.963580 0.000990 -0.267418
vn -0.963279 -0.030321 -0.266786
vn -0.962818 -0.044831 -0.266404
vn -0.870496 0.000172 0.492175
vn -0.870496 0.000172 0.492175
vn -0.870359 -0.005090 0.492391
vn -0.869614 -0.025192 0.493089
vn -0.250287 0.000171 0.968172
vn -0.250287 0.000171 0.968172
vn -0.250582 0.005530 0.968080
vn -0.251685 0.026812 0.967438
vn 0.000000 -1.000000 0.000000
vn 0.000000 -1.000000 0.000000
vn 0.000000 -1.000000 0.000000
vn 0.000000 -1.000000 0.000000
vn 0.000000 -1.000000 0.000000
vn 0.000000 -1.000000 0.000000
vn 0.000000 -1.000000 0.000000
vn 0.000000 -1.000000 0.000000
vn 0.000000 -1.000000 0.000000
vn -0.713585 0.436912 -0.547635
vn -0.713583 0.436922 -0.547630
vn -0.713582 0.436926 -0.547628
vn -0.713589 0.436912 -0.547630
vn -0.713583 0.436922 -0.547630
vn -0.713579 0.436934 -0.547626
vn -0.713580 0.436932 -0.547626
vn -0.713578 0.436934 -0.547626
vn -0.713583 0.436922 -0.547630
vn -0.407837 0.327268 0.852387
vn -0.352114 0.277134 0.893987
vn -0.420059 0.338305 0.842081
vn -0.420059 0.338305 0.842081
vn -0.717732 -0.327363 0.614568
vn -0.772624 -0.276854 0.571318
vn -0.704751 -0.338306 0.623599
vn -0.704751 -0.338306 0.623599
vn -0.649433 -0.760313 -0.012680
vn -0.679672 -0.732632 -0.036000
vn -0.576262 -0.816296 0.039787
vn -0.576262 -0.816296 0.039787
vn -0.210596 -0.732632 -0.647225
vn -0.180247 -0.760313 -0.624047
vn -0.110638 -0.816296 -0.566939
vn -0.110638 -0.816296 -0.566939
vn 0.352004 -0.276854 -0.894117
vn 0.407983 -0.327363 -0.852281
vn 0.420064 -0.338306 -0.842078
vn 0.420064 -0.338306 -0.842078
vn 0.772470 0.277134 -0.571390
vn 0.717872 0.327268 -0.614455
vn 0.704755 0.338305 -0.623595
vn 0.704755 0.338305 -0.623595
vn 0.680411 0.731905 0.036821
vn 0.650491 0.759391 0.013641
vn 0.576286 0.816280 -0.039771
vn 0.576286 0.816280 -0.039771
vn 0.181449 0.759391 0.624821
vn 0.211580 0.731905 0.647726
vn 0.110659 0.816280 0.566959
vn 0.110659 0.816280 0.566959
vn -0.302921 0.220039 0.927266
vn -0.264464 0.121099 0.956762
vn -0.818429 -0.218440 0.531467
vn -0.856568 -0.119013 0.502123
vn -0.876367 -0.438724 -0.198752
vn -0.903198 -0.369024 -0.219213
vn -0.445396 -0.369024 -0.815748
vn -0.418690 -0.438724 -0.795123
vn 0.263450 -0.119013 -0.957303
vn 0.301661 -0.218440 -0.928054
vn 0.855783 0.121099 -0.502962
vn 0.817342 0.220038 -0.532480
vn 0.899264 0.380894 0.215044
vn 0.871768 0.449796 0.194173
vn 0.413077 0.449796 0.791865
vn 0.440351 0.380894 0.813026
s 1
g pasted__pCylinder9 Left_Cattail_Medium
usemtl lambert4SG
f 193/379/481 194/385/482 234/330/483 227/331/484
s 2
f 194/391/485 195/384/486 233/333/487 234/386/488
s 3
f 195/384/489 196/383/490 232/335/491 233/333/492
s 4
f 196/383/493 197/382/494 231/337/495 232/335/496
s 5
f 197/382/497 198/381/498 230/339/499 231/337/500
s 6
f 198/381/501 199/380/502 229/341/503 230/339/504
s 7
f 199/380/505 200/378/506 228/343/507 229/341/508
s 8
f 200/378/509 193/379/510 227/331/511 228/343/512
s 9
f 194/329/513 193/328/514 209/344/515
f 195/332/516 194/392/513 209/344/515
f 196/334/517 195/332/516 209/344/515
f 197/336/518 196/334/517 209/344/515
f 198/338/519 197/336/518 209/344/515
f 199/340/520 198/338/519 209/344/515
f 200/342/521 199/340/520 209/344/515
f 193/328/514 200/342/521 209/344/515
s 10
f 201/371/522 202/377/523 210/347/524
f 202/389/523 203/376/525 210/347/524
f 203/376/525 204/375/526 210/347/524
f 204/375/526 205/374/527 210/347/524
f 205/374/527 206/373/528 210/347/524
f 206/373/528 207/372/529 210/347/524
f 207/372/529 208/370/530 210/347/524
f 208/370/530 201/371/522 210/347/524
s 8
f 212/354/531 211/355/532 201/345/533 208/353/534
s 7
f 213/356/535 212/354/536 208/353/537 207/352/538
s 6
f 214/357/539 213/356/540 207/352/541 206/351/542
s 5
f 215/358/543 214/357/544 206/351/545 205/350/546
s 4
f 216/359/547 215/358/548 205/350/549 204/349/550
s 3
f 217/360/551 216/359/552 204/349/553 203/348/554
s 2
f 218/388/555 217/360/556 203/348/557 202/390/558
s 1
f 211/355/559 218/361/560 202/346/561 201/345/562
s 8
f 220/362/563 219/363/564 211/355/532 212/354/531
s 7
f 221/364/565 220/362/566 212/354/536 213/356/535
s 6
f 222/365/567 221/364/568 213/356/540 214/357/539
s 5
f 223/366/569 222/365/570 214/357/544 215/358/543
s 4
f 224/367/571 223/366/572 215/358/548 216/359/547
s 3
f 225/368/573 224/367/574 216/359/552 217/360/551
s 2
f 226/387/575 225/368/576 217/360/556 218/388/555
s 1
f 219/363/577 226/369/578 218/361/560 211/355/559
s 8
f 228/343/512 227/331/511 219/363/564 220/362/563
s 7
f 229/341/508 228/343/507 220/362/566 221/364/565
s 6
f 230/339/504 229/341/503 221/364/568 222/365/567
s 5
f 231/337/500 230/339/499 222/365/570 223/366/569
s 4
f 232/335/496 231/337/495 223/366/572 224/367/571
s 3
f 233/333/492 232/335/491 224/367/574 225/368/573
s 2
f 234/386/488 233/333/487 225/368/576 226/387/575
s 1
f 227/331/484 234/330/483 226/369/578 219/363/577
g default
v -30.588501 4.509620 -3.751464
v -30.455838 4.605334 -3.838731
v -30.342957 4.605334 -3.985819
v -30.292977 4.509620 -4.136543
v -30.324989 4.354752 -4.233332
v -30.426765 4.199885 -4.239217
v -30.559430 4.104171 -4.151948
v -30.672311 4.104171 -4.004860
v -30.722289 4.199885 -3.854138
v -30.690278 4.354752 -3.757347
v -31.703271 5.274726 -4.606979
v -31.570607 5.370439 -4.694246
v -31.457726 5.370439 -4.841334
v -31.407746 5.274726 -4.992059
v -31.439758 5.119857 -5.088847
v -31.541533 4.964990 -5.094732
v -31.674198 4.869276 -5.007463
v -31.787079 4.869277 -4.860375
v -31.837057 4.964990 -4.709652
v -31.805047 5.119857 -4.612862
v -30.507633 4.354752 -3.995340
v -31.622402 5.119857 -4.850855
vt 0.159005 0.511892
vt 0.161903 0.511892
vt 0.143462 0.511440
vt 0.146345 0.511440
vt 0.164247 0.510189
vt 0.141129 0.509746
vt 0.165142 0.507433
vt 0.140238 0.507004
vt 0.164247 0.504677
vt 0.141129 0.504262
vt 0.161903 0.502974
vt 0.143462 0.502567
vt 0.159005 0.502974
vt 0.146345 0.502567
vt 0.156661 0.504677
vt 0.148677 0.504262
vt 0.155765 0.507433
vt 0.149568 0.507004
vt 0.156661 0.510189
vt 0.148677 0.509746
vt 0.160454 0.507433
vt 0.144903 0.507004
vt 0.155505 0.570274
vt 0.161657 0.570274
vt 0.149353 0.570275
vt 0.143202 0.570275
vt 0.137050 0.570274
vt 0.130898 0.570274
vt 0.124746 0.570274
vt 0.118594 0.570275
vt 0.112442 0.570274
vt 0.106290 0.570275
vt 0.155505 0.517186
vt 0.161657 0.517186
vt 0.149353 0.517186
vt 0.143202 0.517186
vt 0.137049 0.517186
vt 0.130898 0.517186
vt 0.124746 0.517186
vt 0.118594 0.517186
vt 0.112442 0.517186
vt 0.167809 0.517186
vt 0.106290 0.517186
vt 0.167809 0.570274
vn -0.050955 0.710520 0.701830
vn -0.050955 0.710520 0.701830
vn -0.050955 0.710520 0.701830
vn -0.050955 0.710520 0.701830
vn 0.379354 0.878256 0.291130
vn 0.379354 0.878256 0.291130
vn 0.379354 0.878256 0.291130
vn 0.379354 0.878256 0.291130
vn 0.664757 0.710524 -0.230768
vn 0.664757 0.710524 -0.230768
vn 0.664757 0.710524 -0.230768
vn 0.664757 0.710524 -0.230768
vn 0.696244 0.271391 -0.664523
vn 0.696244 0.271391 -0.664523
vn 0.696244 0.271391 -0.664523
vn 0.696244 0.271391 -0.664523
vn 0.461795 -0.271391 -0.844448
vn 0.461795 -0.271391 -0.844448
vn 0.461795 -0.271391 -0.844448
vn 0.461795 -0.271391 -0.844448
vn 0.050950 -0.710523 -0.701827
vn 0.050950 -0.710523 -0.701827
vn 0.050950 -0.710523 -0.701827
vn 0.050950 -0.710523 -0.701827
vn -0.379355 -0.878256 -0.291130
vn -0.379355 -0.878256 -0.291130
vn -0.379355 -0.878256 -0.291130
vn -0.379355 -0.878256 -0.291130
vn -0.664759 -0.710520 0.230774
vn -0.664759 -0.710520 0.230774
vn -0.664759 -0.710520 0.230774
vn -0.664759 -0.710520 0.230774
vn -0.696247 -0.271401 0.664517
vn -0.696247 -0.271401 0.664517
vn -0.696247 -0.271401 0.664517
vn -0.696247 -0.271401 0.664517
vn -0.461789 0.271401 0.844448
vn -0.461789 0.271400 0.844448
vn -0.461789 0.271400 0.844448
vn -0.461789 0.271400 0.844448
vn 0.696732 -0.478188 0.534697
vn 0.696732 -0.478189 0.534696
vn 0.696730 -0.478191 0.534697
vn 0.696731 -0.478188 0.534699
vn 0.696730 -0.478189 0.534698
vn 0.696730 -0.478193 0.534696
vn 0.696730 -0.478193 0.534695
vn 0.696730 -0.478193 0.534695
vn 0.696729 -0.478193 0.534697
vn 0.696729 -0.478194 0.534696
vn 0.696730 -0.478193 0.534696
vn -0.696730 0.478189 -0.534699
vn -0.696729 0.478191 -0.534698
vn -0.696730 0.478191 -0.534697
vn -0.696731 0.478191 -0.534695
vn -0.696732 0.478189 -0.534696
vn -0.696731 0.478189 -0.534697
vn -0.696730 0.478191 -0.534697
vn -0.696729 0.478191 -0.534698
vn -0.696729 0.478193 -0.534697
vn -0.696730 0.478192 -0.534695
vn -0.696731 0.478189 -0.534697
s off
g Left_Cattail_Medium pasted__pCylinder10
usemtl lambert4SG
f 235/426/579 236/434/580 246/436/581 245/416/582
f 236/435/583 237/433/584 247/423/585 246/424/586
f 237/433/587 238/432/588 248/422/589 247/423/590
f 238/432/591 239/431/592 249/421/593 248/422/594
f 239/431/595 240/430/596 250/420/597 249/421/598
f 240/430/599 241/429/600 251/419/601 250/420/602
f 241/429/603 242/428/604 252/418/605 251/419/606
f 242/428/607 243/427/608 253/417/609 252/418/610
f 243/427/611 244/425/612 254/415/613 253/417/614
f 244/425/615 235/426/616 245/416/617 254/415/618
s 1
f 236/394/619 235/393/620 255/413/621
f 237/397/622 236/394/619 255/413/621
f 238/399/623 237/397/622 255/413/621
f 239/401/624 238/399/623 255/413/621
f 240/403/625 239/401/624 255/413/621
f 241/405/626 240/403/625 255/413/621
f 242/407/627 241/405/626 255/413/621
f 243/409/628 242/407/627 255/413/621
f 244/411/629 243/409/628 255/413/621
f 235/393/620 244/411/629 255/413/621
s 2
f 245/396/630 246/395/631 256/414/632
f 246/395/631 247/398/633 256/414/632
f 247/398/633 248/400/634 256/414/632
f 248/400/634 249/402/635 256/414/632
f 249/402/635 250/404/636 256/414/632
f 250/404/636 251/406/637 256/414/632
f 251/406/637 252/408/638 256/414/632
f 252/408/638 253/410/639 256/414/632
f 253/410/639 254/412/640 256/414/632
f 254/412/640 245/396/630 256/414/632
g default
v -29.231488 -1.309199 -4.201106
v -29.306578 -1.309199 -4.186287
v -29.349197 -1.309199 -4.122713
v -29.334378 -1.309199 -4.047625
v -29.270806 -1.309199 -4.005006
v -29.195716 -1.309199 -4.019825
v -29.153097 -1.309199 -4.083399
v -29.167916 -1.309199 -4.158487
v -28.355182 4.528511 -2.885315
v -28.426967 4.546225 -2.865533
v -28.472891 4.528511 -2.806922
v -28.466052 4.485748 -2.743816
v -28.410460 4.442985 -2.713180
v -28.338676 4.425272 -2.732962
v -28.292751 4.442985 -2.791573
v -28.299590 4.485748 -2.854679
v -29.251147 -1.309199 -4.103056
v -28.382821 4.485748 -2.799247
v -29.144313 2.101753 -4.123046
v -29.132129 2.076259 -4.051916
v -29.175840 2.065700 -3.989981
v -29.249838 2.076259 -3.973523
v -29.310775 2.101753 -4.012184
v -29.322957 2.127246 -4.083313
v -29.279246 2.137806 -4.145248
v -29.205248 2.127246 -4.161707
v -29.030439 2.924287 -3.899227
v -28.974847 2.881524 -3.868591
v -28.968008 2.838761 -3.805484
v -29.013932 2.821047 -3.746873
v -29.085717 2.838761 -3.727091
v -29.141309 2.881524 -3.757729
v -29.148148 2.924287 -3.820834
v -29.102224 2.942000 -3.879445
v -29.260787 1.202062 -4.245099
v -29.197541 1.192942 -4.202970
v -29.183049 1.183823 -4.128374
v -29.225805 1.180045 -4.065004
v -29.300758 1.183823 -4.049981
v -29.364003 1.192942 -4.092108
v -29.378496 1.202062 -4.166706
v -29.335741 1.205839 -4.230075
vt 0.979440 0.867688
vt 0.979440 0.855953
vt 0.421825 0.180438
vt 0.417196 0.180223
vt 0.971143 0.847656
vt 0.389520 0.180044
vt 0.959409 0.847656
vt 0.394127 0.179630
vt 0.951112 0.855953
vt 0.398734 0.179210
vt 0.951112 0.867687
vt 0.403364 0.179053
vt 0.959409 0.875985
vt 0.407992 0.179270
vt 0.971143 0.875985
vt 0.412594 0.179749
vt 0.965276 0.861820
vt 0.415777 0.418165
vt 0.420406 0.418207
vt 0.965299 0.899440
vt 0.388150 0.417987
vt 0.392765 0.418003
vt 0.397367 0.418024
vt 0.401964 0.418052
vt 0.406561 0.418083
vt 0.411162 0.418123
vt 0.407672 0.236871
vt 0.412241 0.237523
vt 0.411944 0.290272
vt 0.407359 0.289694
vt 0.403027 0.236583
vt 0.402717 0.289444
vt 0.398380 0.236811
vt 0.398073 0.289635
vt 0.393802 0.237404
vt 0.393482 0.290153
vt 0.389233 0.237977
vt 0.388898 0.290665
vt 0.421426 0.238434
vt 0.421144 0.291099
vt 0.416803 0.238155
vt 0.416521 0.290843
vt 0.965299 0.884398
vt 0.975935 0.888804
vt 0.954663 0.888803
vt 0.950257 0.899440
vt 0.954663 0.910076
vt 0.965299 0.914481
vt 0.975934 0.910076
vt 0.980340 0.899440
vt 0.413534 0.020903
vt 0.418161 0.021027
vt 0.408913 0.020778
vt 0.404292 0.020708
vt 0.399670 0.020719
vt 0.395048 0.020784
vt 0.390420 0.020848
vt 0.422792 0.021095
vt 0.384888 0.180199
vt 0.384608 0.238197
vt 0.384272 0.290860
vt 0.980340 0.899440
vt 0.383521 0.417969
vt 0.385789 0.020856
vt 0.979440 0.855953
vn -0.195503 -0.019398 -0.980511
vn -0.195503 -0.019398 -0.980511
vn -0.196010 0.010001 -0.980551
vn -0.196081 0.015132 -0.980471
vn -0.829372 -0.019398 -0.558360
vn -0.829372 -0.019398 -0.558360
vn -0.829112 0.015132 -0.558877
vn -0.829214 0.010001 -0.558843
vn -0.981422 -0.008152 0.191690
vn -0.981422 -0.008152 0.191690
vn -0.981558 0.007424 0.191018
vn -0.981515 -0.000934 0.191384
vn -0.555183 0.008273 0.831687
vn -0.555183 0.008273 0.831687
vn -0.554568 -0.006819 0.832111
vn -0.554910 0.001190 0.831910
vn 0.195517 0.020098 0.980494
vn 0.195517 0.020098 0.980494
vn 0.196240 -0.012007 0.980482
vn 0.196148 -0.007394 0.980546
vn 0.829351 0.020098 0.558366
vn 0.829351 0.020098 0.558366
vn 0.829156 -0.007394 0.558969
vn 0.829062 -0.012007 0.559028
vn 0.981423 0.008273 -0.191679
vn 0.981423 0.008273 -0.191679
vn 0.981523 0.001190 -0.191342
vn 0.981576 -0.006819 -0.190948
vn 0.555193 -0.008152 -0.831682
vn 0.555193 -0.008152 -0.831682
vn 0.554946 -0.000934 -0.831886
vn 0.554625 0.007424 -0.832067
vn 0.000000 -1.000000 0.000000
vn 0.000000 -1.000000 0.000000
vn 0.000000 -1.000000 0.000000
vn 0.000000 -1.000000 0.000000
vn 0.000000 -1.000000 0.000000
vn 0.000000 -1.000000 0.000000
vn 0.000000 -1.000000 0.000000
vn 0.000000 -1.000000 0.000000
vn 0.000000 -1.000000 0.000000
vn 0.335229 0.796404 0.503351
vn 0.335229 0.796402 0.503354
vn 0.335228 0.796403 0.503352
vn 0.335225 0.796406 0.503351
vn 0.335227 0.796405 0.503350
vn 0.335228 0.796403 0.503354
vn 0.335229 0.796402 0.503354
vn 0.335230 0.796403 0.503352
vn 0.335228 0.796404 0.503351
vn 0.970742 -0.123847 -0.205723
vn 0.979964 -0.053463 -0.191865
vn 0.959553 -0.169624 -0.224690
vn 0.940305 -0.225247 -0.255128
vn 0.811323 -0.238102 0.533912
vn 0.818457 -0.183030 0.544635
vn 0.757130 -0.477888 0.445396
vn 0.744368 -0.514318 0.425903
vn 0.187047 -0.183030 0.965149
vn 0.179902 -0.238102 0.954433
vn 0.106050 -0.514318 0.851017
vn 0.119118 -0.477888 0.870307
vn -0.554792 -0.053463 0.830269
vn -0.564024 -0.123847 0.816418
vn -0.597878 -0.225247 0.769289
vn -0.577213 -0.169624 0.798782
vn -0.979853 0.054524 0.192136
vn -0.970470 0.125134 0.206227
vn -0.940330 0.225189 0.255086
vn -0.959476 0.169928 0.224787
vn -0.817888 0.189864 -0.543150
vn -0.810449 0.245297 -0.531980
vn -0.744630 0.513558 -0.426361
vn -0.757282 0.477302 -0.445766
vn -0.178456 0.245297 -0.952882
vn -0.185895 0.189864 -0.964051
vn -0.119400 0.477302 -0.870590
vn -0.106371 0.513558 -0.851436
vn 0.564384 0.125134 -0.815973
vn 0.554999 0.054524 -0.830062
vn 0.577273 0.169928 -0.798674
vn 0.597849 0.225189 -0.769329
vn 0.600028 0.231423 -0.765774
vn 0.600029 0.231423 -0.765774
vn 0.937890 -0.231421 -0.258470
vn 0.937890 -0.231421 -0.258470
vn 0.726358 -0.558729 0.400281
vn 0.726358 -0.558729 0.400281
vn 0.089350 -0.558729 0.824523
vn 0.089350 -0.558729 0.824523
vn -0.600031 -0.231421 0.765772
vn -0.600031 -0.231421 0.765772
vn -0.937890 0.231423 0.258467
vn -0.937890 0.231423 0.258467
vn -0.726359 0.558730 -0.400279
vn -0.726359 0.558730 -0.400279
vn -0.089349 0.558730 -0.824523
vn -0.089349 0.558730 -0.824523
s 1
g pasted__Cattail_Stalk_Short Left_Cattail_Short1
usemtl lambert4SG
f 257/488/641 258/494/642 298/439/643 291/440/644
s 2
f 258/500/645 259/493/646 297/442/647 298/495/648
s 3
f 259/493/649 260/492/650 296/444/651 297/442/652
s 4
f 260/492/653 261/491/654 295/446/655 296/444/656
s 5
f 261/491/657 262/490/658 294/448/659 295/446/660
s 6
f 262/490/661 263/489/662 293/450/663 294/448/664
s 7
f 263/489/665 264/487/666 292/452/667 293/450/668
s 8
f 264/487/669 257/488/670 291/440/671 292/452/672
s 9
f 258/438/673 257/437/674 273/453/675
f 259/441/676 258/501/673 273/453/675
f 260/443/677 259/441/676 273/453/675
f 261/445/678 260/443/677 273/453/675
f 262/447/679 261/445/678 273/453/675
f 263/449/680 262/447/679 273/453/675
f 264/451/681 263/449/680 273/453/675
f 257/437/674 264/451/681 273/453/675
s 10
f 265/480/682 266/486/683 274/456/684
f 266/498/683 267/485/685 274/456/684
f 267/485/685 268/484/686 274/456/684
f 268/484/686 269/483/687 274/456/684
f 269/483/687 270/482/688 274/456/684
f 270/482/688 271/481/689 274/456/684
f 271/481/689 272/479/690 274/456/684
f 272/479/690 265/480/682 274/456/684
s 7
f 276/463/691 275/464/692 284/465/693 285/466/694
s 6
f 277/467/695 276/463/696 285/466/697 286/468/698
s 5
f 278/469/699 277/467/700 286/468/701 287/470/702
s 4
f 279/471/703 278/469/704 287/470/705 288/472/706
s 3
f 280/473/707 279/471/708 288/472/709 289/474/710
s 2
f 281/496/711 280/473/712 289/474/713 290/497/714
s 1
f 282/477/715 281/475/716 290/476/717 283/478/718
s 8
f 275/464/719 282/477/720 283/478/721 284/465/722
f 284/465/722 283/478/721 265/454/723 272/462/724
s 7
f 285/466/694 284/465/693 272/462/725 271/461/726
s 6
f 286/468/698 285/466/697 271/461/727 270/460/728
s 5
f 287/470/702 286/468/701 270/460/729 269/459/730
s 4
f 288/472/706 287/470/705 269/459/731 268/458/732
s 3
f 289/474/710 288/472/709 268/458/733 267/457/734
s 2
f 290/497/714 289/474/713 267/457/735 266/499/736
s 1
f 283/478/718 290/476/717 266/455/737 265/454/738
s 8
f 292/452/672 291/440/671 282/477/720 275/464/719
s 7
f 293/450/668 292/452/667 275/464/692 276/463/691
s 6
f 294/448/664 293/450/663 276/463/696 277/467/695
s 5
f 295/446/660 294/448/659 277/467/700 278/469/699
s 4
f 296/444/656 295/446/655 278/469/704 279/471/703
s 3
f 297/442/652 296/444/651 279/471/708 280/473/707
s 2
f 298/495/648 297/442/647 280/473/712 281/496/711
s 1
f 291/440/644 298/439/643 281/475/716 282/477/715
g default
v -28.865525 3.156112 -3.961885
v -29.038508 3.221955 -3.951020
v -29.192826 3.221955 -3.848245
v -29.269535 3.156112 -3.692818
v -29.239333 3.049575 -3.544109
v -29.113758 2.943040 -3.458916
v -28.940774 2.877197 -3.469782
v -28.786455 2.877197 -3.572557
v -28.709748 2.943040 -3.727983
v -28.739949 3.049575 -3.876695
v -28.329691 4.431084 -3.157319
v -28.502673 4.496926 -3.146454
v -28.656992 4.496926 -3.043679
v -28.733701 4.431084 -2.888252
v -28.703497 4.324548 -2.739541
v -28.577923 4.218012 -2.654349
v -28.404939 4.152168 -2.665216
v -28.250621 4.152168 -2.767991
v -28.173913 4.218012 -2.923416
v -28.204114 4.324548 -3.072127
v -28.989642 3.049575 -3.710401
v -28.453807 4.324548 -2.905833
vt 0.265894 0.593663
vt 0.268787 0.593663
vt 0.251417 0.593657
vt 0.254326 0.593657
vt 0.271127 0.591962
vt 0.249063 0.591947
vt 0.272021 0.589211
vt 0.248165 0.589181
vt 0.271127 0.586459
vt 0.249063 0.586414
vt 0.268787 0.584759
vt 0.251417 0.584704
vt 0.265894 0.584759
vt 0.254326 0.584704
vt 0.263554 0.586460
vt 0.256679 0.586414
vt 0.262660 0.589211
vt 0.257578 0.589180
vt 0.263554 0.591962
vt 0.256679 0.591947
vt 0.267341 0.589211
vt 0.252872 0.589181
vt 0.260313 0.651173
vt 0.266474 0.651173
vt 0.254152 0.651173
vt 0.247991 0.651173
vt 0.241829 0.651173
vt 0.235668 0.651173
vt 0.229507 0.651173
vt 0.223346 0.651173
vt 0.217185 0.651173
vt 0.211024 0.651173
vt 0.260313 0.598005
vt 0.266474 0.598005
vt 0.254152 0.598005
vt 0.247991 0.598005
vt 0.241829 0.598005
vt 0.235668 0.598005
vt 0.229507 0.598005
vt 0.223346 0.598005
vt 0.217185 0.598005
vt 0.272635 0.598005
vt 0.211024 0.598005
vt 0.272635 0.651173
vn 0.131876 0.488780 -0.862382
vn 0.131876 0.488780 -0.862382
vn 0.131876 0.488779 -0.862382
vn 0.131876 0.488779 -0.862382
vn -0.441707 0.604167 -0.663232
vn -0.441707 0.604167 -0.663232
vn -0.441707 0.604167 -0.663232
vn -0.441707 0.604167 -0.663232
vn -0.846567 0.488782 -0.210752
vn -0.846567 0.488782 -0.210752
vn -0.846567 0.488782 -0.210752
vn -0.846567 0.488782 -0.210752
vn -0.928067 0.186694 0.322236
vn -0.928067 0.186694 0.322236
vn -0.928067 0.186694 0.322236
vn -0.928067 0.186694 0.322236
vn -0.655082 -0.186695 0.732129
vn -0.655082 -0.186695 0.732129
vn -0.655082 -0.186695 0.732129
vn -0.655082 -0.186695 0.732129
vn -0.131871 -0.488781 0.862382
vn -0.131871 -0.488781 0.862382
vn -0.131871 -0.488781 0.862382
vn -0.131871 -0.488781 0.862382
vn 0.441707 -0.604167 0.663232
vn 0.441707 -0.604167 0.663232
vn 0.441707 -0.604167 0.663232
vn 0.441707 -0.604167 0.663232
vn 0.846571 -0.488779 0.210744
vn 0.846571 -0.488779 0.210744
vn 0.846571 -0.488779 0.210744
vn 0.846571 -0.488779 0.210744
vn 0.928069 -0.186702 -0.322226
vn 0.928069 -0.186702 -0.322226
vn 0.928069 -0.186702 -0.322226
vn 0.928069 -0.186702 -0.322226
vn 0.655075 0.186701 -0.732134
vn 0.655075 0.186701 -0.732134
vn 0.655075 0.186701 -0.732134
vn 0.655075 0.186701 -0.732134
vn -0.334897 -0.796856 -0.502856
vn -0.334897 -0.796856 -0.502856
vn -0.334897 -0.796858 -0.502854
vn -0.334898 -0.796856 -0.502855
vn -0.334899 -0.796856 -0.502856
vn -0.334897 -0.796858 -0.502854
vn -0.334896 -0.796860 -0.502851
vn -0.334896 -0.796859 -0.502852
vn -0.334895 -0.796859 -0.502853
vn -0.334894 -0.796860 -0.502852
vn -0.334897 -0.796858 -0.502854
vn 0.334894 0.796861 0.502851
vn 0.334894 0.796861 0.502851
vn 0.334897 0.796858 0.502854
vn 0.334895 0.796861 0.502850
vn 0.334895 0.796861 0.502850
vn 0.334897 0.796858 0.502854
vn 0.334899 0.796855 0.502857
vn 0.334899 0.796854 0.502857
vn 0.334899 0.796854 0.502858
vn 0.334898 0.796855 0.502858
vn 0.334897 0.796858 0.502854
s off
g Left_Cattail_Short1 pasted__Cattail_Short
usemtl lambert4SG
f 299/535/739 300/543/740 310/545/741 309/525/742
f 300/544/743 301/542/744 311/532/745 310/533/746
f 301/542/747 302/541/748 312/531/749 311/532/750
f 302/541/751 303/540/752 313/530/753 312/531/754
f 303/540/755 304/539/756 314/529/757 313/530/758
f 304/539/759 305/538/760 315/528/761 314/529/762
f 305/538/763 306/537/764 316/527/765 315/528/766
f 306/537/767 307/536/768 317/526/769 316/527/770
f 307/536/771 308/534/772 318/524/773 317/526/774
f 308/534/775 299/535/776 309/525/777 318/524/778
s 1
f 300/503/779 299/502/780 319/522/781
f 301/506/782 300/503/779 319/522/781
f 302/508/783 301/506/782 319/522/781
f 303/510/784 302/508/783 319/522/781
f 304/512/785 303/510/784 319/522/781
f 305/514/786 304/512/785 319/522/781
f 306/516/787 305/514/786 319/522/781
f 307/518/788 306/516/787 319/522/781
f 308/520/789 307/518/788 319/522/781
f 299/502/780 308/520/789 319/522/781
s 2
f 309/505/790 310/504/791 320/523/792
f 310/504/791 311/507/793 320/523/792
f 311/507/793 312/509/794 320/523/792
f 312/509/794 313/511/795 320/523/792
f 313/511/795 314/513/796 320/523/792
f 314/513/796 315/515/797 320/523/792
f 315/515/797 316/517/798 320/523/792
f 316/517/798 317/519/799 320/523/792
f 317/519/799 318/521/800 320/523/792
f 318/521/800 309/505/790 320/523/792
g default
v -32.904672 -1.506291 -3.819339
v -32.906518 -1.506291 -3.895855
v -32.961927 -1.506291 -3.948655
v -33.038441 -1.506291 -3.946808
v -33.091241 -1.506291 -3.891401
v -33.089395 -1.506291 -3.814885
v -33.033985 -1.506291 -3.762085
v -32.957471 -1.506291 -3.763932
v -34.350213 4.331419 -3.179317
v -34.357512 4.349132 -3.253419
v -34.407469 4.331419 -3.308634
v -34.470818 4.288656 -3.312615
v -34.510454 4.245893 -3.263036
v -34.503155 4.228180 -3.188935
v -34.453199 4.245893 -3.133720
v -34.389849 4.288656 -3.129739
v -32.997956 -1.506291 -3.855370
v -34.430334 4.288656 -3.221177
v -32.996407 1.904661 -3.746693
v -33.068573 1.879167 -3.746771
v -33.122181 1.868608 -3.800369
v -33.125829 1.879167 -3.876087
v -33.077377 1.904661 -3.929569
v -33.005212 1.930154 -3.929491
v -32.951604 1.940713 -3.875893
v -32.947956 1.930154 -3.800175
v -33.236319 2.727195 -3.672500
v -33.275954 2.684432 -3.622922
v -33.339305 2.641669 -3.626903
v -33.389262 2.623955 -3.682117
v -33.396561 2.641669 -3.756219
v -33.356924 2.684432 -3.805798
v -33.293574 2.727195 -3.801817
v -33.243617 2.744908 -3.746602
v -32.856341 1.004970 -3.840738
v -32.908602 0.995850 -3.785569
v -32.984576 0.986731 -3.783961
v -33.039760 0.982953 -3.836861
v -33.041831 0.986731 -3.913277
v -32.989571 0.995850 -3.968446
v -32.913596 1.004970 -3.970054
v -32.858411 1.008747 -3.917154
vt 0.978766 0.943257
vt 0.978766 0.931522
vt 0.373293 0.180386
vt 0.368664 0.180171
vt 0.970469 0.923225
vt 0.340987 0.179993
vt 0.958735 0.923225
vt 0.345594 0.179578
vt 0.950438 0.931522
vt 0.350201 0.179159
vt 0.950438 0.943256
vt 0.354831 0.179001
vt 0.958735 0.951554
vt 0.359460 0.179218
vt 0.970469 0.951554
vt 0.364061 0.179697
vt 0.964602 0.937390
vt 0.367245 0.418114
vt 0.371873 0.418156
vt 0.964256 0.975126
vt 0.339617 0.417935
vt 0.344232 0.417952
vt 0.348834 0.417972
vt 0.353431 0.418000
vt 0.358028 0.418032
vt 0.362630 0.418071
vt 0.359139 0.236820
vt 0.363709 0.237471
vt 0.363411 0.290221
vt 0.358827 0.289643
vt 0.354494 0.236532
vt 0.354185 0.289393
vt 0.349847 0.236760
vt 0.349540 0.289583
vt 0.345270 0.237353
vt 0.344949 0.290102
vt 0.340701 0.237926
vt 0.340365 0.290614
vt 0.372893 0.238383
vt 0.372612 0.291047
vt 0.368271 0.238104
vt 0.367989 0.290792
vt 0.964256 0.960084
vt 0.974893 0.964490
vt 0.953621 0.964490
vt 0.949215 0.975125
vt 0.953620 0.985762
vt 0.964256 0.990167
vt 0.974892 0.985762
vt 0.979298 0.975125
vt 0.365002 0.020852
vt 0.369628 0.020976
vt 0.360380 0.020727
vt 0.355759 0.020657
vt 0.351138 0.020667
vt 0.346515 0.020733
vt 0.341888 0.020797
vt 0.374259 0.021044
vt 0.336355 0.180148
vt 0.336075 0.238146
vt 0.335740 0.290809
vt 0.979298 0.975125
vt 0.334989 0.417918
vt 0.337256 0.020805
vt 0.978766 0.931522
vn 0.999472 -0.019398 -0.026078
vn 0.999472 -0.019398 -0.026078
vn 0.999597 0.010001 -0.026570
vn 0.999530 0.015132 -0.026654
vn 0.691148 -0.019398 -0.722453
vn 0.691148 -0.019398 -0.722453
vn 0.691614 0.015132 -0.722109
vn 0.691596 0.010001 -0.722215
vn -0.022166 -0.008152 -0.999721
vn -0.022166 -0.008152 -0.999721
vn -0.021480 0.007424 -0.999742
vn -0.021849 -0.000934 -0.999761
vn -0.725274 0.008273 -0.688410
vn -0.725274 0.008273 -0.688410
vn -0.725796 -0.006819 -0.687876
vn -0.725540 0.001190 -0.688179
vn -0.999457 0.020098 0.026095
vn -0.999457 0.020098 0.026095
vn -0.999568 -0.012007 0.026809
vn -0.999616 -0.007394 0.026708
vn -0.691151 0.020098 0.722431
vn -0.691151 0.020098 0.722431
vn -0.691711 -0.007394 0.722136
vn -0.691754 -0.012007 0.722033
vn 0.022155 0.008273 0.999720
vn 0.022155 0.008273 0.999720
vn 0.021805 0.001190 0.999762
vn 0.021408 -0.006819 0.999748
vn 0.725267 -0.008152 0.688419
vn 0.725267 -0.008152 0.688419
vn 0.725510 -0.000934 0.688211
vn 0.725744 0.007424 0.687925
vn 0.000000 -1.000000 0.000000
vn 0.000000 -1.000000 0.000000
vn 0.000000 -1.000000 0.000000
vn 0.000000 -1.000000 0.000000
vn 0.000000 -1.000000 0.000000
vn 0.000000 -1.000000 0.000000
vn 0.000000 -1.000000 0.000000
vn 0.000000 -1.000000 0.000000
vn 0.000000 -1.000000 0.000000
vn -0.552986 0.796404 0.244840
vn -0.552989 0.796402 0.244838
vn -0.552988 0.796403 0.244838
vn -0.552986 0.796406 0.244835
vn -0.552986 0.796405 0.244837
vn -0.552989 0.796403 0.244837
vn -0.552989 0.796402 0.244838
vn -0.552988 0.796403 0.244840
vn -0.552987 0.796404 0.244838
vn 0.037810 -0.123847 0.991581
vn 0.022586 -0.053463 0.998314
vn 0.058402 -0.169624 0.983777
vn 0.091667 -0.225247 0.969980
vn -0.663989 -0.238102 0.708820
vn -0.675768 -0.183030 0.714029
vn -0.567553 -0.477888 0.670453
vn -0.546175 -0.514318 0.661188
vn -0.982897 -0.183030 0.020355
vn -0.971122 -0.238102 0.015135
vn -0.856663 -0.514318 -0.040074
vn -0.877892 -0.477888 -0.030474
vn -0.723943 -0.053463 -0.687785
vn -0.708725 -0.123847 -0.694529
vn -0.656530 -0.225247 -0.719884
vn -0.689105 -0.169624 -0.704529
vn -0.022872 0.054524 -0.998251
vn -0.038352 0.125134 -0.991398
vn -0.091621 0.225189 -0.969998
vn -0.058511 0.169928 -0.983718
vn 0.674208 0.189864 -0.713720
vn 0.661936 0.245296 -0.708287
vn 0.546671 0.513558 -0.661369
vn 0.567943 0.477302 -0.670540
vn 0.969347 0.245297 -0.013973
vn 0.981619 0.189864 -0.019407
vn 0.878219 0.477302 0.030244
vn 0.857130 0.513558 0.039829
vn 0.708225 0.125134 0.694808
vn 0.723704 0.054524 0.687953
vn 0.688989 0.169928 0.704570
vn 0.656574 0.225189 0.719862
vn 0.652700 0.231423 0.721406
vn 0.652700 0.231423 0.721406
vn 0.095371 -0.231421 0.968168
vn 0.095371 -0.231421 0.968168
vn -0.517865 -0.558729 0.647794
vn -0.517866 -0.558730 0.647794
vn -0.827716 -0.558730 -0.052030
vn -0.827716 -0.558730 -0.052030
vn -0.652698 -0.231421 -0.721408
vn -0.652698 -0.231421 -0.721408
vn -0.095368 0.231423 -0.968168
vn -0.095368 0.231423 -0.968168
vn 0.517864 0.558729 -0.647795
vn 0.517864 0.558730 -0.647795
vn 0.827716 0.558729 0.052031
vn 0.827716 0.558729 0.052031
s 1
g pasted__Cattail_Stalk_Short Left_Cattail_Short
usemtl lambert4SG
f 321/597/801 322/603/802 362/548/803 355/549/804
s 2
f 322/609/805 323/602/806 361/551/807 362/604/808
s 3
f 323/602/809 324/601/810 360/553/811 361/551/812
s 4
f 324/601/813 325/600/814 359/555/815 360/553/816
s 5
f 325/600/817 326/599/818 358/557/819 359/555/820
s 6
f 326/599/821 327/598/822 357/559/823 358/557/824
s 7
f 327/598/825 328/596/826 356/561/827 357/559/828
s 8
f 328/596/829 321/597/830 355/549/831 356/561/832
s 9
f 322/547/833 321/546/834 337/562/835
f 323/550/836 322/610/833 337/562/835
f 324/552/837 323/550/836 337/562/835
f 325/554/838 324/552/837 337/562/835
f 326/556/839 325/554/838 337/562/835
f 327/558/840 326/556/839 337/562/835
f 328/560/841 327/558/840 337/562/835
f 321/546/834 328/560/841 337/562/835
s 10
f 329/589/842 330/595/843 338/565/844
f 330/607/843 331/594/845 338/565/844
f 331/594/845 332/593/846 338/565/844
f 332/593/846 333/592/847 338/565/844
f 333/592/847 334/591/848 338/565/844
f 334/591/848 335/590/849 338/565/844
f 335/590/849 336/588/850 338/565/844
f 336/588/850 329/589/842 338/565/844
s 7
f 340/572/851 339/573/852 348/574/853 349/575/854
s 6
f 341/576/855 340/572/856 349/575/857 350/577/858
s 5
f 342/578/859 341/576/860 350/577/861 351/579/862
s 4
f 343/580/863 342/578/864 351/579/865 352/581/866
s 3
f 344/582/867 343/580/868 352/581/869 353/583/870
s 2
f 345/605/871 344/582/872 353/583/873 354/606/874
s 1
f 346/586/875 345/584/876 354/585/877 347/587/878
s 8
f 339/573/879 346/586/880 347/587/881 348/574/882
f 348/574/882 347/587/881 329/563/883 336/571/884
s 7
f 349/575/854 348/574/853 336/571/885 335/570/886
s 6
f 350/577/858 349/575/857 335/570/887 334/569/888
s 5
f 351/579/862 350/577/861 334/569/889 333/568/890
s 4
f 352/581/866 351/579/865 333/568/891 332/567/892
s 3
f 353/583/870 352/581/869 332/567/893 331/566/894
s 2
f 354/606/874 353/583/873 331/566/895 330/608/896
s 1
f 347/587/878 354/585/877 330/564/897 329/563/898
s 8
f 356/561/832 355/549/831 346/586/880 339/573/879
s 7
f 357/559/828 356/561/827 339/573/852 340/572/851
s 6
f 358/557/824 357/559/823 340/572/856 341/576/855
s 5
f 359/555/820 358/557/819 341/576/860 342/578/859
s 4
f 360/553/816 359/555/815 342/578/864 343/580/863
s 3
f 361/551/812 360/553/811 343/580/868 344/582/867
s 2
f 362/604/808 361/551/807 344/582/872 345/605/871
s 1
f 355/549/804 362/548/803 345/584/876 346/586/875
g default
v -33.202589 2.959020 -3.499339
v -33.183908 3.024862 -3.671652
v -33.258971 3.024862 -3.841188
v -33.399106 2.959020 -3.943188
v -33.550784 2.852483 -3.938690
v -33.656073 2.745948 -3.829414
v -33.674754 2.680105 -3.657098
v -33.599691 2.680105 -3.487562
v -33.459557 2.745948 -3.385565
v -33.307876 2.852483 -3.390061
v -34.086494 4.233992 -3.107985
v -34.067813 4.299834 -3.280298
v -34.142876 4.299834 -3.449835
v -34.283011 4.233992 -3.551834
v -34.434691 4.127456 -3.547335
v -34.539979 4.020920 -3.438060
v -34.558659 3.955076 -3.265744
v -34.483595 3.955076 -3.096208
v -34.343462 4.020920 -2.994211
v -34.191783 4.127456 -2.998707
v -33.429331 2.852483 -3.664377
v -34.313237 4.127456 -3.273022
vt 0.159285 0.592775
vt 0.162178 0.592775
vt 0.144808 0.592769
vt 0.147716 0.592769
vt 0.164518 0.591075
vt 0.142454 0.591059
vt 0.165412 0.588323
vt 0.141556 0.588293
vt 0.164518 0.585572
vt 0.142454 0.585527
vt 0.162178 0.583872
vt 0.144808 0.583817
vt 0.159285 0.583872
vt 0.147717 0.583817
vt 0.156944 0.585572
vt 0.150070 0.585527
vt 0.156051 0.588324
vt 0.150969 0.588293
vt 0.156944 0.591075
vt 0.150070 0.591059
vt 0.160731 0.588324
vt 0.146262 0.588293
vt 0.153703 0.650285
vt 0.159865 0.650285
vt 0.147542 0.650285
vt 0.141381 0.650285
vt 0.135220 0.650285
vt 0.129059 0.650285
vt 0.122898 0.650285
vt 0.116737 0.650285
vt 0.110575 0.650285
vt 0.104414 0.650285
vt 0.153703 0.597118
vt 0.159864 0.597118
vt 0.147542 0.597118
vt 0.141381 0.597118
vt 0.135220 0.597117
vt 0.129059 0.597117
vt 0.122898 0.597117
vt 0.116737 0.597117
vt 0.110576 0.597117
vt 0.166026 0.597118
vt 0.104414 0.597117
vt 0.166026 0.650285
vn 0.827441 0.488779 0.276472
vn 0.827441 0.488779 0.276472
vn 0.827441 0.488779 0.276472
vn 0.827441 0.488779 0.276472
vn 0.728634 0.604167 -0.322607
vn 0.728634 0.604167 -0.322607
vn 0.728634 0.604167 -0.322607
vn 0.728634 0.604167 -0.322607
vn 0.351515 0.488782 -0.798455
vn 0.351515 0.488782 -0.798455
vn 0.351515 0.488782 -0.798454
vn 0.351515 0.488782 -0.798454
vn -0.159879 0.186694 -0.969321
vn -0.159879 0.186694 -0.969321
vn -0.159879 0.186694 -0.969321
vn -0.159879 0.186694 -0.969321
vn -0.610191 -0.186695 -0.769943
vn -0.610191 -0.186695 -0.769943
vn -0.610191 -0.186695 -0.769943
vn -0.610191 -0.186695 -0.769943
vn -0.827441 -0.488781 -0.276468
vn -0.827441 -0.488781 -0.276468
vn -0.827441 -0.488781 -0.276468
vn -0.827441 -0.488781 -0.276468
vn -0.728634 -0.604167 0.322607
vn -0.728634 -0.604167 0.322607
vn -0.728634 -0.604167 0.322607
vn -0.728634 -0.604167 0.322607
vn -0.351507 -0.488779 0.798460
vn -0.351507 -0.488779 0.798460
vn -0.351507 -0.488779 0.798460
vn -0.351507 -0.488779 0.798460
vn 0.159869 -0.186702 0.969322
vn 0.159869 -0.186702 0.969322
vn 0.159869 -0.186702 0.969322
vn 0.159869 -0.186702 0.969322
vn 0.610197 0.186701 0.769937
vn 0.610197 0.186701 0.769937
vn 0.610197 0.186701 0.769937
vn 0.610197 0.186701 0.769937
vn 0.552443 -0.796856 -0.244596
vn 0.552443 -0.796856 -0.244596
vn 0.552441 -0.796858 -0.244596
vn 0.552442 -0.796856 -0.244598
vn 0.552443 -0.796856 -0.244598
vn 0.552441 -0.796858 -0.244596
vn 0.552438 -0.796860 -0.244596
vn 0.552439 -0.796859 -0.244596
vn 0.552439 -0.796859 -0.244595
vn 0.552438 -0.796860 -0.244594
vn 0.552441 -0.796858 -0.244596
vn -0.552437 0.796861 0.244594
vn -0.552437 0.796861 0.244594
vn -0.552441 0.796858 0.244596
vn -0.552436 0.796861 0.244595
vn -0.552437 0.796861 0.244595
vn -0.552441 0.796858 0.244596
vn -0.552444 0.796855 0.244598
vn -0.552444 0.796854 0.244598
vn -0.552445 0.796854 0.244597
vn -0.552444 0.796855 0.244597
vn -0.552441 0.796858 0.244596
s off
g Left_Cattail_Short pasted__Cattail_Short
usemtl lambert4SG
f 363/644/899 364/652/900 374/654/901 373/634/902
f 364/653/903 365/651/904 375/641/905 374/642/906
f 365/651/907 366/650/908 376/640/909 375/641/910
f 366/650/911 367/649/912 377/639/913 376/640/914
f 367/649/915 368/648/916 378/638/917 377/639/918
f 368/648/919 369/647/920 379/637/921 378/638/922
f 369/647/923 370/646/924 380/636/925 379/637/926
f 370/646/927 371/645/928 381/635/929 380/636/930
f 371/645/931 372/643/932 382/633/933 381/635/934
f 372/643/935 363/644/936 373/634/937 382/633/938
s 1
f 364/612/939 363/611/940 383/631/941
f 365/615/942 364/612/939 383/631/941
f 366/617/943 365/615/942 383/631/941
f 367/619/944 366/617/943 383/631/941
f 368/621/945 367/619/944 383/631/941
f 369/623/946 368/621/945 383/631/941
f 370/625/947 369/623/946 383/631/941
f 371/627/948 370/625/947 383/631/941
f 372/629/949 371/627/948 383/631/941
f 363/611/940 372/629/949 383/631/941
s 2
f 373/614/950 374/613/951 384/632/952
f 374/613/951 375/616/953 384/632/952
f 375/616/953 376/618/954 384/632/952
f 376/618/954 377/620/955 384/632/952
f 377/620/955 378/622/956 384/632/952
f 378/622/956 379/624/957 384/632/952
f 379/624/957 380/626/958 384/632/952
f 380/626/958 381/628/959 384/632/952
f 381/628/959 382/630/960 384/632/952
f 382/630/960 373/614/950 384/632/952
