# This file uses centimeters as units for non-parametric coordinates.

mtllib Model_Right_Cattail.mtl
g default
v 24.361245 -1.494670 -4.959440
v 24.388244 -1.494670 -5.031059
v 24.356695 -1.494670 -5.100792
v 24.285078 -1.494670 -5.127789
v 24.215346 -1.494670 -5.096241
v 24.188348 -1.494670 -5.024623
v 24.219897 -1.494670 -4.954890
v 24.291513 -1.494670 -4.927893
v 22.781172 4.343040 -4.908574
v 22.802211 4.360753 -4.980000
v 22.776622 4.343040 -5.049925
v 22.719395 4.300277 -5.077386
v 22.664052 4.257514 -5.046301
v 22.643013 4.239801 -4.974875
v 22.668602 4.257514 -4.904950
v 22.725830 4.300277 -4.877489
v 24.288296 -1.494670 -5.027841
v 22.722612 4.300277 -4.977438
v 24.248954 1.916281 -4.926523
v 24.182090 1.890788 -4.953673
v 24.152510 1.880228 -5.023470
v 24.177540 1.890788 -5.095024
v 24.242519 1.916281 -5.126419
v 24.309382 1.941775 -5.099269
v 24.338962 1.952334 -5.029472
v 24.313932 1.941775 -4.957917
v 23.998733 2.738816 -4.947770
v 23.943391 2.696052 -4.916686
v 23.886162 2.653289 -4.944146
v 23.860572 2.635576 -5.014071
v 23.881611 2.653289 -5.085498
v 23.936955 2.696052 -5.116582
v 23.994183 2.738816 -5.089122
v 24.019772 2.756529 -5.019196
v 24.414074 1.016590 -4.961141
v 24.344931 1.007471 -4.929612
v 24.273905 0.998351 -4.956629
v 24.242601 0.994574 -5.026370
v 24.269354 0.998351 -5.097980
v 24.338496 1.007471 -5.129509
v 24.409524 1.016590 -5.102492
v 24.440828 1.020368 -5.032751
vt 0.979955 0.789838
vt 0.979955 0.778103
vt 0.472726 0.182280
vt 0.468097 0.182065
vt 0.971657 0.769806
vt 0.440420 0.181886
vt 0.959923 0.769806
vt 0.445028 0.181472
vt 0.951626 0.778103
vt 0.449635 0.181052
vt 0.951626 0.789837
vt 0.454265 0.180895
vt 0.959923 0.798135
vt 0.458893 0.181112
vt 0.971657 0.798135
vt 0.463495 0.181591
vt 0.965790 0.783970
vt 0.466678 0.420007
vt 0.471307 0.420049
vt 0.965954 0.823113
vt 0.439051 0.419829
vt 0.443666 0.419846
vt 0.448268 0.419866
vt 0.452865 0.419894
vt 0.457462 0.419925
vt 0.462063 0.419964
vt 0.458572 0.238714
vt 0.463143 0.239365
vt 0.462845 0.292115
vt 0.458260 0.291537
vt 0.453928 0.238425
vt 0.453618 0.291286
vt 0.449281 0.238653
vt 0.448974 0.291477
vt 0.444703 0.239246
vt 0.444383 0.291996
vt 0.440134 0.239819
vt 0.439799 0.292507
vt 0.472327 0.240276
vt 0.472045 0.292941
vt 0.467704 0.239997
vt 0.467422 0.292685
vt 0.965954 0.808071
vt 0.976590 0.812477
vt 0.955318 0.812476
vt 0.950912 0.823112
vt 0.955318 0.833749
vt 0.965954 0.838154
vt 0.976590 0.833749
vt 0.980996 0.823112
vt 0.464436 0.022745
vt 0.469062 0.022869
vt 0.459814 0.022620
vt 0.455193 0.022551
vt 0.450571 0.022561
vt 0.445949 0.022626
vt 0.441321 0.022690
vt 0.473693 0.022937
vt 0.435789 0.182042
vt 0.435509 0.240039
vt 0.435173 0.292703
vt 0.980996 0.823112
vt 0.434422 0.419812
vt 0.436689 0.022699
vt 0.979955 0.778103
vn 0.936232 -0.019398 0.350847
vn 0.936232 -0.019398 0.350847
vn 0.936533 0.010001 0.350437
vn 0.936502 0.015132 0.350335
vn 0.911727 -0.019398 -0.410338
vn 0.911727 -0.019398 -0.410338
vn 0.912030 0.015132 -0.409844
vn 0.912054 0.010001 -0.409948
vn 0.354567 -0.008152 -0.934995
vn 0.354567 -0.008152 -0.934995
vn 0.355210 0.007424 -0.934757
vn 0.354876 -0.000934 -0.934913
vn -0.413979 0.008273 -0.910249
vn -0.413979 0.008273 -0.910249
vn -0.414664 -0.006819 -0.909949
vn -0.414312 0.001190 -0.910134
vn -0.936225 0.020098 -0.350826
vn -0.936225 0.020098 -0.350826
vn -0.936596 -0.012007 -0.350206
vn -0.936602 -0.007394 -0.350317
vn -0.911722 0.020098 0.410316
vn -0.911722 0.020098 0.410316
vn -0.912131 -0.007394 0.409832
vn -0.912132 -0.012007 0.409721
vn -0.354577 0.008273 0.934990
vn -0.354577 0.008273 0.934990
vn -0.354916 0.001190 0.934897
vn -0.355279 -0.006819 0.934735
vn 0.413970 -0.008152 0.910254
vn 0.413970 -0.008152 0.910254
vn 0.414273 -0.000934 0.910152
vn 0.414597 0.007424 0.909975
vn 0.000000 -1.000000 0.000000
vn 0.000000 -1.000000 0.000000
vn 0.000000 -1.000000 0.000000
vn 0.000000 -1.000000 0.000000
vn 0.000000 -1.000000 0.000000
vn 0.000000 -1.000000 0.000000
vn 0.000000 -1.000000 0.000000
vn 0.000000 -1.000000 0.000000
vn 0.000000 -1.000000 0.000000
vn -0.604452 0.796404 0.019460
vn -0.604454 0.796402 0.019458
vn -0.604453 0.796403 0.019458
vn -0.604450 0.796406 0.019457
vn -0.604450 0.796405 0.019459
vn -0.604454 0.796403 0.019457
vn -0.604454 0.796402 0.019458
vn -0.604453 0.796403 0.019460
vn -0.604452 0.796404 0.019459
vn -0.337012 -0.123847 0.933319
vn -0.353649 -0.053463 0.933849
vn -0.314996 -0.169624 0.933812
vn -0.278985 -0.225247 0.933505
vn -0.881438 -0.238102 0.407891
vn -0.894311 -0.183030 0.408299
vn -0.777652 -0.477888 0.408511
vn -0.754359 -0.514318 0.407945
vn -0.918720 -0.183030 -0.349933
vn -0.905848 -0.238102 -0.350353
vn -0.779035 -0.514318 -0.358581
vn -0.802316 -0.477888 -0.357648
vn -0.412981 -0.053463 -0.909169
vn -0.396343 -0.123847 -0.909711
vn -0.338448 -0.225247 -0.913628
vn -0.374405 -0.169624 -0.911619
vn 0.353361 0.054524 -0.933897
vn 0.336441 0.125134 -0.933354
vn 0.279034 0.225189 -0.933504
vn 0.314873 0.169928 -0.933798
vn 0.892748 0.189864 -0.408598
vn 0.879335 0.245296 -0.408167
vn 0.754887 0.513558 -0.407927
vn 0.778046 0.477302 -0.408446
vn 0.903767 0.245296 0.350764
vn 0.917180 0.189864 0.350332
vn 0.802705 0.477302 0.357557
vn 0.779561 0.513558 0.358529
vn 0.395776 0.125134 0.909782
vn 0.412696 0.054524 0.909236
vn 0.374281 0.169928 0.911613
vn 0.338497 0.225189 0.913624
vn 0.334327 0.231423 0.913602
vn 0.334327 0.231423 0.913602
vn -0.274871 -0.231421 0.933215
vn -0.274871 -0.231421 0.933215
vn -0.723092 -0.558729 0.406151
vn -0.723092 -0.558730 0.406151
vn -0.747718 -0.558729 -0.358802
vn -0.747718 -0.558729 -0.358802
vn -0.334325 -0.231421 -0.913604
vn -0.334325 -0.231421 -0.913603
vn 0.274874 0.231423 -0.933214
vn 0.274874 0.231423 -0.933214
vn 0.723091 0.558729 -0.406153
vn 0.723091 0.558729 -0.406153
vn 0.747717 0.558729 0.358804
vn 0.747717 0.558729 0.358804
s 1
g pasted__Cattail_Stalk_Short Right_Cattail_Short
usemtl lambert4SG
f 1/52/1 2/58/2 42/3/3 35/4/4
s 2
f 2/64/5 3/57/6 41/6/7 42/59/8
s 3
f 3/57/9 4/56/10 40/8/11 41/6/12
s 4
f 4/56/13 5/55/14 39/10/15 40/8/16
s 5
f 5/55/17 6/54/18 38/12/19 39/10/20
s 6
f 6/54/21 7/53/22 37/14/23 38/12/24
s 7
f 7/53/25 8/51/26 36/16/27 37/14/28
s 8
f 8/51/29 1/52/30 35/4/31 36/16/32
s 9
f 2/2/33 1/1/34 17/17/35
f 3/5/36 2/65/33 17/17/35
f 4/7/37 3/5/36 17/17/35
f 5/9/38 4/7/37 17/17/35
f 6/11/39 5/9/38 17/17/35
f 7/13/40 6/11/39 17/17/35
f 8/15/41 7/13/40 17/17/35
f 1/1/34 8/15/41 17/17/35
s 10
f 9/44/42 10/50/43 18/20/44
f 10/62/43 11/49/45 18/20/44
f 11/49/45 12/48/46 18/20/44
f 12/48/46 13/47/47 18/20/44
f 13/47/47 14/46/48 18/20/44
f 14/46/48 15/45/49 18/20/44
f 15/45/49 16/43/50 18/20/44
f 16/43/50 9/44/42 18/20/44
s 7
f 20/27/51 19/28/52 28/29/53 29/30/54
s 6
f 21/31/55 20/27/56 29/30/57 30/32/58
s 5
f 22/33/59 21/31/60 30/32/61 31/34/62
s 4
f 23/35/63 22/33/64 31/34/65 32/36/66
s 3
f 24/37/67 23/35/68 32/36/69 33/38/70
s 2
f 25/60/71 24/37/72 33/38/73 34/61/74
s 1
f 26/41/75 25/39/76 34/40/77 27/42/78
s 8
f 19/28/79 26/41/80 27/42/81 28/29/82
f 28/29/82 27/42/81 9/18/83 16/26/84
s 7
f 29/30/54 28/29/53 16/26/85 15/25/86
s 6
f 30/32/58 29/30/57 15/25/87 14/24/88
s 5
f 31/34/62 30/32/61 14/24/89 13/23/90
s 4
f 32/36/66 31/34/65 13/23/91 12/22/92
s 3
f 33/38/70 32/36/69 12/22/93 11/21/94
s 2
f 34/61/74 33/38/73 11/21/95 10/63/96
s 1
f 27/42/78 34/40/77 10/19/97 9/18/98
s 8
f 36/16/32 35/4/31 26/41/80 19/28/79
s 7
f 37/14/28 36/16/27 19/28/52 20/27/51
s 6
f 38/12/24 37/14/23 20/27/56 21/31/55
s 5
f 39/10/20 38/12/19 21/31/60 22/33/59
s 4
f 40/8/16 39/10/15 22/33/64 23/35/63
s 3
f 41/6/12 40/8/11 23/35/68 24/37/67
s 2
f 42/59/8 41/6/7 24/37/72 25/60/71
s 1
f 35/4/4 42/3/3 25/39/76 26/41/75
g default
v 23.965025 2.970640 -4.774604
v 24.046996 3.036483 -4.927319
v 24.041030 3.036483 -5.112633
v 23.949406 2.970640 -5.259761
v 23.807122 2.864104 -5.312504
v 23.668524 2.757569 -5.250719
v 23.586552 2.691725 -5.098002
v 23.592518 2.691725 -4.912688
v 23.684142 2.757569 -4.765562
v 23.826427 2.864104 -4.712817
v 22.998858 4.245613 -4.743501
v 23.080829 4.311455 -4.896215
v 23.074864 4.311455 -5.081530
v 22.983240 4.245613 -5.228658
v 22.840953 4.139077 -5.281401
v 22.702356 4.032540 -5.219615
v 22.620386 3.966697 -5.066899
v 22.626351 3.966697 -4.881584
v 22.717975 4.032540 -4.734459
v 22.860259 4.139077 -4.681713
v 23.816775 2.864104 -5.012661
v 22.850606 4.139077 -4.981558
vt 0.384883 0.606202
vt 0.387776 0.606202
vt 0.370406 0.606196
vt 0.373315 0.606196
vt 0.390116 0.604501
vt 0.368053 0.604486
vt 0.391010 0.601750
vt 0.367154 0.601720
vt 0.390116 0.598999
vt 0.368053 0.598953
vt 0.387776 0.597298
vt 0.370406 0.597243
vt 0.384883 0.597298
vt 0.373315 0.597243
vt 0.382543 0.598999
vt 0.375669 0.598953
vt 0.381649 0.601750
vt 0.376568 0.601720
vt 0.382543 0.604501
vt 0.375669 0.604486
vt 0.386330 0.601750
vt 0.371861 0.601720
vt 0.379302 0.663712
vt 0.385463 0.663712
vt 0.373141 0.663712
vt 0.366979 0.663712
vt 0.360818 0.663712
vt 0.354657 0.663712
vt 0.348496 0.663712
vt 0.342335 0.663712
vt 0.336174 0.663712
vt 0.330013 0.663712
vt 0.379302 0.610544
vt 0.385463 0.610545
vt 0.373141 0.610545
vt 0.366979 0.610544
vt 0.360818 0.610544
vt 0.354657 0.610544
vt 0.348496 0.610544
vt 0.342335 0.610544
vt 0.336174 0.610544
vt 0.391624 0.610544
vt 0.330013 0.610544
vt 0.391624 0.663712
vn 0.663248 0.488780 0.566743
vn 0.663248 0.488780 0.566743
vn 0.663248 0.488779 0.566742
vn 0.663248 0.488779 0.566742
vn 0.796445 0.604167 -0.025640
vn 0.796445 0.604167 -0.025640
vn 0.796445 0.604167 -0.025640
vn 0.796445 0.604167 -0.025640
vn 0.625426 0.488782 -0.608222
vn 0.625426 0.488782 -0.608222
vn 0.625426 0.488782 -0.608222
vn 0.625426 0.488782 -0.608222
vn 0.215509 0.186694 -0.958489
vn 0.215509 0.186694 -0.958489
vn 0.215509 0.186694 -0.958489
vn 0.215509 0.186694 -0.958489
vn -0.276712 -0.186695 -0.942643
vn -0.276712 -0.186695 -0.942643
vn -0.276712 -0.186695 -0.942643
vn -0.276712 -0.186695 -0.942643
vn -0.663250 -0.488781 -0.566739
vn -0.663250 -0.488781 -0.566739
vn -0.663250 -0.488781 -0.566739
vn -0.663250 -0.488781 -0.566739
vn -0.796445 -0.604167 0.025640
vn -0.796445 -0.604167 0.025640
vn -0.796445 -0.604167 0.025640
vn -0.796445 -0.604167 0.025640
vn -0.625421 -0.488779 0.608230
vn -0.625421 -0.488779 0.608230
vn -0.625421 -0.488779 0.608230
vn -0.625421 -0.488779 0.608230
vn -0.215519 -0.186702 0.958485
vn -0.215519 -0.186702 0.958485
vn -0.215519 -0.186702 0.958485
vn -0.215519 -0.186702 0.958485
vn 0.276720 0.186701 0.942639
vn 0.276720 0.186701 0.942639
vn 0.276720 0.186701 0.942639
vn 0.276720 0.186701 0.942639
vn 0.603856 -0.796856 -0.019439
vn 0.603857 -0.796856 -0.019439
vn 0.603854 -0.796858 -0.019440
vn 0.603856 -0.796856 -0.019440
vn 0.603857 -0.796856 -0.019440
vn 0.603854 -0.796858 -0.019440
vn 0.603852 -0.796860 -0.019440
vn 0.603852 -0.796859 -0.019440
vn 0.603852 -0.796859 -0.019439
vn 0.603852 -0.796860 -0.019439
vn 0.603854 -0.796858 -0.019440
vn -0.603850 0.796861 0.019439
vn -0.603850 0.796861 0.019439
vn -0.603854 0.796858 0.019440
vn -0.603850 0.796861 0.019440
vn -0.603850 0.796861 0.019440
vn -0.603854 0.796858 0.019440
vn -0.603858 0.796855 0.019440
vn -0.603859 0.796854 0.019440
vn -0.603859 0.796854 0.019439
vn -0.603858 0.796855 0.019439
vn -0.603854 0.796858 0.019440
s off
g Right_Cattail_Short pasted__Cattail_Short
usemtl lambert4SG
f 43/99/99 44/107/100 54/109/101 53/89/102
f 44/108/103 45/106/104 55/96/105 54/97/106
f 45/106/107 46/105/108 56/95/109 55/96/110
f 46/105/111 47/104/112 57/94/113 56/95/114
f 47/104/115 48/103/116 58/93/117 57/94/118
f 48/103/119 49/102/120 59/92/121 58/93/122
f 49/102/123 50/101/124 60/91/125 59/92/126
f 50/101/127 51/100/128 61/90/129 60/91/130
f 51/100/131 52/98/132 62/88/133 61/90/134
f 52/98/135 43/99/136 53/89/137 62/88/138
s 1
f 44/67/139 43/66/140 63/86/141
f 45/70/142 44/67/139 63/86/141
f 46/72/143 45/70/142 63/86/141
f 47/74/144 46/72/143 63/86/141
f 48/76/145 47/74/144 63/86/141
f 49/78/146 48/76/145 63/86/141
f 50/80/147 49/78/146 63/86/141
f 51/82/148 50/80/147 63/86/141
f 52/84/149 51/82/148 63/86/141
f 43/66/140 52/84/149 63/86/141
s 2
f 53/69/150 54/68/151 64/87/152
f 54/68/151 55/71/153 64/87/152
f 55/71/153 56/73/154 64/87/152
f 56/73/154 57/75/155 64/87/152
f 57/75/155 58/77/156 64/87/152
f 58/77/156 59/79/157 64/87/152
f 59/79/157 60/81/158 64/87/152
f 60/81/158 61/83/159 64/87/152
f 61/83/159 62/85/160 64/87/152
f 62/85/160 53/69/150 64/87/152
g default
v 27.284995 -1.235045 -2.896255
v 27.213688 -1.235045 -2.924063
v 27.143602 -1.235045 -2.893306
v 27.115795 -1.235045 -2.821999
v 27.146551 -1.235045 -2.751915
v 27.217859 -1.235045 -2.724107
v 27.287945 -1.235045 -2.754865
v 27.315752 -1.235045 -2.826171
v 27.317967 4.602665 -1.315708
v 27.246784 4.620379 -1.337554
v 27.176574 4.602665 -1.312758
v 27.148467 4.559902 -1.255845
v 27.178923 4.517139 -1.200154
v 27.250106 4.499426 -1.178308
v 27.320316 4.517139 -1.203104
v 27.348423 4.559902 -1.260017
v 27.215773 -1.235045 -2.824085
v 27.248445 4.559902 -1.257931
v 27.316640 2.175907 -2.783599
v 27.288734 2.150413 -2.717046
v 27.218607 2.139854 -2.688258
v 27.147340 2.150413 -2.714097
v 27.116683 2.175907 -2.779428
v 27.144589 2.201400 -2.845979
v 27.214716 2.211960 -2.874767
v 27.285983 2.201400 -2.848928
v 27.292560 2.998441 -2.533634
v 27.323016 2.955678 -2.477943
v 27.294909 2.912915 -2.421029
v 27.224699 2.895201 -2.396233
v 27.153515 2.912915 -2.418080
v 27.123059 2.955678 -2.473772
v 27.151166 2.998441 -2.530685
v 27.221377 3.016154 -2.555481
v 27.283893 1.276216 -2.949100
v 27.314637 1.267096 -2.879605
v 27.286818 1.257977 -2.808889
v 27.216727 1.254199 -2.778377
v 27.145424 1.257977 -2.805939
v 27.114680 1.267096 -2.875433
v 27.142499 1.276216 -2.946151
v 27.212590 1.279993 -2.976663
vt 0.979635 0.710967
vt 0.979635 0.699233
vt 0.523830 0.181782
vt 0.519201 0.181567
vt 0.971338 0.690935
vt 0.491524 0.181389
vt 0.959604 0.690936
vt 0.496131 0.180974
vt 0.951307 0.699232
vt 0.500738 0.180554
vt 0.951307 0.710967
vt 0.505369 0.180397
vt 0.959604 0.719265
vt 0.509997 0.180614
vt 0.971338 0.719264
vt 0.514599 0.181093
vt 0.965471 0.705100
vt 0.517782 0.419510
vt 0.522411 0.419552
vt 0.965880 0.743656
vt 0.490155 0.419331
vt 0.494770 0.419349
vt 0.499372 0.419369
vt 0.503969 0.419397
vt 0.508565 0.419428
vt 0.513167 0.419467
vt 0.509676 0.238216
vt 0.514246 0.238867
vt 0.513949 0.291617
vt 0.509364 0.291039
vt 0.505032 0.237928
vt 0.504722 0.290789
vt 0.500384 0.238156
vt 0.500077 0.290979
vt 0.495807 0.238749
vt 0.495486 0.291498
vt 0.491238 0.239322
vt 0.490903 0.292010
vt 0.523431 0.239779
vt 0.523149 0.292443
vt 0.518808 0.239500
vt 0.518526 0.292188
vt 0.965880 0.728614
vt 0.976516 0.733020
vt 0.955245 0.733019
vt 0.950839 0.743656
vt 0.955244 0.754292
vt 0.965880 0.758698
vt 0.976516 0.754292
vt 0.980922 0.743656
vt 0.515539 0.022248
vt 0.520165 0.022372
vt 0.510918 0.022123
vt 0.506297 0.022053
vt 0.501675 0.022063
vt 0.497052 0.022129
vt 0.492425 0.022193
vt 0.524797 0.022440
vt 0.486893 0.181544
vt 0.486613 0.239541
vt 0.486277 0.292205
vt 0.980922 0.743656
vt 0.485526 0.419314
vt 0.487793 0.022201
vt 0.979635 0.699233
vn 0.361426 -0.019398 -0.932199
vn 0.361426 -0.019398 -0.932199
vn 0.361019 0.010001 -0.932505
vn 0.360917 0.015132 -0.932475
vn -0.399988 -0.019398 -0.916315
vn -0.399988 -0.019398 -0.916315
vn -0.399491 0.015132 -0.916612
vn -0.399595 0.010001 -0.916637
vn -0.930920 -0.008152 -0.365131
vn -0.930920 -0.008152 -0.365131
vn -0.930675 0.007424 -0.365772
vn -0.930835 -0.000934 -0.365439
vn -0.914878 0.008273 0.403646
vn -0.914878 0.008273 0.403646
vn -0.914586 -0.006819 0.404334
vn -0.914767 0.001190 0.403980
vn -0.361405 0.020098 0.932192
vn -0.361404 0.020098 0.932192
vn -0.360788 -0.012007 0.932570
vn -0.360900 -0.007394 0.932575
vn 0.399966 0.020098 0.916309
vn 0.399966 0.020098 0.916309
vn 0.399478 -0.007394 0.916713
vn 0.399366 -0.012007 0.916713
vn 0.930916 0.008273 0.365141
vn 0.930916 0.008273 0.365141
vn 0.930819 0.001190 0.365479
vn 0.930653 -0.006819 0.365840
vn 0.914883 -0.008152 -0.403636
vn 0.914883 -0.008152 -0.403636
vn 0.914785 -0.000934 -0.403940
vn 0.914611 0.007424 -0.404266
vn 0.000000 -1.000000 0.000000
vn 0.000000 -1.000000 0.000000
vn 0.000000 -1.000000 0.000000
vn 0.000000 -1.000000 0.000000
vn 0.000000 -1.000000 0.000000
vn 0.000000 -1.000000 0.000000
vn 0.000000 -1.000000 0.000000
vn 0.000000 -1.000000 0.000000
vn 0.000000 -1.000000 0.000000
vn 0.012615 0.796404 0.604633
vn 0.012613 0.796402 0.604635
vn 0.012613 0.796403 0.604634
vn 0.012611 0.796406 0.604631
vn 0.012613 0.796405 0.604632
vn 0.012612 0.796403 0.604635
vn 0.012613 0.796402 0.604635
vn 0.012614 0.796403 0.604635
vn 0.012613 0.796404 0.604633
vn 0.929443 -0.123847 0.347558
vn 0.929785 -0.053463 0.364201
vn 0.930186 -0.169624 0.325549
vn 0.930286 -0.225247 0.289537
vn 0.397884 -0.238102 0.886000
vn 0.398146 -0.183030 0.898877
vn 0.399680 -0.477888 0.782227
vn 0.399377 -0.514318 0.758930
vn -0.360313 -0.183030 0.914699
vn -0.360588 -0.238102 0.901822
vn -0.367379 -0.514318 0.774925
vn -0.366710 -0.477888 0.798215
vn -0.913787 -0.053463 0.402660
vn -0.914140 -0.123847 0.386017
vn -0.917402 -0.225247 0.328082
vn -0.915800 -0.169624 0.364059
vn -0.929836 0.054524 -0.363913
vn -0.929484 0.125134 -0.346988
vn -0.930285 0.225189 -0.289586
vn -0.930173 0.169928 -0.325426
vn -0.398463 0.189864 -0.897317
vn -0.398184 0.245296 -0.883900
vn -0.399353 0.513558 -0.759457
vn -0.399610 0.477302 -0.782621
vn 0.360975 0.245297 -0.899737
vn 0.360695 0.189864 -0.913154
vn 0.366623 0.477302 -0.798605
vn 0.367333 0.513558 -0.775451
vn 0.914205 0.125134 -0.385449
vn 0.913850 0.054524 -0.402374
vn 0.915792 0.169928 -0.363935
vn 0.917399 0.225189 -0.328130
vn 0.917329 0.231423 -0.323961
vn 0.917329 0.231423 -0.323961
vn 0.930043 -0.231421 0.285420
vn 0.930043 -0.231421 0.285420
vn 0.397938 -0.558729 0.727645
vn 0.397938 -0.558730 0.727645
vn -0.367246 -0.558730 0.743607
vn -0.367246 -0.558730 0.743607
vn -0.917330 -0.231421 0.323959
vn -0.917331 -0.231421 0.323959
vn -0.930042 0.231423 -0.285423
vn -0.930042 0.231423 -0.285423
vn -0.397939 0.558729 -0.727644
vn -0.397939 0.558730 -0.727644
vn 0.367247 0.558730 -0.743607
vn 0.367247 0.558729 -0.743607
s 1
g pasted__Cattail_Stalk_Short Right_Cattail_Short1
usemtl lambert4SG
f 65/161/161 66/167/162 106/112/163 99/113/164
s 2
f 66/173/165 67/166/166 105/115/167 106/168/168
s 3
f 67/166/169 68/165/170 104/117/171 105/115/172
s 4
f 68/165/173 69/164/174 103/119/175 104/117/176
s 5
f 69/164/177 70/163/178 102/121/179 103/119/180
s 6
f 70/163/181 71/162/182 101/123/183 102/121/184
s 7
f 71/162/185 72/160/186 100/125/187 101/123/188
s 8
f 72/160/189 65/161/190 99/113/191 100/125/192
s 9
f 66/111/193 65/110/194 81/126/195
f 67/114/196 66/174/193 81/126/195
f 68/116/197 67/114/196 81/126/195
f 69/118/198 68/116/197 81/126/195
f 70/120/199 69/118/198 81/126/195
f 71/122/200 70/120/199 81/126/195
f 72/124/201 71/122/200 81/126/195
f 65/110/194 72/124/201 81/126/195
s 10
f 73/153/202 74/159/203 82/129/204
f 74/171/203 75/158/205 82/129/204
f 75/158/205 76/157/206 82/129/204
f 76/157/206 77/156/207 82/129/204
f 77/156/207 78/155/208 82/129/204
f 78/155/208 79/154/209 82/129/204
f 79/154/209 80/152/210 82/129/204
f 80/152/210 73/153/202 82/129/204
s 7
f 84/136/211 83/137/212 92/138/213 93/139/214
s 6
f 85/140/215 84/136/216 93/139/217 94/141/218
s 5
f 86/142/219 85/140/220 94/141/221 95/143/222
s 4
f 87/144/223 86/142/224 95/143/225 96/145/226
s 3
f 88/146/227 87/144/228 96/145/229 97/147/230
s 2
f 89/169/231 88/146/232 97/147/233 98/170/234
s 1
f 90/150/235 89/148/236 98/149/237 91/151/238
s 8
f 83/137/239 90/150/240 91/151/241 92/138/242
f 92/138/242 91/151/241 73/127/243 80/135/244
s 7
f 93/139/214 92/138/213 80/135/245 79/134/246
s 6
f 94/141/218 93/139/217 79/134/247 78/133/248
s 5
f 95/143/222 94/141/221 78/133/249 77/132/250
s 4
f 96/145/226 95/143/225 77/132/251 76/131/252
s 3
f 97/147/230 96/145/229 76/131/253 75/130/254
s 2
f 98/170/234 97/147/233 75/130/255 74/172/256
s 1
f 91/151/238 98/149/237 74/128/257 73/127/258
s 8
f 100/125/192 99/113/191 90/150/240 83/137/239
s 7
f 101/123/188 100/125/187 83/137/212 84/136/211
s 6
f 102/121/184 101/123/183 84/136/216 85/140/215
s 5
f 103/119/180 102/121/179 85/140/220 86/142/219
s 4
f 104/117/176 103/119/175 86/142/224 87/144/223
s 3
f 105/115/172 104/117/171 87/144/228 88/146/227
s 2
f 106/168/168 105/115/167 88/146/232 89/169/231
s 1
f 99/113/164 106/112/163 89/148/236 90/150/235
g default
v 27.465333 3.230266 -2.497967
v 27.313557 3.296109 -2.581662
v 27.128187 3.296109 -2.577795
v 26.980031 3.230266 -2.487843
v 26.925680 3.123729 -2.346165
v 26.985892 3.017194 -2.206876
v 27.137671 2.951351 -2.123181
v 27.323041 2.951351 -2.127048
v 27.471195 3.017194 -2.217000
v 27.525547 3.123729 -2.358679
v 27.485495 4.505238 -1.531510
v 27.333718 4.571080 -1.615206
v 27.148348 4.571080 -1.611339
v 27.000192 4.505238 -1.521386
v 26.945842 4.398702 -1.379707
v 27.006054 4.292166 -1.240419
v 27.157832 4.226322 -1.156724
v 27.343202 4.226322 -1.160591
v 27.491356 4.292166 -1.250543
v 27.545709 4.398702 -1.392221
v 27.225613 3.123729 -2.352422
v 27.245774 4.398702 -1.385964
vt 0.488563 0.606771
vt 0.491456 0.606771
vt 0.474087 0.606765
vt 0.476995 0.606765
vt 0.493797 0.605071
vt 0.471733 0.605055
vt 0.494690 0.602319
vt 0.470834 0.602289
vt 0.493797 0.599568
vt 0.471733 0.599522
vt 0.491456 0.597868
vt 0.474087 0.597813
vt 0.488563 0.597868
vt 0.476995 0.597813
vt 0.486223 0.599568
vt 0.479349 0.599522
vt 0.485329 0.602319
vt 0.480247 0.602289
vt 0.486223 0.605071
vt 0.479349 0.605055
vt 0.490010 0.602319
vt 0.475541 0.602289
vt 0.482982 0.664281
vt 0.489143 0.664281
vt 0.476821 0.664281
vt 0.470660 0.664281
vt 0.464499 0.664281
vt 0.458337 0.664281
vt 0.452176 0.664281
vt 0.446015 0.664281
vt 0.439854 0.664281
vt 0.433693 0.664281
vt 0.482982 0.611113
vt 0.489143 0.611113
vt 0.476821 0.611113
vt 0.470660 0.611113
vt 0.464499 0.611113
vt 0.458337 0.611113
vt 0.452176 0.611113
vt 0.446015 0.611113
vt 0.439854 0.611113
vt 0.495304 0.611113
vt 0.433693 0.611113
vt 0.495304 0.664281
vn 0.574216 0.488780 -0.656788
vn 0.574216 0.488780 -0.656788
vn 0.574216 0.488779 -0.656788
vn 0.574216 0.488779 -0.656788
vn -0.016620 0.604167 -0.796684
vn -0.016620 0.604167 -0.796684
vn -0.016620 0.604167 -0.796684
vn -0.016620 0.604167 -0.796684
vn -0.601101 0.488782 -0.632273
vn -0.601101 0.488782 -0.632273
vn -0.601101 0.488782 -0.632273
vn -0.601101 0.488782 -0.632273
vn -0.955987 0.186694 -0.226348
vn -0.955987 0.186694 -0.226348
vn -0.955987 0.186694 -0.226348
vn -0.955987 0.186694 -0.226348
vn -0.945716 -0.186695 0.266021
vn -0.945716 -0.186695 0.266021
vn -0.945716 -0.186695 0.266021
vn -0.945716 -0.186695 0.266021
vn -0.574212 -0.488781 0.656790
vn -0.574212 -0.488781 0.656790
vn -0.574212 -0.488781 0.656790
vn -0.574212 -0.488781 0.656790
vn 0.016620 -0.604167 0.796684
vn 0.016620 -0.604167 0.796684
vn 0.016620 -0.604167 0.796684
vn 0.016620 -0.604167 0.796684
vn 0.601109 -0.488779 0.632268
vn 0.601109 -0.488779 0.632268
vn 0.601109 -0.488779 0.632268
vn 0.601109 -0.488779 0.632268
vn 0.955984 -0.186702 0.226358
vn 0.955984 -0.186702 0.226358
vn 0.955984 -0.186702 0.226358
vn 0.955984 -0.186702 0.226358
vn 0.945712 0.186701 -0.266029
vn 0.945712 0.186701 -0.266029
vn 0.945712 0.186701 -0.266029
vn 0.945712 0.186701 -0.266029
vn -0.012600 -0.796856 -0.604037
vn -0.012600 -0.796856 -0.604038
vn -0.012601 -0.796858 -0.604036
vn -0.012602 -0.796856 -0.604038
vn -0.012602 -0.796856 -0.604038
vn -0.012601 -0.796858 -0.604036
vn -0.012602 -0.796860 -0.604033
vn -0.012602 -0.796859 -0.604034
vn -0.012600 -0.796859 -0.604034
vn -0.012600 -0.796860 -0.604033
vn -0.012601 -0.796858 -0.604036
vn 0.012600 0.796861 0.604032
vn 0.012600 0.796861 0.604031
vn 0.012601 0.796858 0.604036
vn 0.012601 0.796861 0.604031
vn 0.012601 0.796861 0.604032
vn 0.012601 0.796858 0.604036
vn 0.012601 0.796855 0.604039
vn 0.012601 0.796854 0.604040
vn 0.012600 0.796854 0.604040
vn 0.012600 0.796855 0.604039
vn 0.012601 0.796858 0.604036
s off
g Right_Cattail_Short1 pasted__Cattail_Short
usemtl lambert4SG
f 107/208/259 108/216/260 118/218/261 117/198/262
f 108/217/263 109/215/264 119/205/265 118/206/266
f 109/215/267 110/214/268 120/204/269 119/205/270
f 110/214/271 111/213/272 121/203/273 120/204/274
f 111/213/275 112/212/276 122/202/277 121/203/278
f 112/212/279 113/211/280 123/201/281 122/202/282
f 113/211/283 114/210/284 124/200/285 123/201/286
f 114/210/287 115/209/288 125/199/289 124/200/290
f 115/209/291 116/207/292 126/197/293 125/199/294
f 116/207/295 107/208/296 117/198/297 126/197/298
s 1
f 108/176/299 107/175/300 127/195/301
f 109/179/302 108/176/299 127/195/301
f 110/181/303 109/179/302 127/195/301
f 111/183/304 110/181/303 127/195/301
f 112/185/305 111/183/304 127/195/301
f 113/187/306 112/185/305 127/195/301
f 114/189/307 113/187/306 127/195/301
f 115/191/308 114/189/307 127/195/301
f 116/193/309 115/191/308 127/195/301
f 107/175/300 116/193/309 127/195/301
s 2
f 117/178/310 118/177/311 128/196/312
f 118/177/311 119/180/313 128/196/312
f 119/180/313 120/182/314 128/196/312
f 120/182/314 121/184/315 128/196/312
f 121/184/315 122/186/316 128/196/312
f 122/186/316 123/188/317 128/196/312
f 123/188/317 124/190/318 128/196/312
f 124/190/318 125/192/319 128/196/312
f 125/192/319 126/194/320 128/196/312
f 126/194/320 117/178/310 128/196/312
g default
v 24.916094 -1.790215 -3.676074
v 24.839884 -1.790215 -3.668990
v 24.791004 -1.790215 -3.610094
v 24.798088 -1.790215 -3.533887
v 24.856982 -1.790215 -3.485007
v 24.933192 -1.790215 -3.492090
v 24.982073 -1.790215 -3.550987
v 24.974988 -1.790215 -3.627194
v 26.177538 4.894553 -1.284523
v 26.109022 4.920899 -1.262854
v 26.052447 4.894553 -1.218544
v 26.040955 4.830949 -1.177554
v 26.081275 4.767345 -1.163890
v 26.149790 4.740999 -1.185561
v 26.206365 4.767345 -1.229870
v 26.217856 4.830949 -1.270862
v 24.886538 -1.790215 -3.580540
v 26.129406 4.830949 -1.224208
v 25.315280 3.914257 -2.919264
v 25.357975 3.853390 -2.901096
v 25.348859 3.792522 -2.855601
v 25.293269 3.767310 -2.809426
v 25.223769 3.792522 -2.789621
v 25.181075 3.853390 -2.807789
v 25.190189 3.914257 -2.853284
v 25.245780 3.939470 -2.899460
v 25.022179 3.095249 -3.474948
v 25.074572 3.053097 -3.438395
v 25.075154 3.010946 -3.374515
v 25.023580 2.993486 -3.320725
v 24.950063 3.010946 -3.308536
v 24.897672 3.053097 -3.345088
v 24.897089 3.095249 -3.408969
v 24.948663 3.112709 -3.462758
v 24.917727 2.215126 -3.672979
v 24.974988 2.193157 -3.627194
v 24.980440 2.171188 -3.554082
v 24.930883 2.162089 -3.496467
v 24.855350 2.171188 -3.488102
v 24.798088 2.193157 -3.533887
v 24.792637 2.215126 -3.606999
v 24.842193 2.224225 -3.664614
vt 0.980349 0.452520
vt 0.980349 0.440847
vt 0.678077 0.317723
vt 0.673792 0.317212
vt 0.972095 0.432592
vt 0.648560 0.317109
vt 0.960422 0.432592
vt 0.652722 0.315926
vt 0.952167 0.440846
vt 0.656889 0.314731
vt 0.952167 0.452519
vt 0.661183 0.314250
vt 0.960422 0.460774
vt 0.665474 0.314766
vt 0.972095 0.460774
vt 0.669636 0.315994
vt 0.966258 0.446683
vt 0.673294 0.608289
vt 0.677597 0.608405
vt 0.966703 0.482899
vt 0.647690 0.608185
vt 0.651972 0.607996
vt 0.656235 0.607813
vt 0.660493 0.607751
vt 0.664750 0.607847
vt 0.669013 0.608065
vt 0.669376 0.453994
vt 0.673569 0.454805
vt 0.665174 0.453164
vt 0.660857 0.452837
vt 0.656539 0.453129
vt 0.652333 0.453925
vt 0.648136 0.454702
vt 0.677860 0.455138
vt 0.669504 0.380918
vt 0.673668 0.381972
vt 0.665337 0.379819
vt 0.661030 0.379369
vt 0.656721 0.379785
vt 0.652548 0.380849
vt 0.648380 0.381869
vt 0.677956 0.382406
vt 0.981665 0.482899
vt 0.977283 0.493479
vt 0.977283 0.472320
vt 0.966702 0.467937
vt 0.956122 0.472320
vt 0.951741 0.482900
vt 0.956123 0.493479
vt 0.966703 0.497862
vt 0.670468 0.021640
vt 0.674777 0.021658
vt 0.666168 0.021618
vt 0.661871 0.021598
vt 0.657573 0.021583
vt 0.653273 0.021570
vt 0.648965 0.021553
vt 0.679088 0.021680
vt 0.644273 0.317586
vt 0.644090 0.382268
vt 0.643843 0.455000
vt 0.966703 0.497862
vt 0.643386 0.608266
vt 0.644653 0.021540
vt 0.980349 0.440847
vn -0.101226 0.000977 -0.994863
vn -0.101226 0.000977 -0.994863
vn -0.100297 0.034648 -0.994354
vn -0.099781 0.051730 -0.993664
vn -0.763906 0.000977 -0.645327
vn -0.763906 0.000977 -0.645327
vn -0.763732 0.051730 -0.643457
vn -0.764011 0.034648 -0.644273
vn -0.996493 0.000171 0.083683
vn -0.996492 0.000171 0.083683
vn -0.996004 0.026812 0.085184
vn -0.996451 0.005530 0.083990
vn -0.631729 0.000172 0.775189
vn -0.631729 0.000172 0.775189
vn -0.632482 -0.025192 0.774165
vn -0.631919 -0.005090 0.775018
vn 0.101343 0.000990 0.994851
vn 0.101343 0.000990 0.994851
vn 0.100471 -0.044831 0.993929
vn 0.100770 -0.030321 0.994448
vn 0.763830 0.000990 0.645416
vn 0.763830 0.000990 0.645416
vn 0.763820 -0.030321 0.644716
vn 0.763561 -0.044831 0.644177
vn 0.996497 0.000172 -0.083633
vn 0.996497 0.000172 -0.083633
vn 0.996462 -0.005090 -0.083886
vn 0.996077 -0.025192 -0.084831
vn 0.631768 0.000171 -0.775157
vn 0.631769 0.000171 -0.775157
vn 0.631999 0.005530 -0.774950
vn 0.632732 0.026812 -0.773906
vn 0.000000 -1.000000 0.000000
vn 0.000000 -1.000000 0.000000
vn 0.000000 -1.000000 0.000000
vn 0.000000 -1.000000 0.000000
vn 0.000000 -1.000000 0.000000
vn 0.000000 -1.000000 0.000000
vn 0.000000 -1.000000 0.000000
vn 0.000000 -1.000000 0.000000
vn 0.000000 -1.000000 0.000000
vn 0.419650 0.436912 0.795614
vn 0.419650 0.436922 0.795608
vn 0.419650 0.436926 0.795606
vn 0.419656 0.436912 0.795611
vn 0.419650 0.436922 0.795609
vn 0.419648 0.436934 0.795603
vn 0.419650 0.436932 0.795603
vn 0.419648 0.436934 0.795603
vn 0.419650 0.436922 0.795609
vn 0.726563 0.327268 -0.604153
vn 0.693307 0.277134 -0.665224
vn 0.733363 0.338305 -0.589684
vn 0.733363 0.338305 -0.589685
vn 0.908811 -0.327363 -0.258642
vn 0.940623 -0.276854 -0.196418
vn 0.900788 -0.338306 -0.272269
vn 0.900788 -0.338306 -0.272269
vn 0.584785 -0.760313 0.282756
vn 0.602521 -0.732632 0.316575
vn 0.540213 -0.816296 0.204525
vn 0.540213 -0.816296 0.204525
vn -0.078963 -0.732632 0.676029
vn -0.096859 -0.760313 0.642294
vn -0.136255 -0.816296 0.561334
vn -0.136255 -0.816296 0.561334
vn -0.693261 -0.276854 0.665388
vn -0.726651 -0.327363 0.603997
vn -0.733367 -0.338306 0.589680
vn -0.733367 -0.338306 0.589680
vn -0.940513 0.277134 0.196548
vn -0.908891 0.327268 0.258481
vn -0.900790 0.338305 0.272263
vn -0.900790 0.338305 0.272263
vn -0.602849 0.731905 -0.317629
vn -0.585344 0.759391 -0.284071
vn -0.540229 0.816280 -0.204549
vn -0.540229 0.816280 -0.204549
vn 0.096089 0.759391 -0.643499
vn 0.078279 0.731905 -0.676895
vn 0.136244 0.816280 -0.561360
vn 0.136244 0.816280 -0.561360
vn 0.662508 0.220039 -0.716007
vn 0.639885 0.121099 -0.758869
vn 0.965599 -0.218440 -0.141079
vn 0.987996 -0.119013 -0.098489
vn 0.713266 -0.438724 0.546601
vn 0.729099 -0.369024 0.576399
vn 0.063994 -0.369024 0.927214
vn 0.048343 -0.438724 0.897321
vn -0.639190 -0.119013 0.759784
vn -0.661693 -0.218440 0.717249
vn -0.987633 0.121099 0.099579
vn -0.965034 0.220038 0.142454
vn -0.727266 0.380894 -0.570968
vn -0.711000 0.449796 -0.540520
vn -0.044603 0.449796 -0.892017
vn -0.060547 0.380894 -0.922634
s 1
g pasted__Cattail_Stalk_Medium Right_Cattail_Medium
usemtl lambert4SG
f 129/270/321 130/276/322 170/221/323 163/222/324
s 2
f 130/282/325 131/275/326 169/224/327 170/277/328
s 3
f 131/275/329 132/274/330 168/226/331 169/224/332
s 4
f 132/274/333 133/273/334 167/228/335 168/226/336
s 5
f 133/273/337 134/272/338 166/230/339 167/228/340
s 6
f 134/272/341 135/271/342 165/232/343 166/230/344
s 7
f 135/271/345 136/269/346 164/234/347 165/232/348
s 8
f 136/269/349 129/270/350 163/222/351 164/234/352
s 9
f 130/220/353 129/219/354 145/235/355
f 131/223/356 130/283/353 145/235/355
f 132/225/357 131/223/356 145/235/355
f 133/227/358 132/225/357 145/235/355
f 134/229/359 133/227/358 145/235/355
f 135/231/360 134/229/359 145/235/355
f 136/233/361 135/231/360 145/235/355
f 129/219/354 136/233/361 145/235/355
s 10
f 137/262/362 138/268/363 146/238/364
f 138/280/363 139/267/365 146/238/364
f 139/267/365 140/266/366 146/238/364
f 140/266/366 141/265/367 146/238/364
f 141/265/367 142/264/368 146/238/364
f 142/264/368 143/263/369 146/238/364
f 143/263/369 144/261/370 146/238/364
f 144/261/370 137/262/362 146/238/364
s 8
f 148/245/371 147/246/372 137/236/373 144/244/374
s 7
f 149/247/375 148/245/376 144/244/377 143/243/378
s 6
f 150/248/379 149/247/380 143/243/381 142/242/382
s 5
f 151/249/383 150/248/384 142/242/385 141/241/386
s 4
f 152/250/387 151/249/388 141/241/389 140/240/390
s 3
f 153/251/391 152/250/392 140/240/393 139/239/394
s 2
f 154/279/395 153/251/396 139/239/397 138/281/398
s 1
f 147/246/399 154/252/400 138/237/401 137/236/402
s 8
f 156/253/403 155/254/404 147/246/372 148/245/371
s 7
f 157/255/405 156/253/406 148/245/376 149/247/375
s 6
f 158/256/407 157/255/408 149/247/380 150/248/379
s 5
f 159/257/409 158/256/410 150/248/384 151/249/383
s 4
f 160/258/411 159/257/412 151/249/388 152/250/387
s 3
f 161/259/413 160/258/414 152/250/392 153/251/391
s 2
f 162/278/415 161/259/416 153/251/396 154/279/395
s 1
f 155/254/417 162/260/418 154/252/400 147/246/399
s 8
f 164/234/352 163/222/351 155/254/404 156/253/403
s 7
f 165/232/348 164/234/347 156/253/406 157/255/405
s 6
f 166/230/344 165/232/343 157/255/408 158/256/407
s 5
f 167/228/340 166/230/339 158/256/410 159/257/409
s 4
f 168/226/336 167/228/335 159/257/412 160/258/411
s 3
f 169/224/332 168/226/331 160/258/414 161/259/413
s 2
f 170/277/328 169/224/327 161/259/416 162/278/415
s 1
f 163/222/324 170/221/323 162/260/418 155/254/417
g default
v 25.554735 4.138250 -2.833940
v 25.397749 4.233964 -2.810054
v 25.233754 4.233964 -2.723553
v 25.125391 4.138250 -2.607478
v 25.114055 3.983383 -2.506166
v 25.204071 3.828515 -2.458312
v 25.361059 3.732801 -2.482198
v 25.525055 3.732801 -2.568699
v 25.633415 3.828515 -2.684773
v 25.644753 3.983383 -2.786087
v 26.210319 4.903356 -1.591029
v 26.053333 4.999070 -1.567145
v 25.889337 4.999069 -1.480644
v 25.780975 4.903356 -1.364567
v 25.769638 4.748488 -1.263255
v 25.859654 4.593620 -1.215402
v 26.016642 4.497907 -1.239288
v 26.180638 4.497907 -1.325788
v 26.288998 4.593620 -1.441863
v 26.300337 4.748488 -1.543177
v 25.379403 3.983383 -2.646126
v 26.034986 4.748488 -1.403216
vt 0.383071 0.524591
vt 0.385969 0.524591
vt 0.367528 0.524140
vt 0.370411 0.524140
vt 0.388314 0.522888
vt 0.365196 0.522445
vt 0.389209 0.520132
vt 0.364305 0.519703
vt 0.388313 0.517376
vt 0.365196 0.516961
vt 0.385969 0.515673
vt 0.367528 0.515266
vt 0.383072 0.515673
vt 0.370411 0.515266
vt 0.380727 0.517376
vt 0.372743 0.516961
vt 0.379832 0.520132
vt 0.373634 0.519703
vt 0.380727 0.522888
vt 0.372743 0.522445
vt 0.384520 0.520132
vt 0.368969 0.519703
vt 0.379572 0.582973
vt 0.385724 0.582973
vt 0.373420 0.582973
vt 0.367268 0.582973
vt 0.361116 0.582973
vt 0.354964 0.582973
vt 0.348812 0.582973
vt 0.342660 0.582973
vt 0.336508 0.582973
vt 0.330356 0.582973
vt 0.379572 0.529885
vt 0.385723 0.529885
vt 0.373420 0.529885
vt 0.367268 0.529885
vt 0.361116 0.529885
vt 0.354964 0.529885
vt 0.348812 0.529885
vt 0.342660 0.529885
vt 0.336508 0.529885
vt 0.391875 0.529885
vt 0.330356 0.529885
vt 0.391875 0.582973
vn 0.339417 0.710520 -0.616407
vn 0.339417 0.710520 -0.616407
vn 0.339417 0.710520 -0.616407
vn 0.339417 0.710520 -0.616407
vn -0.223095 0.878256 -0.422960
vn -0.223095 0.878256 -0.422960
vn -0.223095 0.878256 -0.422960
vn -0.223095 0.878256 -0.422960
vn -0.700384 0.710524 -0.067958
vn -0.700384 0.710524 -0.067958
vn -0.700384 0.710524 -0.067958
vn -0.700384 0.710524 -0.067958
vn -0.910151 0.271391 0.313005
vn -0.910151 0.271391 0.313005
vn -0.910151 0.271391 0.313005
vn -0.910151 0.271391 0.313005
vn -0.772274 -0.271391 0.574404
vn -0.772274 -0.271391 0.574404
vn -0.772274 -0.271391 0.574404
vn -0.772274 -0.271391 0.574404
vn -0.339411 -0.710523 0.616406
vn -0.339411 -0.710523 0.616406
vn -0.339411 -0.710523 0.616406
vn -0.339411 -0.710523 0.616406
vn 0.223095 -0.878256 0.422960
vn 0.223095 -0.878256 0.422960
vn 0.223095 -0.878256 0.422960
vn 0.223095 -0.878256 0.422960
vn 0.700388 -0.710520 0.067953
vn 0.700388 -0.710520 0.067953
vn 0.700388 -0.710520 0.067953
vn 0.700388 -0.710520 0.067953
vn 0.910150 -0.271401 -0.312999
vn 0.910150 -0.271401 -0.312999
vn 0.910150 -0.271401 -0.312999
vn 0.910150 -0.271401 -0.312999
vn 0.772268 0.271401 -0.574407
vn 0.772268 0.271401 -0.574407
vn 0.772268 0.271400 -0.574407
vn 0.772268 0.271401 -0.574407
vn -0.409741 -0.478188 -0.776819
vn -0.409741 -0.478189 -0.776819
vn -0.409739 -0.478191 -0.776818
vn -0.409739 -0.478188 -0.776821
vn -0.409739 -0.478189 -0.776820
vn -0.409739 -0.478193 -0.776818
vn -0.409739 -0.478193 -0.776817
vn -0.409740 -0.478193 -0.776817
vn -0.409738 -0.478193 -0.776818
vn -0.409738 -0.478194 -0.776818
vn -0.409739 -0.478193 -0.776818
vn 0.409738 0.478189 0.776820
vn 0.409738 0.478191 0.776819
vn 0.409739 0.478191 0.776819
vn 0.409741 0.478191 0.776817
vn 0.409742 0.478189 0.776818
vn 0.409740 0.478189 0.776820
vn 0.409739 0.478191 0.776819
vn 0.409738 0.478191 0.776819
vn 0.409738 0.478193 0.776818
vn 0.409740 0.478192 0.776817
vn 0.409740 0.478189 0.776820
s off
g Right_Cattail_Medium pasted__Cattail_Medium
usemtl lambert4SG
f 171/317/419 172/325/420 182/327/421 181/307/422
f 172/326/423 173/324/424 183/314/425 182/315/426
f 173/324/427 174/323/428 184/313/429 183/314/430
f 174/323/431 175/322/432 185/312/433 184/313/434
f 175/322/435 176/321/436 186/311/437 185/312/438
f 176/321/439 177/320/440 187/310/441 186/311/442
f 177/320/443 178/319/444 188/309/445 187/310/446
f 178/319/447 179/318/448 189/308/449 188/309/450
f 179/318/451 180/316/452 190/306/453 189/308/454
f 180/316/455 171/317/456 181/307/457 190/306/458
s 1
f 172/285/459 171/284/460 191/304/461
f 173/288/462 172/285/459 191/304/461
f 174/290/463 173/288/462 191/304/461
f 175/292/464 174/290/463 191/304/461
f 176/294/465 175/292/464 191/304/461
f 177/296/466 176/294/465 191/304/461
f 178/298/467 177/296/466 191/304/461
f 179/300/468 178/298/467 191/304/461
f 180/302/469 179/300/468 191/304/461
f 171/284/460 180/302/469 191/304/461
s 2
f 181/287/470 182/286/471 192/305/472
f 182/286/471 183/289/473 192/305/472
f 183/289/473 184/291/474 192/305/472
f 184/291/474 185/293/475 192/305/472
f 185/293/475 186/295/476 192/305/472
f 186/295/476 187/297/477 192/305/472
f 187/297/477 188/299/478 192/305/472
f 188/299/478 189/301/479 192/305/472
f 189/301/479 190/303/480 192/305/472
f 190/303/480 181/287/470 192/305/472
g default
v 27.158518 -1.559290 -1.534370
v 27.107640 -1.559290 -1.477191
v 27.112093 -1.559290 -1.400783
v 27.169271 -1.559290 -1.349906
v 27.245677 -1.559290 -1.354358
v 27.296556 -1.559290 -1.411537
v 27.292103 -1.559290 -1.487946
v 27.234925 -1.559290 -1.538823
v 29.712522 5.125478 -0.646778
v 29.677220 5.151824 -0.584186
v 29.666097 5.125478 -0.513191
v 29.685664 5.061874 -0.475385
v 29.724462 4.998270 -0.492907
v 29.759763 4.971924 -0.555500
v 29.770888 4.998270 -0.626494
v 29.751318 5.061874 -0.664301
v 27.202098 -1.559290 -1.444364
v 29.718491 5.061874 -0.569843
v 27.966737 4.145182 -1.253490
v 28.010345 4.084315 -1.269341
v 28.034724 4.023447 -1.229863
v 28.025593 3.998235 -1.158175
v 27.988299 4.023447 -1.096275
v 27.944691 4.084315 -1.080424
v 27.920311 4.145182 -1.119903
v 27.929443 4.170395 -1.191590
v 27.373306 3.326174 -1.459725
v 27.436548 3.284022 -1.468752
v 27.480561 3.241871 -1.422451
v 27.479562 3.224411 -1.347937
v 27.434136 3.241871 -1.288863
v 27.370894 3.284022 -1.279836
v 27.326881 3.326174 -1.326138
v 27.327880 3.343634 -1.400651
v 27.161824 2.446051 -1.533221
v 27.234925 2.424082 -1.538823
v 27.288797 2.402113 -1.489094
v 27.291882 2.393014 -1.413162
v 27.242372 2.402113 -1.355507
v 27.169271 2.424082 -1.349906
v 27.115399 2.446051 -1.399634
v 27.112314 2.455150 -1.475567
vt 0.981333 0.375432
vt 0.981333 0.363758
vt 0.726897 0.317973
vt 0.722611 0.317462
vt 0.973079 0.355504
vt 0.697380 0.317359
vt 0.961406 0.355504
vt 0.701542 0.316175
vt 0.953151 0.363758
vt 0.705709 0.314980
vt 0.953151 0.375431
vt 0.710002 0.314500
vt 0.961405 0.383686
vt 0.714294 0.315015
vt 0.973078 0.383685
vt 0.718455 0.316244
vt 0.967242 0.369595
vt 0.722113 0.608539
vt 0.726417 0.608654
vt 0.967079 0.408614
vt 0.696509 0.608435
vt 0.700792 0.608245
vt 0.705055 0.608062
vt 0.709312 0.608000
vt 0.713570 0.608097
vt 0.717832 0.608315
vt 0.718195 0.454243
vt 0.722389 0.455055
vt 0.713994 0.453414
vt 0.709677 0.453087
vt 0.705359 0.453379
vt 0.701153 0.454174
vt 0.696955 0.454952
vt 0.726680 0.455388
vt 0.718324 0.381168
vt 0.722487 0.382221
vt 0.714157 0.380069
vt 0.709849 0.379619
vt 0.705541 0.380034
vt 0.701368 0.381099
vt 0.697200 0.382119
vt 0.726776 0.382655
vt 0.982041 0.408614
vt 0.977659 0.419194
vt 0.977659 0.398034
vt 0.967079 0.393652
vt 0.956499 0.398034
vt 0.952117 0.408614
vt 0.956499 0.419194
vt 0.967079 0.423576
vt 0.719288 0.021889
vt 0.723597 0.021908
vt 0.714988 0.021868
vt 0.710690 0.021848
vt 0.706393 0.021833
vt 0.702093 0.021819
vt 0.697784 0.021803
vt 0.727908 0.021930
vt 0.693092 0.317835
vt 0.692909 0.382518
vt 0.692663 0.455249
vt 0.967079 0.423576
vt 0.692206 0.608516
vt 0.693473 0.021790
vt 0.981333 0.363758
vn -0.752830 0.000977 -0.658215
vn -0.752830 0.000977 -0.658215
vn -0.751803 0.034648 -0.658477
vn -0.750956 0.051730 -0.658324
vn -0.998775 0.000977 0.049480
vn -0.998775 0.000977 0.049480
vn -0.997372 0.051730 0.050728
vn -0.998132 0.034648 0.050322
vn -0.671376 0.000171 0.741117
vn -0.671376 0.000171 0.741117
vn -0.669995 0.026812 0.741882
vn -0.671136 0.005530 0.741313
vn 0.067119 0.000172 0.997745
vn 0.067119 0.000172 0.997745
vn 0.065871 -0.025192 0.997510
vn 0.066863 -0.005090 0.997749
vn 0.752907 0.000990 0.658126
vn 0.752907 0.000990 0.658126
vn 0.751641 -0.044831 0.658047
vn 0.752213 -0.030321 0.658222
vn 0.998780 0.000990 -0.049363
vn 0.998780 0.000990 -0.049363
vn 0.998295 -0.030321 -0.049868
vn 0.997738 -0.044831 -0.050086
vn 0.671413 0.000172 -0.741083
vn 0.671413 0.000172 -0.741083
vn 0.671216 -0.005090 -0.741245
vn 0.670288 -0.025192 -0.741673
vn -0.067069 0.000171 -0.997748
vn -0.067069 0.000171 -0.997748
vn -0.066759 0.005530 -0.997754
vn -0.065511 0.026812 -0.997492
vn 0.000000 -1.000000 0.000000
vn 0.000000 -1.000000 0.000000
vn 0.000000 -1.000000 0.000000
vn 0.000000 -1.000000 0.000000
vn 0.000000 -1.000000 0.000000
vn 0.000000 -1.000000 0.000000
vn 0.000000 -1.000000 0.000000
vn 0.000000 -1.000000 0.000000
vn 0.000000 -1.000000 0.000000
vn 0.849656 0.436912 0.295284
vn 0.849652 0.436922 0.295279
vn 0.849651 0.436926 0.295278
vn 0.849658 0.436912 0.295278
vn 0.849653 0.436922 0.295280
vn 0.849647 0.436934 0.295277
vn 0.849648 0.436932 0.295276
vn 0.849647 0.436934 0.295277
vn 0.849653 0.436922 0.295280
vn 0.118912 0.327269 -0.937420
vn 0.052929 0.277134 -0.959372
vn 0.133756 0.338305 -0.931482
vn 0.133756 0.338305 -0.931482
vn 0.487897 -0.327363 -0.809191
vn 0.553610 -0.276854 -0.785409
vn 0.472733 -0.338306 -0.813678
vn 0.472733 -0.338306 -0.813678
vn 0.620435 -0.760313 -0.192313
vn 0.656476 -0.732632 -0.179692
vn 0.534472 -0.816296 -0.219091
vn 0.534472 -0.816296 -0.219091
vn 0.403553 -0.732632 0.548084
vn 0.367452 -0.760313 0.535633
vn 0.283410 -0.816296 0.503329
vn 0.283410 -0.816296 0.503329
vn -0.052784 -0.276854 0.959461
vn -0.119083 -0.327363 0.937365
vn -0.133762 -0.338306 0.931481
vn -0.133762 -0.338306 0.931481
vn -0.553441 0.277134 0.785430
vn -0.488065 0.327268 0.809128
vn -0.472739 0.338305 0.813676
vn -0.472739 0.338305 0.813676
vn -0.657436 0.731905 0.179145
vn -0.621742 0.759391 0.191733
vn -0.534500 0.816280 0.219084
vn -0.534500 0.816280 0.219084
vn -0.368837 0.759391 -0.535989
vn -0.404644 0.731905 -0.548250
vn -0.283436 0.816280 -0.503341
vn -0.283436 0.816280 -0.503341
vn -0.004236 0.220039 -0.975482
vn -0.050022 0.121099 -0.991379
vn 0.609628 -0.218440 -0.761996
vn 0.655062 -0.119013 -0.746143
vn 0.894391 -0.438724 -0.087099
vn 0.926298 -0.369024 -0.076119
vn 0.679453 -0.369024 0.634165
vn 0.647614 -0.438724 0.622991
vn 0.051154 -0.119013 0.991574
vn 0.005680 -0.218440 0.975834
vn -0.654053 0.121099 0.746692
vn -0.608277 0.220038 0.762616
vn -0.921252 0.380894 0.078838
vn -0.888585 0.449796 0.089998
vn -0.641261 0.449796 -0.621665
vn -0.673808 0.380894 -0.633169
s 1
g pasted__Cattail_Stalk_Medium Right_Cattail_Medium1
usemtl lambert4SG
f 193/379/481 194/385/482 234/330/483 227/331/484
s 2
f 194/391/485 195/384/486 233/333/487 234/386/488
s 3
f 195/384/489 196/383/490 232/335/491 233/333/492
s 4
f 196/383/493 197/382/494 231/337/495 232/335/496
s 5
f 197/382/497 198/381/498 230/339/499 231/337/500
s 6
f 198/381/501 199/380/502 229/341/503 230/339/504
s 7
f 199/380/505 200/378/506 228/343/507 229/341/508
s 8
f 200/378/509 193/379/510 227/331/511 228/343/512
s 9
f 194/329/513 193/328/514 209/344/515
f 195/332/516 194/392/513 209/344/515
f 196/334/517 195/332/516 209/344/515
f 197/336/518 196/334/517 209/344/515
f 198/338/519 197/336/518 209/344/515
f 199/340/520 198/338/519 209/344/515
f 200/342/521 199/340/520 209/344/515
f 193/328/514 200/342/521 209/344/515
s 10
f 201/371/522 202/377/523 210/347/524
f 202/389/523 203/376/525 210/347/524
f 203/376/525 204/375/526 210/347/524
f 204/375/526 205/374/527 210/347/524
f 205/374/527 206/373/528 210/347/524
f 206/373/528 207/372/529 210/347/524
f 207/372/529 208/370/530 210/347/524
f 208/370/530 201/371/522 210/347/524
s 8
f 212/354/531 211/355/532 201/345/533 208/353/534
s 7
f 213/356/535 212/354/536 208/353/537 207/352/538
s 6
f 214/357/539 213/356/540 207/352/541 206/351/542
s 5
f 215/358/543 214/357/544 206/351/545 205/350/546
s 4
f 216/359/547 215/358/548 205/350/549 204/349/550
s 3
f 217/360/551 216/359/552 204/349/553 203/348/554
s 2
f 218/388/555 217/360/556 203/348/557 202/390/558
s 1
f 211/355/559 218/361/560 202/346/561 201/345/562
s 8
f 220/362/563 219/363/564 211/355/532 212/354/531
s 7
f 221/364/565 220/362/566 212/354/536 213/356/535
s 6
f 222/365/567 221/364/568 213/356/540 214/357/539
s 5
f 223/366/569 222/365/570 214/357/544 215/358/543
s 4
f 224/367/571 223/366/572 215/358/548 216/359/547
s 3
f 225/368/573 224/367/574 216/359/552 217/360/551
s 2
f 226/387/575 225/368/576 217/360/556 218/388/555
s 1
f 219/363/577 226/369/578 218/361/560 211/355/559
s 8
f 228/343/512 227/331/511 219/363/564 220/362/563
s 7
f 229/341/508 228/343/507 220/362/566 221/364/565
s 6
f 230/339/504 229/341/503 221/364/568 222/365/567
s 5
f 231/337/500 230/339/499 222/365/570 223/366/569
s 4
f 232/335/496 231/337/495 223/366/572 224/367/571
s 3
f 233/333/492 232/335/491 224/367/574 225/368/573
s 2
f 234/386/488 233/333/487 225/368/576 226/387/575
s 1
f 227/331/484 234/330/483 226/369/578 219/363/577
g default
v 28.200008 4.369175 -1.354504
v 28.101543 4.464889 -1.229925
v 28.040678 4.464889 -1.054790
v 28.040663 4.369175 -0.895995
v 28.101505 4.214308 -0.814196
v 28.199962 4.059440 -0.840634
v 28.298429 3.963726 -0.965214
v 28.359294 3.963726 -1.140349
v 28.359308 4.059440 -1.299142
v 28.298466 4.214308 -1.380944
v 29.527348 5.134281 -0.893214
v 29.428881 5.229995 -0.768636
v 29.368016 5.229994 -0.593501
v 29.368002 5.134281 -0.434705
v 29.428843 4.979413 -0.352906
v 29.527300 4.824545 -0.379345
v 29.625767 4.728832 -0.503925
v 29.686632 4.728832 -0.679060
v 29.686645 4.824545 -0.837853
v 29.625805 4.979413 -0.919654
v 28.199985 4.214308 -1.097569
v 29.527324 4.979413 -0.636279
vt 0.489162 0.526182
vt 0.492060 0.526182
vt 0.473619 0.525730
vt 0.476501 0.525730
vt 0.494404 0.524479
vt 0.471286 0.524036
vt 0.495299 0.521723
vt 0.470395 0.521294
vt 0.494404 0.518967
vt 0.471286 0.518552
vt 0.492059 0.517264
vt 0.473619 0.516857
vt 0.489162 0.517264
vt 0.476501 0.516857
vt 0.486817 0.518967
vt 0.478834 0.518552
vt 0.485922 0.521723
vt 0.479725 0.521294
vt 0.486818 0.524479
vt 0.478834 0.524036
vt 0.490611 0.521723
vt 0.475060 0.521294
vt 0.485662 0.584564
vt 0.491814 0.584564
vt 0.479510 0.584564
vt 0.473358 0.584564
vt 0.467206 0.584564
vt 0.461055 0.584564
vt 0.454903 0.584564
vt 0.448751 0.584564
vt 0.442599 0.584564
vt 0.436447 0.584564
vt 0.485662 0.531476
vt 0.491814 0.531476
vt 0.479510 0.531476
vt 0.473358 0.531476
vt 0.467206 0.531476
vt 0.461055 0.531476
vt 0.454903 0.531476
vt 0.448751 0.531476
vt 0.442598 0.531476
vt 0.497966 0.531476
vt 0.436447 0.531476
vt 0.497966 0.584564
vn -0.172468 0.710520 -0.682214
vn -0.172468 0.710520 -0.682214
vn -0.172468 0.710520 -0.682214
vn -0.172468 0.710520 -0.682214
vn -0.451691 0.878256 -0.156975
vn -0.451691 0.878256 -0.156975
vn -0.451691 0.878256 -0.156975
vn -0.451691 0.878256 -0.156975
vn -0.558378 0.710524 0.428217
vn -0.558378 0.710524 0.428217
vn -0.558379 0.710524 0.428217
vn -0.558378 0.710524 0.428217
vn -0.451782 0.271391 0.849847
vn -0.451782 0.271391 0.849847
vn -0.451782 0.271391 0.849847
vn -0.451782 0.271391 0.849847
vn -0.172627 -0.271391 0.946861
vn -0.172627 -0.271391 0.946862
vn -0.172627 -0.271391 0.946862
vn -0.172627 -0.271391 0.946862
vn 0.172472 -0.710523 0.682209
vn 0.172472 -0.710523 0.682209
vn 0.172472 -0.710523 0.682209
vn 0.172472 -0.710523 0.682209
vn 0.451691 -0.878256 0.156975
vn 0.451691 -0.878256 0.156975
vn 0.451692 -0.878256 0.156975
vn 0.451692 -0.878256 0.156975
vn 0.558379 -0.710520 -0.428223
vn 0.558379 -0.710520 -0.428223
vn 0.558379 -0.710520 -0.428223
vn 0.558379 -0.710520 -0.428223
vn 0.451786 -0.271401 -0.849842
vn 0.451786 -0.271401 -0.849842
vn 0.451786 -0.271401 -0.849842
vn 0.451786 -0.271401 -0.849842
vn 0.172621 0.271401 -0.946860
vn 0.172621 0.271400 -0.946860
vn 0.172621 0.271400 -0.946860
vn 0.172621 0.271400 -0.946860
vn -0.829588 -0.478188 -0.288305
vn -0.829587 -0.478189 -0.288305
vn -0.829586 -0.478191 -0.288306
vn -0.829587 -0.478188 -0.288308
vn -0.829587 -0.478189 -0.288307
vn -0.829585 -0.478193 -0.288305
vn -0.829585 -0.478193 -0.288305
vn -0.829585 -0.478193 -0.288305
vn -0.829585 -0.478193 -0.288306
vn -0.829585 -0.478194 -0.288306
vn -0.829585 -0.478193 -0.288305
vn 0.829586 0.478189 0.288308
vn 0.829585 0.478191 0.288308
vn 0.829586 0.478191 0.288306
vn 0.829587 0.478191 0.288304
vn 0.829588 0.478189 0.288304
vn 0.829587 0.478189 0.288306
vn 0.829586 0.478191 0.288306
vn 0.829585 0.478191 0.288308
vn 0.829585 0.478193 0.288306
vn 0.829586 0.478192 0.288304
vn 0.829587 0.478189 0.288306
s off
g Right_Cattail_Medium1 pasted__Cattail_Medium
usemtl lambert4SG
f 235/426/579 236/434/580 246/436/581 245/416/582
f 236/435/583 237/433/584 247/423/585 246/424/586
f 237/433/587 238/432/588 248/422/589 247/423/590
f 238/432/591 239/431/592 249/421/593 248/422/594
f 239/431/595 240/430/596 250/420/597 249/421/598
f 240/430/599 241/429/600 251/419/601 250/420/602
f 241/429/603 242/428/604 252/418/605 251/419/606
f 242/428/607 243/427/608 253/417/609 252/418/610
f 243/427/611 244/425/612 254/415/613 253/417/614
f 244/425/615 235/426/616 245/416/617 254/415/618
s 1
f 236/394/619 235/393/620 255/413/621
f 237/397/622 236/394/619 255/413/621
f 238/399/623 237/397/622 255/413/621
f 239/401/624 238/399/623 255/413/621
f 240/403/625 239/401/624 255/413/621
f 241/405/626 240/403/625 255/413/621
f 242/407/627 241/405/626 255/413/621
f 243/409/628 242/407/627 255/413/621
f 244/411/629 243/409/628 255/413/621
f 235/393/620 244/411/629 255/413/621
s 2
f 245/396/630 246/395/631 256/414/632
f 246/395/631 247/398/633 256/414/632
f 247/398/633 248/400/634 256/414/632
f 248/400/634 249/402/635 256/414/632
f 249/402/635 250/404/636 256/414/632
f 250/404/636 251/406/637 256/414/632
f 251/406/637 252/408/638 256/414/632
f 252/408/638 253/410/639 256/414/632
f 253/410/639 254/412/640 256/414/632
f 254/412/640 245/396/630 256/414/632
g default
v 25.080333 -0.642835 -4.118205
v 25.076257 -0.642835 -4.194634
v 25.019332 -0.642835 -4.245797
v 24.942904 -0.642835 -4.241720
v 24.891743 -0.642835 -4.184797
v 24.895819 -0.642835 -4.108367
v 24.952744 -0.642835 -4.057205
v 25.029171 -0.642835 -4.061282
v 23.096671 7.122320 -3.169825
v 23.085382 7.142430 -3.242806
v 23.035670 7.122320 -3.297417
v 22.976658 7.073768 -3.301666
v 22.942910 7.025217 -3.253069
v 22.954200 7.005106 -3.180088
v 23.003911 7.025217 -3.125477
v 23.062924 7.073768 -3.121228
v 24.986038 -0.642835 -4.151501
v 23.019791 7.073768 -3.211447
v 24.238674 5.497680 -3.794189
v 24.227885 5.517185 -3.867410
v 24.262843 5.564276 -3.916586
v 24.323065 5.611367 -3.912915
v 24.373278 5.630872 -3.858543
v 24.384066 5.611367 -3.785323
v 24.349109 5.564276 -3.736147
v 24.288886 5.517185 -3.739818
v 24.744703 4.295572 -4.036120
v 24.738540 4.306981 -4.111552
v 24.784664 4.334523 -4.166066
v 24.856053 4.362065 -4.167734
v 24.910891 4.373474 -4.115573
v 24.917054 4.362065 -4.040141
v 24.870930 4.334523 -3.985627
v 24.799541 4.306981 -3.983959
v 24.896958 2.934031 -4.108912
v 24.892548 2.938670 -4.185182
v 24.942904 2.949871 -4.241720
v 25.018527 2.961073 -4.245412
v 25.075118 2.965712 -4.194090
v 25.079528 2.961073 -4.117820
v 25.029171 2.949871 -4.061282
v 24.953549 2.938670 -4.057590
vt 0.976406 0.087041
vt 0.964632 0.087041
vt 0.880321 0.319757
vt 0.876401 0.319395
vt 0.956307 0.095367
vt 0.852972 0.318779
vt 0.956307 0.107140
vt 0.856875 0.318257
vt 0.964633 0.115466
vt 0.860779 0.317733
vt 0.976406 0.115466
vt 0.864702 0.317577
vt 0.984731 0.107140
vt 0.868621 0.317940
vt 0.984731 0.095366
vt 0.872511 0.318669
vt 0.970519 0.101254
vt 0.872296 0.709206
vt 0.876219 0.709326
vt 0.970955 0.142042
vt 0.848892 0.708591
vt 0.852803 0.708676
vt 0.856701 0.708766
vt 0.860595 0.708866
vt 0.864488 0.708971
vt 0.868386 0.709086
vt 0.858438 0.539681
vt 0.862373 0.539502
vt 0.854563 0.540289
vt 0.850694 0.540888
vt 0.877929 0.541890
vt 0.874016 0.541501
vt 0.870162 0.540699
vt 0.866301 0.539888
vt 0.859587 0.430342
vt 0.863521 0.430154
vt 0.855716 0.430959
vt 0.851850 0.431560
vt 0.879070 0.432561
vt 0.875156 0.432173
vt 0.871304 0.431369
vt 0.867448 0.430549
vt 0.970955 0.157189
vt 0.960245 0.152753
vt 0.981666 0.152752
vt 0.986101 0.142042
vt 0.981666 0.131331
vt 0.972312 0.126895
vt 0.960245 0.131331
vt 0.955808 0.142042
vt 0.875595 0.027130
vt 0.879522 0.027232
vt 0.871674 0.027026
vt 0.867754 0.026922
vt 0.863834 0.026820
vt 0.859913 0.026717
vt 0.855986 0.026613
vt 0.883449 0.027336
vt 0.849047 0.318934
vt 0.847930 0.431742
vt 0.846775 0.541071
vt 0.955808 0.142042
vt 0.844970 0.708504
vt 0.852059 0.026510
vt 0.964632 0.087041
vn 0.998460 0.000276 -0.055479
vn 0.998460 0.000276 -0.055479
vn 0.998068 0.027323 -0.055795
vn 0.997671 0.039071 -0.055920
vn 0.670114 0.000276 -0.742258
vn 0.670114 0.000276 -0.742258
vn 0.669962 0.039071 -0.741367
vn 0.670114 0.027323 -0.741755
vn -0.051029 0.000048 -0.998697
vn -0.051029 0.000048 -0.998697
vn -0.050372 0.019642 -0.998537
vn -0.050870 0.004839 -0.998694
vn -0.745242 0.000048 -0.666794
vn -0.745242 0.000048 -0.666794
vn -0.745581 -0.019123 -0.666141
vn -0.745351 -0.004681 -0.666656
vn -0.998459 0.000278 0.055496
vn -0.998459 0.000278 0.055496
vn -0.997754 -0.036642 0.056070
vn -0.998107 -0.025638 0.055907
vn -0.670126 0.000278 0.742247
vn -0.670126 0.000278 0.742247
vn -0.670225 -0.025638 0.741715
vn -0.670131 -0.036642 0.741338
vn 0.051022 0.000048 0.998698
vn 0.051022 0.000048 0.998698
vn 0.050846 -0.004681 0.998695
vn 0.050301 -0.019123 0.998551
vn 0.745237 0.000048 0.666800
vn 0.745237 0.000048 0.666800
vn 0.745334 0.004839 0.666674
vn 0.745525 0.019642 0.666188
vn 0.000000 -1.000000 0.000000
vn 0.000000 -1.000000 0.000000
vn 0.000000 -1.000000 0.000000
vn 0.000000 -1.000000 0.000000
vn 0.000000 -1.000000 0.000000
vn 0.000000 -1.000000 0.000000
vn 0.000000 -1.000000 0.000000
vn 0.000000 -1.000000 0.000000
vn 0.000000 -1.000000 0.000000
vn -0.619465 0.727015 0.296161
vn -0.619462 0.727018 0.296162
vn -0.619463 0.727017 0.296162
vn -0.619463 0.727015 0.296165
vn -0.619463 0.727016 0.296163
vn -0.619461 0.727018 0.296162
vn -0.619463 0.727018 0.296160
vn -0.619462 0.727018 0.296160
vn -0.619463 0.727016 0.296163
vn -0.852339 -0.522698 -0.017474
vn -0.823664 -0.566181 -0.031876
vn -0.771022 -0.634388 -0.055463
vn -0.771022 -0.634388 -0.055463
vn -0.701132 -0.188402 -0.687690
vn -0.657295 -0.252245 -0.710166
vn -0.649525 -0.262791 -0.713483
vn -0.649525 -0.262791 -0.713483
vn -0.095092 0.188663 -0.977427
vn -0.139932 0.252168 -0.957513
vn -0.147455 0.262788 -0.953519
vn -0.147455 0.262788 -0.953519
vn 0.521930 0.522274 -0.674402
vn 0.492960 0.565406 -0.661292
vn 0.440974 0.634364 -0.634920
vn 0.440974 0.634364 -0.634920
vn 0.824209 0.565406 0.031560
vn 0.852603 0.522274 0.017244
vn 0.771042 0.634364 0.055461
vn 0.771042 0.634364 0.055460
vn 0.657361 0.252168 0.710132
vn 0.701016 0.188663 0.687738
vn 0.649529 0.262788 0.713480
vn 0.649529 0.262788 0.713480
vn 0.140000 -0.252245 0.957482
vn 0.094982 -0.188402 0.977488
vn 0.147460 -0.262791 0.953518
vn 0.147460 -0.262791 0.953518
vn -0.492372 -0.566181 0.661066
vn -0.521585 -0.522698 0.674340
vn -0.440960 -0.634388 0.634906
vn -0.440960 -0.634388 0.634906
vn -0.974158 -0.221395 0.044738
vn -0.957595 -0.285739 0.036937
vn -0.742182 -0.064258 -0.667110
vn -0.720782 -0.147963 -0.677185
vn -0.053419 0.065025 -0.996453
vn -0.074867 0.148784 -0.986032
vn 0.645174 0.226381 -0.729727
vn 0.628346 0.290804 -0.721536
vn 0.956106 0.290804 -0.035982
vn 0.973047 0.226381 -0.043937
vn 0.720412 0.148784 0.677400
vn 0.741990 0.065025 0.667250
vn 0.074468 -0.147963 0.986185
vn 0.053189 -0.064258 0.996515
vn -0.630024 -0.285739 0.722096
vn -0.646495 -0.221395 0.730088
s 1
g pasted__Cattail_Stalk_Tall Right_Cattail_Tall
usemtl lambert4SG
f 257/488/641 258/494/642 295/439/643 296/440/644
s 2
f 258/500/645 259/493/646 294/442/647 295/495/648
s 3
f 259/493/649 260/492/650 293/444/651 294/442/652
s 4
f 260/492/653 261/491/654 292/446/655 293/444/656
s 5
f 261/491/657 262/490/658 291/448/659 292/446/660
s 6
f 262/490/661 263/489/662 298/450/663 291/448/664
s 7
f 263/489/665 264/487/666 297/452/667 298/450/668
s 8
f 264/487/669 257/488/670 296/440/671 297/452/672
s 9
f 258/438/673 257/437/674 273/453/675
f 259/441/676 258/501/673 273/453/675
f 260/443/677 259/441/676 273/453/675
f 261/445/678 260/443/677 273/453/675
f 262/447/679 261/445/678 273/453/675
f 263/449/680 262/447/679 273/453/675
f 264/451/681 263/449/680 273/453/675
f 257/437/674 264/451/681 273/453/675
s 10
f 265/480/682 266/486/683 274/456/684
f 266/498/683 267/485/685 274/456/684
f 267/485/685 268/484/686 274/456/684
f 268/484/686 269/483/687 274/456/684
f 269/483/687 270/482/688 274/456/684
f 270/482/688 271/481/689 274/456/684
f 271/481/689 272/479/690 274/456/684
f 272/479/690 265/480/682 274/456/684
s 5
f 276/463/691 275/464/692 270/460/693 269/459/694
s 4
f 277/465/695 276/463/696 269/459/697 268/458/698
s 3
f 278/466/699 277/465/700 268/458/701 267/457/702
s 2
f 279/497/703 278/466/704 267/457/705 266/499/706
s 1
f 280/468/707 279/467/708 266/455/709 265/454/710
s 8
f 281/469/711 280/468/712 265/454/713 272/462/714
s 7
f 282/470/715 281/469/716 272/462/717 271/461/718
s 6
f 275/464/719 282/470/720 271/461/721 270/460/722
s 5
f 284/471/723 283/472/724 275/464/692 276/463/691
s 4
f 285/473/725 284/471/726 276/463/696 277/465/695
s 3
f 286/474/727 285/473/728 277/465/700 278/466/699
s 2
f 287/496/729 286/474/730 278/466/704 279/497/703
s 1
f 288/476/731 287/475/732 279/467/708 280/468/707
s 8
f 289/477/733 288/476/734 280/468/712 281/469/711
s 7
f 290/478/735 289/477/736 281/469/716 282/470/715
s 6
f 283/472/737 290/478/738 282/470/720 275/464/719
s 5
f 292/446/660 291/448/659 283/472/724 284/471/723
s 4
f 293/444/656 292/446/655 284/471/726 285/473/725
s 3
f 294/442/652 293/444/651 285/473/728 286/474/727
s 2
f 295/495/648 294/442/647 286/474/730 287/496/729
s 1
f 296/440/644 295/439/643 287/475/732 288/476/731
s 8
f 297/452/672 296/440/671 288/476/734 289/477/733
s 7
f 298/450/668 297/452/667 289/477/736 290/478/735
s 6
f 291/448/664 298/450/663 290/478/738 283/472/737
g default
v 24.346155 5.892004 -3.576560
v 24.353398 5.966289 -3.746282
v 24.273424 5.966289 -3.913557
v 24.136782 5.892004 -4.014491
v 23.995665 5.771808 -4.010529
v 23.903973 5.651613 -3.903186
v 23.896731 5.577327 -3.733462
v 23.976705 5.577327 -3.566187
v 24.113346 5.651613 -3.465255
v 24.254464 5.771808 -3.469215
v 23.362214 7.062718 -3.106142
v 23.369458 7.137002 -3.275865
v 23.289484 7.137002 -3.443140
v 23.152841 7.062718 -3.544074
v 23.011724 6.942522 -3.540111
v 22.920032 6.822326 -3.432769
v 22.912791 6.748040 -3.263045
v 22.992765 6.748041 -3.095769
v 23.129405 6.822326 -2.994837
v 23.270523 6.942522 -2.998798
v 24.125064 5.771808 -3.739873
v 23.141123 6.942522 -3.269456
vt 0.384424 0.440638
vt 0.387321 0.440638
vt 0.375866 0.436155
vt 0.375028 0.433376
vt 0.389665 0.438935
vt 0.374911 0.438896
vt 0.390561 0.436179
vt 0.372527 0.440552
vt 0.389665 0.433424
vt 0.369626 0.440490
vt 0.387321 0.431721
vt 0.367315 0.438735
vt 0.384424 0.431721
vt 0.366476 0.435956
vt 0.382080 0.433424
vt 0.367431 0.433216
vt 0.381185 0.436180
vt 0.369815 0.431560
vt 0.382080 0.438935
vt 0.372716 0.431621
vt 0.385873 0.436179
vt 0.371171 0.436056
vt 0.381120 0.498729
vt 0.387320 0.498729
vt 0.374921 0.498729
vt 0.368722 0.498729
vt 0.362523 0.498729
vt 0.356324 0.498729
vt 0.350124 0.498729
vt 0.343925 0.498729
vt 0.337726 0.498729
vt 0.331527 0.498729
vt 0.381120 0.445233
vt 0.387319 0.445233
vt 0.374921 0.445233
vt 0.368722 0.445233
vt 0.362523 0.445233
vt 0.356323 0.445233
vt 0.350124 0.445233
vt 0.343925 0.445233
vt 0.337726 0.445233
vt 0.393518 0.445233
vt 0.331527 0.445233
vt 0.393518 0.498729
vn 0.787588 0.551448 0.274972
vn 0.787588 0.551448 0.274972
vn 0.787588 0.551448 0.274972
vn 0.787588 0.551448 0.274972
vn 0.660130 0.681631 -0.315605
vn 0.660130 0.681631 -0.315605
vn 0.660130 0.681631 -0.315605
vn 0.660130 0.681631 -0.315605
vn 0.280525 0.551451 -0.785625
vn 0.280525 0.551451 -0.785625
vn 0.280525 0.551451 -0.785625
vn 0.280525 0.551451 -0.785625
vn -0.206236 0.210632 -0.955563
vn -0.206236 0.210632 -0.955563
vn -0.206236 0.210632 -0.955563
vn -0.206236 0.210632 -0.955563
vn -0.614211 -0.210632 -0.760512
vn -0.614211 -0.210632 -0.760512
vn -0.614212 -0.210632 -0.760512
vn -0.614212 -0.210632 -0.760512
vn -0.787588 -0.551451 -0.274966
vn -0.787588 -0.551451 -0.274966
vn -0.787588 -0.551451 -0.274966
vn -0.787588 -0.551451 -0.274966
vn -0.660130 -0.681631 0.315606
vn -0.660130 -0.681631 0.315606
vn -0.660130 -0.681631 0.315606
vn -0.660130 -0.681631 0.315606
vn -0.280519 -0.551448 0.785629
vn -0.280520 -0.551448 0.785629
vn -0.280519 -0.551448 0.785629
vn -0.280519 -0.551448 0.785629
vn 0.206227 -0.210640 0.955563
vn 0.206227 -0.210640 0.955563
vn 0.206227 -0.210640 0.955563
vn 0.206227 -0.210640 0.955563
vn 0.614217 0.210639 0.760505
vn 0.614217 0.210639 0.760505
vn 0.614217 0.210639 0.760505
vn 0.614217 0.210639 0.760505
vn 0.614963 -0.731696 -0.294011
vn 0.614963 -0.731696 -0.294011
vn 0.614962 -0.731696 -0.294010
vn 0.614963 -0.731696 -0.294011
vn 0.614963 -0.731696 -0.294011
vn 0.614962 -0.731697 -0.294010
vn 0.614961 -0.731697 -0.294011
vn 0.614962 -0.731697 -0.294011
vn 0.614962 -0.731697 -0.294010
vn 0.614962 -0.731697 -0.294010
vn 0.614962 -0.731697 -0.294010
vn -0.614962 0.731697 0.294009
vn -0.614961 0.731698 0.294009
vn -0.614962 0.731696 0.294010
vn -0.614960 0.731698 0.294011
vn -0.614961 0.731697 0.294011
vn -0.614963 0.731696 0.294011
vn -0.614963 0.731695 0.294012
vn -0.614965 0.731694 0.294011
vn -0.614964 0.731695 0.294009
vn -0.614963 0.731696 0.294011
vn -0.614963 0.731696 0.294011
s off
g Right_Cattail_Tall pasted__Cattail_Tall
usemtl lambert4SG
f 299/535/739 300/543/740 310/545/741 309/525/742
f 300/544/743 301/542/744 311/532/745 310/533/746
f 301/542/747 302/541/748 312/531/749 311/532/750
f 302/541/751 303/540/752 313/530/753 312/531/754
f 303/540/755 304/539/756 314/529/757 313/530/758
f 304/539/759 305/538/760 315/528/761 314/529/762
f 305/538/763 306/537/764 316/527/765 315/528/766
f 306/537/767 307/536/768 317/526/769 316/527/770
f 307/536/771 308/534/772 318/524/773 317/526/774
f 308/534/775 299/535/776 309/525/777 318/524/778
s 1
f 300/503/779 299/502/780 319/522/781
f 301/506/782 300/503/779 319/522/781
f 302/508/783 301/506/782 319/522/781
f 303/510/784 302/508/783 319/522/781
f 304/512/785 303/510/784 319/522/781
f 305/514/786 304/512/785 319/522/781
f 306/516/787 305/514/786 319/522/781
f 307/518/788 306/516/787 319/522/781
f 308/520/789 307/518/788 319/522/781
f 299/502/780 308/520/789 319/522/781
s 2
f 309/505/790 310/504/791 320/523/792
f 310/504/791 311/507/793 320/523/792
f 311/507/793 312/509/794 320/523/792
f 312/509/794 313/511/795 320/523/792
f 313/511/795 314/513/796 320/523/792
f 314/513/796 315/515/797 320/523/792
f 315/515/797 316/517/798 320/523/792
f 316/517/798 317/519/799 320/523/792
f 317/519/799 318/521/800 320/523/792
f 318/521/800 309/505/790 320/523/792
g default
v 25.867321 -0.996328 -3.047134
v 25.839109 -0.996328 -2.975985
v 25.869469 -0.996328 -2.905726
v 25.940616 -0.996328 -2.877515
v 26.010874 -0.996328 -2.907873
v 26.039086 -0.996328 -2.979022
v 26.008726 -0.996328 -3.049281
v 25.937579 -0.996328 -3.077492
v 28.065780 6.768826 -3.080521
v 28.045562 6.788937 -3.009494
v 28.067928 6.768826 -2.939113
v 28.119774 6.720275 -2.910609
v 28.170732 6.671724 -2.940674
v 28.190950 6.651613 -3.011702
v 28.168585 6.671724 -3.082083
v 28.116737 6.720275 -3.110586
v 25.939097 -0.996328 -2.977503
v 28.118256 6.720275 -3.010598
v 26.767389 5.144187 -2.990083
v 26.746616 5.163692 -2.919047
v 26.694317 5.210783 -2.888961
v 26.641129 5.257874 -2.917445
v 26.618209 5.277379 -2.987817
v 26.638982 5.257874 -3.058853
v 26.691280 5.210783 -3.088938
v 26.744468 5.163692 -3.060455
v 26.206565 3.942078 -2.981565
v 26.180665 3.953488 -2.910452
v 26.115992 3.981030 -2.880178
v 26.050428 4.008572 -2.908474
v 26.022382 4.019981 -2.978768
v 26.048281 4.008572 -3.049882
v 26.112955 3.981030 -3.080155
v 26.178518 3.953488 -3.051860
v 26.037823 2.580537 -2.979003
v 26.009981 2.585177 -2.907860
v 25.940616 2.596378 -2.877515
v 25.870361 2.607580 -2.905739
v 25.840371 2.612219 -2.976004
v 25.868214 2.607580 -3.047147
v 25.937579 2.596378 -3.077492
v 26.007834 2.585177 -3.049268
vt 0.977545 0.008380
vt 0.965771 0.008380
vt 0.928473 0.323573
vt 0.924553 0.323211
vt 0.957446 0.016705
vt 0.901124 0.322595
vt 0.957447 0.028479
vt 0.905027 0.322073
vt 0.965772 0.036804
vt 0.908931 0.321549
vt 0.977545 0.036804
vt 0.912854 0.321393
vt 0.985871 0.028479
vt 0.916773 0.321756
vt 0.985871 0.016705
vt 0.920663 0.322485
vt 0.971659 0.022592
vt 0.920448 0.713022
vt 0.924370 0.713142
vt 0.970811 0.062820
vt 0.897044 0.712407
vt 0.900955 0.712492
vt 0.904853 0.712582
vt 0.908746 0.712682
vt 0.912640 0.712787
vt 0.916538 0.712902
vt 0.906590 0.543497
vt 0.910525 0.543318
vt 0.902714 0.544105
vt 0.898846 0.544704
vt 0.926081 0.545706
vt 0.922168 0.545317
vt 0.918314 0.544515
vt 0.914453 0.543704
vt 0.907739 0.434158
vt 0.911673 0.433970
vt 0.903868 0.434775
vt 0.900002 0.435376
vt 0.927221 0.436377
vt 0.923308 0.435989
vt 0.919456 0.435185
vt 0.915600 0.434365
vt 0.970811 0.077967
vt 0.960100 0.073531
vt 0.981521 0.073530
vt 0.985957 0.062820
vt 0.981521 0.052109
vt 0.970811 0.047673
vt 0.960100 0.052109
vt 0.955664 0.062820
vt 0.923747 0.030946
vt 0.927673 0.031048
vt 0.919826 0.030842
vt 0.915906 0.030738
vt 0.911985 0.030636
vt 0.908064 0.030533
vt 0.904138 0.030429
vt 0.931601 0.031152
vt 0.897199 0.322750
vt 0.896082 0.435558
vt 0.894927 0.544887
vt 0.955664 0.062820
vt 0.893122 0.712320
vt 0.900211 0.030326
vt 0.965771 0.008380
vn -0.930406 0.000276 -0.366531
vn -0.930406 0.000276 -0.366531
vn -0.930182 0.027323 -0.366080
vn -0.929873 0.039071 -0.365800
vn -0.918846 0.000276 0.394615
vn -0.918846 0.000276 0.394615
vn -0.918336 0.039071 0.393869
vn -0.918637 0.027323 0.394157
vn -0.370673 0.000048 0.928763
vn -0.370673 0.000048 0.928763
vn -0.371204 0.019642 0.928344
vn -0.370816 0.004839 0.928694
vn 0.398712 0.000048 0.917076
vn 0.398712 0.000048 0.917076
vn 0.399293 -0.019123 0.916624
vn 0.398869 -0.004681 0.916996
vn 0.930412 0.000278 0.366515
vn 0.930412 0.000278 0.366515
vn 0.930011 -0.036642 0.365699
vn 0.930264 -0.025638 0.365995
vn 0.918853 0.000278 -0.394600
vn 0.918853 0.000278 -0.394600
vn 0.918721 -0.025638 -0.394075
vn 0.918478 -0.036642 -0.393772
vn 0.370680 0.000048 -0.928761
vn 0.370680 0.000048 -0.928761
vn 0.370839 -0.004681 -0.928685
vn 0.371274 -0.019123 -0.928326
vn -0.398706 0.000048 -0.917079
vn -0.398706 0.000048 -0.917079
vn -0.398846 0.004839 -0.917005
vn -0.399223 0.019642 -0.916644
vn 0.000000 -1.000000 0.000000
vn 0.000000 -1.000000 0.000000
vn 0.000000 -1.000000 0.000000
vn 0.000000 -1.000000 0.000000
vn 0.000000 -1.000000 0.000000
vn 0.000000 -1.000000 0.000000
vn 0.000000 -1.000000 0.000000
vn 0.000000 -1.000000 0.000000
vn 0.000000 -1.000000 0.000000
vn 0.686542 0.727015 -0.010424
vn 0.686539 0.727018 -0.010426
vn 0.686540 0.727017 -0.010426
vn 0.686542 0.727015 -0.010429
vn 0.686541 0.727016 -0.010426
vn 0.686539 0.727018 -0.010426
vn 0.686539 0.727018 -0.010425
vn 0.686539 0.727018 -0.010425
vn 0.686541 0.727016 -0.010426
vn 0.767170 -0.522698 0.371801
vn 0.735102 -0.566181 0.372913
vn 0.677420 -0.634388 0.372363
vn 0.677420 -0.634388 0.372363
vn 0.349907 -0.188402 0.917644
vn 0.300689 -0.252245 0.919760
vn 0.292244 -0.262791 0.919530
vn 0.292244 -0.262791 0.919530
vn -0.321754 0.188663 0.927836
vn -0.272695 0.252168 0.928466
vn -0.264191 0.262788 0.927979
vn -0.264191 0.262788 0.927979
vn -0.755866 0.522274 0.394838
vn -0.724067 0.565406 0.395023
vn -0.665819 0.634364 0.392768
vn -0.665819 0.634364 0.392769
vn -0.735729 0.565406 -0.372853
vn -0.767507 0.522274 -0.371703
vn -0.677439 0.634364 -0.372369
vn -0.677439 0.634364 -0.372369
vn -0.300763 0.252168 -0.919757
vn -0.349781 0.188663 -0.917638
vn -0.292249 0.262788 -0.919529
vn -0.292249 0.262788 -0.919529
vn 0.272620 -0.252245 -0.928467
vn 0.321880 -0.188402 -0.927846
vn 0.264186 -0.262791 -0.927980
vn 0.264186 -0.262791 -0.927980
vn 0.723439 -0.566181 -0.395063
vn 0.755527 -0.522699 -0.394925
vn 0.665800 -0.634388 -0.392762
vn 0.665800 -0.634388 -0.392762
vn 0.903838 -0.221395 0.366142
vn 0.885532 -0.285739 0.366314
vn 0.395800 -0.064258 0.916086
vn 0.372148 -0.147963 0.916304
vn -0.367565 0.065025 0.927722
vn -0.343724 0.148784 0.927209
vn -0.890953 0.226381 0.393643
vn -0.872241 0.290804 0.393228
vn -0.883780 0.290804 -0.366560
vn -0.902495 0.226381 -0.366407
vn -0.371722 0.148784 -0.916344
vn -0.395567 0.065025 -0.916132
vn 0.344151 -0.147963 -0.927182
vn 0.367799 -0.064258 -0.927682
vn 0.874000 -0.285739 -0.393035
vn 0.892303 -0.221395 -0.393420
s 1
g pasted__Cattail_Stalk_Tall Right_Cattail_Tall1
usemtl lambert4SG
f 321/597/801 322/603/802 359/548/803 360/549/804
s 2
f 322/609/805 323/602/806 358/551/807 359/604/808
s 3
f 323/602/809 324/601/810 357/553/811 358/551/812
s 4
f 324/601/813 325/600/814 356/555/815 357/553/816
s 5
f 325/600/817 326/599/818 355/557/819 356/555/820
s 6
f 326/599/821 327/598/822 362/559/823 355/557/824
s 7
f 327/598/825 328/596/826 361/561/827 362/559/828
s 8
f 328/596/829 321/597/830 360/549/831 361/561/832
s 9
f 322/547/833 321/546/834 337/562/835
f 323/550/836 322/610/833 337/562/835
f 324/552/837 323/550/836 337/562/835
f 325/554/838 324/552/837 337/562/835
f 326/556/839 325/554/838 337/562/835
f 327/558/840 326/556/839 337/562/835
f 328/560/841 327/558/840 337/562/835
f 321/546/834 328/560/841 337/562/835
s 10
f 329/589/842 330/595/843 338/565/844
f 330/607/843 331/594/845 338/565/844
f 331/594/845 332/593/846 338/565/844
f 332/593/846 333/592/847 338/565/844
f 333/592/847 334/591/848 338/565/844
f 334/591/848 335/590/849 338/565/844
f 335/590/849 336/588/850 338/565/844
f 336/588/850 329/589/842 338/565/844
s 5
f 340/572/851 339/573/852 334/569/853 333/568/854
s 4
f 341/574/855 340/572/856 333/568/857 332/567/858
s 3
f 342/575/859 341/574/860 332/567/861 331/566/862
s 2
f 343/606/863 342/575/864 331/566/865 330/608/866
s 1
f 344/577/867 343/576/868 330/564/869 329/563/870
s 8
f 345/578/871 344/577/872 329/563/873 336/571/874
s 7
f 346/579/875 345/578/876 336/571/877 335/570/878
s 6
f 339/573/879 346/579/880 335/570/881 334/569/882
s 5
f 348/580/883 347/581/884 339/573/852 340/572/851
s 4
f 349/582/885 348/580/886 340/572/856 341/574/855
s 3
f 350/583/887 349/582/888 341/574/860 342/575/859
s 2
f 351/605/889 350/583/890 342/575/864 343/606/863
s 1
f 352/585/891 351/584/892 343/576/868 344/577/867
s 8
f 353/586/893 352/585/894 344/577/872 345/578/871
s 7
f 354/587/895 353/586/896 345/578/876 346/579/875
s 6
f 347/581/897 354/587/898 346/579/880 339/573/879
s 5
f 356/555/820 355/557/819 347/581/884 348/580/883
s 4
f 357/553/816 356/555/815 348/580/886 349/582/885
s 3
f 358/551/812 357/553/811 349/582/888 350/583/887
s 2
f 359/604/808 358/551/807 350/583/890 351/605/889
s 1
f 360/549/804 359/548/803 351/584/892 352/585/891
s 8
f 361/561/832 360/549/831 352/585/894 353/586/893
s 7
f 362/559/828 361/561/827 353/586/896 354/587/895
s 6
f 355/557/824 362/559/823 354/587/898 347/581/897
g default
v 26.760606 5.538511 -3.232712
v 26.683152 5.612796 -3.081520
v 26.685967 5.612796 -2.896131
v 26.767977 5.538511 -2.747360
v 26.897856 5.418315 -2.692032
v 27.025995 5.298120 -2.751278
v 27.103450 5.223834 -2.902472
v 27.100634 5.223834 -3.087860
v 27.018624 5.298120 -3.236630
v 26.888745 5.418315 -3.291960
v 27.851091 6.709225 -3.249273
v 27.773636 6.783509 -3.098081
v 27.776451 6.783509 -2.912692
v 27.858462 6.709225 -2.763920
v 27.988341 6.589029 -2.708593
v 28.116480 6.468833 -2.767839
v 28.193934 6.394547 -2.919033
v 28.191119 6.394548 -3.104421
v 28.109109 6.468833 -3.253191
v 27.979230 6.589029 -3.308521
v 26.893300 5.418315 -2.991995
v 27.983786 6.589029 -3.008556
vt 0.488668 0.441592
vt 0.491566 0.441592
vt 0.480111 0.437109
vt 0.479272 0.434331
vt 0.493910 0.439889
vt 0.479155 0.439850
vt 0.494805 0.437134
vt 0.476772 0.441506
vt 0.493910 0.434379
vt 0.473870 0.441445
vt 0.491566 0.432676
vt 0.471559 0.439690
vt 0.488668 0.432676
vt 0.470721 0.436911
vt 0.486325 0.434379
vt 0.471675 0.434170
vt 0.485430 0.437134
vt 0.474059 0.432514
vt 0.486325 0.439889
vt 0.476961 0.432576
vt 0.490117 0.437134
vt 0.475415 0.437010
vt 0.485365 0.499683
vt 0.491563 0.499683
vt 0.479165 0.499683
vt 0.472966 0.499683
vt 0.466767 0.499683
vt 0.460568 0.499683
vt 0.454369 0.499683
vt 0.448170 0.499683
vt 0.441971 0.499683
vt 0.435771 0.499683
vt 0.485364 0.446187
vt 0.491563 0.446187
vt 0.479165 0.446187
vt 0.472966 0.446187
vt 0.466767 0.446187
vt 0.460567 0.446187
vt 0.454369 0.446187
vt 0.448170 0.446187
vt 0.441971 0.446187
vt 0.497763 0.446187
vt 0.435771 0.446187
vt 0.497763 0.499683
vn -0.600809 0.551448 -0.578735
vn -0.600809 0.551448 -0.578735
vn -0.600809 0.551448 -0.578735
vn -0.600809 0.551448 -0.578735
vn -0.731611 0.681631 0.011111
vn -0.731611 0.681631 0.011111
vn -0.731611 0.681631 0.011111
vn -0.731611 0.681631 0.011111
vn -0.582961 0.551451 0.596706
vn -0.582961 0.551451 0.596706
vn -0.582961 0.551451 0.596706
vn -0.582961 0.551451 0.596706
vn -0.211634 0.210632 0.954382
vn -0.211634 0.210632 0.954382
vn -0.211634 0.210632 0.954382
vn -0.211634 0.210632 0.954382
vn 0.240518 -0.210632 0.947515
vn 0.240518 -0.210632 0.947515
vn 0.240518 -0.210632 0.947515
vn 0.240518 -0.210632 0.947515
vn 0.600811 -0.551451 0.578729
vn 0.600811 -0.551451 0.578729
vn 0.600811 -0.551451 0.578729
vn 0.600811 -0.551451 0.578729
vn 0.731612 -0.681631 -0.011112
vn 0.731612 -0.681631 -0.011112
vn 0.731611 -0.681631 -0.011112
vn 0.731611 -0.681631 -0.011112
vn 0.582957 -0.551448 -0.596712
vn 0.582957 -0.551448 -0.596712
vn 0.582957 -0.551448 -0.596712
vn 0.582957 -0.551448 -0.596712
vn 0.211643 -0.210640 -0.954379
vn 0.211643 -0.210640 -0.954379
vn 0.211643 -0.210640 -0.954379
vn 0.211643 -0.210640 -0.954379
vn -0.240526 0.210639 -0.947512
vn -0.240526 0.210639 -0.947512
vn -0.240526 0.210639 -0.947512
vn -0.240526 0.210639 -0.947512
vn -0.681553 -0.731696 0.010351
vn -0.681553 -0.731696 0.010351
vn -0.681552 -0.731696 0.010351
vn -0.681553 -0.731696 0.010351
vn -0.681553 -0.731696 0.010351
vn -0.681552 -0.731697 0.010351
vn -0.681552 -0.731697 0.010351
vn -0.681552 -0.731697 0.010351
vn -0.681552 -0.731697 0.010350
vn -0.681552 -0.731697 0.010350
vn -0.681552 -0.731697 0.010351
vn 0.681551 0.731697 -0.010349
vn 0.681550 0.731698 -0.010349
vn 0.681552 0.731696 -0.010350
vn 0.681550 0.731698 -0.010352
vn 0.681551 0.731697 -0.010352
vn 0.681553 0.731696 -0.010351
vn 0.681554 0.731694 -0.010352
vn 0.681555 0.731694 -0.010350
vn 0.681553 0.731695 -0.010349
vn 0.681553 0.731696 -0.010351
vn 0.681553 0.731696 -0.010351
s off
g Right_Cattail_Tall1 pasted__Cattail_Tall
usemtl lambert4SG
f 363/644/899 364/652/900 374/654/901 373/634/902
f 364/653/903 365/651/904 375/641/905 374/642/906
f 365/651/907 366/650/908 376/640/909 375/641/910
f 366/650/911 367/649/912 377/639/913 376/640/914
f 367/649/915 368/648/916 378/638/917 377/639/918
f 368/648/919 369/647/920 379/637/921 378/638/922
f 369/647/923 370/646/924 380/636/925 379/637/926
f 370/646/927 371/645/928 381/635/929 380/636/930
f 371/645/931 372/643/932 382/633/933 381/635/934
f 372/643/935 363/644/936 373/634/937 382/633/938
s 1
f 364/612/939 363/611/940 383/631/941
f 365/615/942 364/612/939 383/631/941
f 366/617/943 365/615/942 383/631/941
f 367/619/944 366/617/943 383/631/941
f 368/621/945 367/619/944 383/631/941
f 369/623/946 368/621/945 383/631/941
f 370/625/947 369/623/946 383/631/941
f 371/627/948 370/625/947 383/631/941
f 372/629/949 371/627/948 383/631/941
f 363/611/940 372/629/949 383/631/941
s 2
f 373/614/950 374/613/951 384/632/952
f 374/613/951 375/616/953 384/632/952
f 375/616/953 376/618/954 384/632/952
f 376/618/954 377/620/955 384/632/952
f 377/620/955 378/622/956 384/632/952
f 378/622/956 379/624/957 384/632/952
f 379/624/957 380/626/958 384/632/952
f 380/626/958 381/628/959 384/632/952
f 381/628/959 382/630/960 384/632/952
f 382/630/960 373/614/950 384/632/952
