# This file uses centimeters as units for non-parametric coordinates.

mtllib Model_Lotus.mtl
g default
v -20.700000 -0.400000 19.913397
v -20.800000 -0.400000 19.913397
v -20.850000 -0.400000 20.000000
v -20.800000 -0.400000 20.086603
v -20.700000 -0.400000 20.086603
v -20.650000 -0.400000 20.000000
v -20.700000 3.600000 19.913397
v -20.800000 3.600000 19.913397
v -20.850000 3.600000 20.000000
v -20.800000 3.600000 20.086603
v -20.700000 3.600000 20.086603
v -20.650000 3.600000 20.000000
v -20.750000 -0.400000 20.000000
v -20.750000 3.600000 20.000000
vt 0.303894 0.037414
vt 0.287456 0.037414
vt 0.288272 0.376073
vt 0.304608 0.376073
vt 0.279237 0.051650
vt 0.280104 0.361925
vt 0.287456 0.065886
vt 0.288272 0.347777
vt 0.303894 0.065886
vt 0.304608 0.347777
vt 0.312113 0.051650
vt 0.312776 0.361925
vt 0.295675 0.051650
vt 0.296440 0.361925
vt 0.301173 0.312916
vt 0.306550 0.312916
vt 0.295796 0.312916
vt 0.290419 0.312916
vt 0.285042 0.312916
vt 0.279665 0.312916
vt 0.301173 0.097837
vt 0.306550 0.097837
vt 0.295796 0.097837
vt 0.290419 0.097837
vt 0.285043 0.097837
vt 0.311927 0.097837
vt 0.311927 0.312916
vt 0.288272 0.376073
vt 0.279666 0.097837
vt 0.287456 0.037414
vn 0.000000 0.000000 -1.000000
vn 0.000000 0.000000 -1.000000
vn 0.000000 0.000000 -1.000000
vn 0.000000 0.000000 -1.000000
vn -0.866026 0.000000 -0.499999
vn -0.866026 0.000000 -0.499999
vn -0.866026 0.000000 -0.499999
vn -0.866026 0.000000 -0.499999
vn -0.866026 0.000000 0.499999
vn -0.866026 0.000000 0.499999
vn -0.866026 0.000000 0.499999
vn -0.866026 0.000000 0.499999
vn 0.000000 0.000000 1.000000
vn 0.000000 0.000000 1.000000
vn 0.000000 0.000000 1.000000
vn 0.000000 0.000000 1.000000
vn 0.866026 0.000000 0.499999
vn 0.866026 0.000000 0.499999
vn 0.866026 0.000000 0.499999
vn 0.866026 0.000000 0.499999
vn 0.866026 0.000000 -0.499999
vn 0.866026 0.000000 -0.499999
vn 0.866026 0.000000 -0.499999
vn 0.866026 0.000000 -0.499999
vn 0.000000 -1.000000 0.000000
vn 0.000000 -1.000000 0.000000
vn 0.000000 -1.000000 0.000000
vn 0.000000 -1.000000 0.000000
vn 0.000000 -1.000000 0.000000
vn 0.000000 -1.000000 0.000000
vn 0.000000 -1.000000 0.000000
vn 0.000000 1.000000 0.000000
vn 0.000000 1.000000 0.000000
vn 0.000000 1.000000 0.000000
vn 0.000000 1.000000 0.000000
vn 0.000000 1.000000 0.000000
vn 0.000000 1.000000 0.000000
vn 0.000000 1.000000 0.000000
s off
g Lotus_Flower_Stalk
usemtl lambert4SG
f 1/22/1 2/26/2 8/27/3 7/16/4
f 2/29/5 3/25/6 9/19/7 8/20/8
f 3/25/9 4/24/10 10/18/11 9/19/12
f 4/24/13 5/23/14 11/17/15 10/18/16
f 5/23/17 6/21/18 12/15/19 11/17/20
f 6/21/21 1/22/22 7/16/23 12/15/24
s 1
f 2/2/25 1/1/26 13/13/27
f 3/5/28 2/30/25 13/13/27
f 4/7/29 3/5/28 13/13/27
f 5/9/30 4/7/29 13/13/27
f 6/11/31 5/9/30 13/13/27
f 1/1/26 6/11/31 13/13/27
s 2
f 7/4/32 8/28/33 14/14/34
f 8/3/33 9/6/35 14/14/34
f 9/6/35 10/8/36 14/14/34
f 10/8/36 11/10/37 14/14/34
f 11/10/37 12/12/38 14/14/34
f 12/12/38 7/4/32 14/14/34
g default
v -22.274260 -1.408676 20.872637
v -22.316064 -1.408676 20.781795
v -22.415640 -1.408676 20.772577
v -22.473409 -1.408676 20.854203
v -22.431607 -1.408676 20.945046
v -22.332029 -1.408676 20.954263
v -23.230533 2.338266 21.312707
v -23.272338 2.338266 21.221866
v -23.345462 2.273492 21.200476
v -23.376776 2.208717 21.269927
v -23.334971 2.208717 21.360769
v -23.261852 2.273492 21.382161
v -22.373834 -1.408676 20.863420
v -23.303658 2.273492 21.291317
v -22.690436 1.715286 21.119199
v -22.763558 1.650511 21.097808
v -22.805363 1.650511 21.006965
v -22.774046 1.715286 20.937515
v -22.700928 1.780060 20.958905
v -22.659120 1.780060 21.049747
v -22.413593 1.016732 20.991796
v -22.511659 0.999860 20.981885
v -22.553467 0.999860 20.891045
v -22.497203 1.016732 20.810112
v -22.399137 1.033604 20.820022
v -22.357331 1.033604 20.910866
v -22.332029 0.206134 20.954263
v -22.431607 0.206134 20.945046
v -22.473409 0.206134 20.854203
v -22.415640 0.206134 20.772577
v -22.316064 0.206134 20.781795
v -22.274260 0.206134 20.872637
vt 0.118342 0.058720
vt 0.126575 0.044719
vt 0.130375 0.183167
vt 0.123359 0.183167
vt 0.118565 0.030588
vt 0.095328 0.183419
vt 0.102323 0.030459
vt 0.102329 0.183741
vt 0.094089 0.044460
vt 0.109333 0.183757
vt 0.102099 0.058591
vt 0.116343 0.183461
vt 0.110332 0.044590
vt 0.122771 0.351918
vt 0.129771 0.352069
vt 0.109930 0.383360
vt 0.095498 0.351705
vt 0.102296 0.351622
vt 0.109084 0.351662
vt 0.115875 0.351761
vt 0.109286 0.291454
vt 0.116122 0.292911
vt 0.102126 0.291487
vt 0.095293 0.292958
vt 0.129906 0.294423
vt 0.122888 0.294315
vt 0.109203 0.240824
vt 0.116172 0.240446
vt 0.102166 0.240831
vt 0.095201 0.240458
vt 0.130146 0.240096
vt 0.123127 0.240066
vt 0.126192 0.383360
vt 0.118061 0.397443
vt 0.118061 0.369277
vt 0.101800 0.369277
vt 0.093669 0.383360
vt 0.101800 0.397443
vt 0.116630 0.070198
vt 0.123634 0.070207
vt 0.109639 0.070185
vt 0.102647 0.070164
vt 0.095644 0.070138
vt 0.130648 0.070217
vt 0.088321 0.183096
vt 0.088253 0.240079
vt 0.088532 0.294385
vt 0.088586 0.351846
vt 0.088629 0.070110
vn 0.908424 0.000000 -0.418051
vn 0.908424 0.000000 -0.418051
vn 0.907788 0.037417 -0.417758
vn 0.907788 0.037417 -0.417758
vn 0.092181 0.000000 -0.995742
vn 0.092181 0.000000 -0.995742
vn 0.091921 0.024584 -0.995463
vn 0.092085 0.009735 -0.995704
vn -0.816258 0.000000 -0.577688
vn -0.816258 0.000000 -0.577688
vn -0.815879 -0.024361 -0.577709
vn -0.816167 -0.009586 -0.577737
vn -0.908436 0.000000 0.418023
vn -0.908436 0.000000 0.418023
vn -0.907825 -0.036565 0.417753
vn -0.907825 -0.036564 0.417753
vn -0.092166 0.000000 0.995744
vn -0.092166 0.000000 0.995744
vn -0.092071 -0.009585 0.995706
vn -0.091909 -0.024359 0.995469
vn 0.816258 0.000000 0.577688
vn 0.816258 0.000000 0.577688
vn 0.816166 0.009735 0.577736
vn 0.815877 0.024585 0.577703
vn 0.000000 -1.000000 0.000000
vn 0.000000 -1.000000 0.000000
vn 0.000000 -1.000000 0.000000
vn 0.000000 -1.000000 0.000000
vn 0.000000 -1.000000 0.000000
vn 0.000000 -1.000000 0.000000
vn 0.000000 -1.000000 0.000000
vn -0.679439 0.663776 0.312674
vn -0.679439 0.663775 0.312673
vn -0.679456 0.663754 0.312682
vn -0.679456 0.663754 0.312681
vn -0.679473 0.663733 0.312689
vn -0.679473 0.663733 0.312690
vn -0.679455 0.663755 0.312682
vn 0.032416 -0.341671 0.939260
vn -0.042830 -0.252262 0.966711
vn 0.060556 -0.373979 0.925458
vn 0.060556 -0.373979 0.925458
vn -0.726833 -0.599858 0.334491
vn -0.726833 -0.599858 0.334491
vn -0.602969 -0.747952 0.277482
vn -0.602969 -0.747952 0.277482
vn -0.762107 -0.252256 -0.596289
vn -0.692313 -0.341668 -0.635583
vn -0.663527 -0.373976 -0.647977
vn -0.663527 -0.373976 -0.647977
vn 0.043366 0.252600 -0.966599
vn -0.031155 0.340473 -0.939738
vn -0.060561 0.373974 -0.925460
vn -0.060561 0.373974 -0.925460
vn 0.731357 0.593153 -0.336579
vn 0.731353 0.593160 -0.336577
vn 0.602965 0.747951 -0.277492
vn 0.602965 0.747951 -0.277492
vn 0.693497 0.340473 0.634933
vn 0.762374 0.252596 0.595802
vn 0.663525 0.373973 0.647981
vn 0.663525 0.373973 0.647981
vn -0.082456 -0.172702 0.981517
vn -0.089713 -0.079976 0.992751
vn -0.880673 -0.245268 0.405288
vn -0.880675 -0.245263 0.405288
vn -0.812383 -0.079977 -0.577614
vn -0.799126 -0.172699 -0.575823
vn 0.089340 0.081574 -0.992655
vn 0.080901 0.176896 -0.980899
vn 0.877198 0.259922 -0.403688
vn 0.877198 0.259923 -0.403688
vn 0.797650 0.176895 0.576596
vn 0.812066 0.081576 0.577835
s 1
g Lotus_Stalk_Short
usemtl lambert4SG
f 15/70/39 16/74/40 45/33/41 46/34/42
s 2
f 16/79/43 17/73/44 44/36/45 45/75/46
s 3
f 17/73/47 18/72/48 43/38/49 44/36/50
s 4
f 18/72/51 19/71/52 42/40/53 43/38/54
s 5
f 19/71/55 20/69/56 41/42/57 42/40/58
s 6
f 20/69/59 15/70/60 46/34/61 41/42/62
s 7
f 16/32/63 15/31/64 27/43/65
f 17/35/66 16/32/63 27/43/65
f 18/37/67 17/35/66 27/43/65
f 19/39/68 18/37/67 27/43/65
f 20/41/69 19/39/68 27/43/65
f 15/31/64 20/41/69 27/43/65
s 8
f 21/64/70 22/68/71 28/46/72
f 22/68/71 23/67/73 28/46/72
f 23/67/73 24/66/74 28/46/72
f 24/66/74 25/65/75 28/46/72
f 25/65/75 26/63/76 28/46/72
f 26/63/76 21/64/70 28/46/72
s 5
f 30/51/77 29/52/78 26/50/79 25/49/80
s 4
f 31/53/81 30/51/82 25/49/83 24/48/84
s 3
f 32/54/85 31/53/86 24/48/87 23/47/88
s 2
f 33/77/89 32/54/90 23/47/91 22/78/92
s 1
f 34/56/93 33/55/94 22/45/95 21/44/96
s 6
f 29/52/97 34/56/98 21/44/99 26/50/100
s 5
f 36/57/101 35/58/102 29/52/78 30/51/77
s 4
f 37/59/103 36/57/104 30/51/82 31/53/81
s 3
f 38/60/105 37/59/106 31/53/86 32/54/85
s 2
f 39/76/107 38/60/108 32/54/90 33/77/89
s 1
f 40/62/109 39/61/110 33/55/94 34/56/93
s 6
f 35/58/111 40/62/112 34/56/98 29/52/97
s 5
f 42/40/58 41/42/57 35/58/102 36/57/101
s 4
f 43/38/54 42/40/53 36/57/104 37/59/103
s 3
f 44/36/50 43/38/49 37/59/106 38/60/105
s 2
f 45/75/46 44/36/45 38/60/108 39/76/107
s 1
f 46/34/42 45/33/41 39/61/110 40/62/109
s 6
f 41/42/62 46/34/61 40/62/112 35/58/111
g default
v -19.727351 -2.072213 19.470750
v -19.757727 -2.072213 19.566027
v -19.690401 -2.072213 19.639969
v -19.592704 -2.072213 19.618636
v -19.562330 -2.072213 19.523360
v -19.629654 -2.072213 19.449415
v -18.724411 1.674730 19.790488
v -18.754785 1.674730 19.885761
v -18.715205 1.609955 19.950859
v -18.645250 1.545181 19.920681
v -18.614877 1.545181 19.825405
v -18.654457 1.609955 19.760309
v -19.660028 -2.072213 19.544690
v -18.684831 1.609955 19.855583
v -19.253757 1.051749 19.569252
v -19.214173 0.986974 19.634350
v -19.244550 0.986974 19.729625
v -19.314502 1.051749 19.759802
v -19.354084 1.116524 19.694706
v -19.323711 1.116524 19.599430
v -19.544108 0.353195 19.476687
v -19.478369 0.336323 19.550125
v -19.508744 0.336323 19.645400
v -19.604858 0.353195 19.667237
v -19.670602 0.370067 19.593802
v -19.640225 0.370067 19.498522
v -19.629654 -0.457403 19.449415
v -19.562330 -0.457403 19.523360
v -19.592704 -0.457403 19.618636
v -19.690401 -0.457403 19.639969
v -19.757727 -0.457403 19.566027
v -19.727351 -0.457403 19.470750
vt 0.181910 0.030295
vt 0.165565 0.030295
vt 0.158708 0.183119
vt 0.193849 0.183119
vt 0.157394 0.044450
vt 0.165736 0.183429
vt 0.165566 0.058604
vt 0.172759 0.183739
vt 0.181910 0.058604
vt 0.179783 0.183742
vt 0.190082 0.044449
vt 0.186813 0.183430
vt 0.173738 0.044449
vt 0.193132 0.352433
vt 0.158838 0.352331
vt 0.173369 0.383227
vt 0.165756 0.352196
vt 0.172570 0.352118
vt 0.179381 0.352164
vt 0.186200 0.352269
vt 0.179758 0.291783
vt 0.186608 0.293279
vt 0.172578 0.291779
vt 0.165718 0.293220
vt 0.158928 0.294606
vt 0.193386 0.294726
vt 0.179825 0.240994
vt 0.186812 0.240632
vt 0.172766 0.240983
vt 0.165779 0.240589
vt 0.158805 0.240190
vt 0.193782 0.240264
vt 0.189536 0.383227
vt 0.181452 0.397228
vt 0.181453 0.369226
vt 0.165285 0.369225
vt 0.157202 0.383227
vt 0.165285 0.397228
vt 0.186749 0.069822
vt 0.193773 0.069809
vt 0.179736 0.069829
vt 0.172724 0.069829
vt 0.165701 0.069823
vt 0.158666 0.069816
vt 0.151673 0.183101
vt 0.151765 0.240200
vt 0.151889 0.294678
vt 0.181452 0.397228
vt 0.151812 0.352443
vt 0.151630 0.069812
vt 0.181910 0.030295
vn -0.952751 0.000000 -0.303752
vn -0.952751 0.000000 -0.303752
vn -0.952084 0.037416 -0.303540
vn -0.952084 0.037417 -0.303540
vn -0.739416 0.000000 0.673249
vn -0.739416 0.000000 0.673249
vn -0.739035 0.024584 0.673219
vn -0.739319 0.009735 0.673286
vn 0.213340 0.000000 0.976978
vn 0.213340 0.000000 0.976978
vn 0.213048 -0.024359 0.976738
vn 0.213240 -0.009585 0.976953
vn 0.952756 0.000000 0.303737
vn 0.952756 0.000000 0.303737
vn 0.952118 -0.036564 0.303535
vn 0.952118 -0.036563 0.303535
vn 0.739439 0.000000 -0.673223
vn 0.739439 0.000000 -0.673223
vn 0.739344 -0.009586 -0.673260
vn 0.739064 -0.024362 -0.673195
vn -0.213353 0.000000 -0.976975
vn -0.213353 0.000000 -0.976975
vn -0.213251 0.009735 -0.976949
vn -0.213056 0.024584 -0.976731
vn 0.000000 -1.000000 0.000000
vn 0.000000 -1.000000 0.000000
vn 0.000000 -1.000000 0.000000
vn 0.000000 -1.000000 0.000000
vn 0.000000 -1.000000 0.000000
vn 0.000000 -1.000000 0.000000
vn 0.000000 -1.000000 0.000000
vn 0.712614 0.663750 0.227192
vn 0.712614 0.663754 0.227185
vn 0.712613 0.663755 0.227183
vn 0.712610 0.663759 0.227179
vn 0.712609 0.663762 0.227175
vn 0.712615 0.663753 0.227183
vn 0.712615 0.663750 0.227191
vn 0.609325 -0.341664 -0.715534
vn 0.683412 -0.252258 -0.685065
vn 0.579238 -0.373968 -0.724315
vn 0.579238 -0.373968 -0.724315
vn 0.762304 -0.599856 0.243033
vn 0.762299 -0.599863 0.243032
vn 0.632394 -0.747951 0.201611
vn 0.632394 -0.747951 0.201612
vn 0.160806 -0.252260 0.954205
vn 0.082764 -0.341666 0.936170
vn 0.053147 -0.373972 0.925916
vn 0.053147 -0.373972 0.925916
vn -0.683721 0.252589 0.684635
vn -0.610578 0.340469 0.715035
vn -0.579238 0.373969 0.724314
vn -0.579238 0.373969 0.724314
vn -0.767050 0.593155 -0.244543
vn -0.767050 0.593155 -0.244543
vn -0.632392 0.747952 -0.201611
vn -0.632392 0.747952 -0.201611
vn -0.084083 0.340476 -0.936486
vn -0.161329 0.252599 -0.954027
vn -0.053152 0.373978 -0.925913
vn -0.053152 0.373978 -0.925913
vn 0.722663 -0.172703 -0.669277
vn 0.735607 -0.079982 -0.672670
vn 0.923652 -0.245265 0.294470
vn 0.923651 -0.245268 0.294470
vn 0.210531 -0.079974 0.974311
vn 0.201948 -0.172701 0.964049
vn -0.735235 0.081572 0.672886
vn -0.721077 0.176890 0.669893
vn -0.920004 0.259923 -0.293312
vn -0.920006 0.259917 -0.293312
vn -0.200331 0.176896 -0.963626
vn -0.210146 0.081574 -0.974261
s 1
g Lotus_Stalk_Short1
usemtl lambert4SG
f 47/129/113 48/123/114 77/82/115 78/124/116
s 2
f 48/123/117 49/122/118 76/85/119 77/82/120
s 3
f 49/122/121 50/121/122 75/87/123 76/85/124
s 4
f 50/121/125 51/120/126 74/89/127 75/87/128
s 5
f 51/120/129 52/118/130 73/91/131 74/89/132
s 6
f 52/118/133 47/119/134 78/83/135 73/91/136
s 7
f 48/81/137 47/130/138 59/92/139
f 49/84/140 48/81/137 59/92/139
f 50/86/141 49/84/140 59/92/139
f 51/88/142 50/86/141 59/92/139
f 52/90/143 51/88/142 59/92/139
f 47/80/138 52/90/143 59/92/139
s 8
f 53/127/144 54/117/145 60/95/146
f 54/117/145 55/116/147 60/95/146
f 55/116/147 56/115/148 60/95/146
f 56/115/148 57/114/149 60/95/146
f 57/114/149 58/112/150 60/95/146
f 58/112/150 53/113/144 60/95/146
s 5
f 62/100/151 61/101/152 58/99/153 57/98/154
s 4
f 63/102/155 62/100/156 57/98/157 56/97/158
s 3
f 64/103/159 63/102/160 56/97/161 55/96/162
s 2
f 65/104/163 64/103/164 55/96/165 54/94/166
s 1
f 66/126/167 65/104/168 54/94/169 53/128/170
s 6
f 61/101/171 66/105/172 53/93/173 58/99/174
s 5
f 68/106/175 67/107/176 61/101/152 62/100/151
s 4
f 69/108/177 68/106/178 62/100/156 63/102/155
s 3
f 70/109/179 69/108/180 63/102/160 64/103/159
s 2
f 71/110/181 70/109/182 64/103/164 65/104/163
s 1
f 72/125/183 71/110/184 65/104/168 66/126/167
s 6
f 67/107/185 72/111/186 66/105/172 61/101/171
s 5
f 74/89/132 73/91/131 67/107/176 68/106/175
s 4
f 75/87/128 74/89/127 68/106/178 69/108/177
s 3
f 76/85/124 75/87/123 69/108/180 70/109/179
s 2
f 77/82/120 76/85/119 70/109/182 71/110/181
s 1
f 78/124/116 77/82/115 71/110/184 72/125/183
s 6
f 73/91/136 78/83/135 72/111/186 67/107/185
g default
v -19.263006 -0.312274 17.263110
v -19.220537 -0.312274 17.353644
v -19.120894 -0.312274 17.362131
v -19.063727 -0.312274 17.280086
v -19.106193 -0.312274 17.189551
v -19.205833 -0.312274 17.181063
v -18.309979 3.434669 16.816046
v -18.267510 3.434669 16.906580
v -18.194235 3.369894 16.927438
v -18.163429 3.305119 16.857758
v -18.205898 3.305119 16.767224
v -18.279171 3.369894 16.746369
v -19.163364 -0.312274 17.271596
v -18.236705 3.369894 16.836903
v -18.848646 2.811688 17.013507
v -18.775368 2.746913 17.034359
v -18.732899 2.746913 17.124893
v -18.763708 2.811688 17.194575
v -18.836984 2.876462 17.173720
v -18.879450 2.876462 17.083186
v -19.124549 2.113134 17.142934
v -19.026413 2.096262 17.152125
v -18.983944 2.096262 17.242659
v -19.039611 2.113134 17.324001
v -19.137749 2.130006 17.314808
v -19.180218 2.130006 17.224274
v -19.205833 1.302536 17.181063
v -19.106193 1.302536 17.189551
v -19.063727 1.302536 17.280086
v -19.120894 1.302536 17.362131
v -19.220537 1.302536 17.353644
v -19.263006 1.302536 17.263110
vt 0.232214 0.057775
vt 0.248144 0.057775
vt 0.224037 0.183719
vt 0.259145 0.183719
vt 0.256110 0.043978
vt 0.231059 0.184030
vt 0.248144 0.030183
vt 0.238075 0.184339
vt 0.232215 0.030183
vt 0.245092 0.184342
vt 0.224249 0.043978
vt 0.252115 0.184030
vt 0.240179 0.043978
vt 0.258428 0.352871
vt 0.224167 0.352769
vt 0.238905 0.383001
vt 0.231078 0.352633
vt 0.237885 0.352556
vt 0.244690 0.352602
vt 0.251502 0.352706
vt 0.245067 0.292279
vt 0.251910 0.293773
vt 0.237894 0.292275
vt 0.231041 0.293714
vt 0.224257 0.295099
vt 0.258682 0.295219
vt 0.245135 0.241539
vt 0.252115 0.241177
vt 0.238082 0.241528
vt 0.231101 0.241134
vt 0.224134 0.240736
vt 0.259078 0.240809
vt 0.255476 0.383001
vt 0.247191 0.397352
vt 0.247191 0.368649
vt 0.230619 0.368649
vt 0.222333 0.383000
vt 0.230619 0.397352
vt 0.252051 0.070531
vt 0.259069 0.070519
vt 0.245045 0.070538
vt 0.238040 0.070538
vt 0.231024 0.070532
vt 0.223995 0.070525
vt 0.217009 0.183702
vt 0.217102 0.240745
vt 0.217224 0.295171
vt 0.247191 0.397352
vt 0.217148 0.352881
vt 0.216966 0.070521
vt 0.232214 0.057775
vn -0.905338 0.000000 0.424691
vn -0.905338 0.000000 0.424691
vn -0.904704 0.037416 0.424394
vn -0.904704 0.037416 0.424394
vn -0.084872 0.000000 0.996392
vn -0.084872 0.000000 0.996392
vn -0.084618 0.024584 0.996110
vn -0.084778 0.009735 0.996352
vn 0.820474 0.000000 0.571683
vn 0.820474 0.000000 0.571683
vn 0.820097 -0.024361 0.571706
vn 0.820384 -0.009586 0.571733
vn 0.905351 0.000000 -0.424664
vn 0.905351 0.000000 -0.424664
vn 0.904744 -0.036565 -0.424384
vn 0.904744 -0.036563 -0.424384
vn 0.084881 0.000000 -0.996391
vn 0.084881 0.000000 -0.996391
vn 0.084785 -0.009585 -0.996353
vn 0.084621 -0.024360 -0.996115
vn -0.820449 0.000000 -0.571719
vn -0.820449 0.000000 -0.571719
vn -0.820359 0.009734 -0.571766
vn -0.820070 0.024584 -0.571734
vn 0.000000 -1.000000 0.000000
vn 0.000000 -1.000000 0.000000
vn 0.000000 -1.000000 0.000000
vn 0.000000 -1.000000 0.000000
vn 0.000000 -1.000000 0.000000
vn 0.000000 -1.000000 0.000000
vn 0.000000 -1.000000 0.000000
vn 0.677165 0.663741 -0.317641
vn 0.677163 0.663737 -0.317655
vn 0.677158 0.663745 -0.317646
vn 0.677156 0.663745 -0.317652
vn 0.677149 0.663754 -0.317649
vn 0.677159 0.663748 -0.317638
vn 0.677166 0.663744 -0.317632
vn -0.039306 -0.341663 -0.939000
vn 0.035735 -0.252253 -0.967001
vn -0.067340 -0.373968 -0.924993
vn -0.067340 -0.373968 -0.924994
vn 0.724367 -0.599858 -0.339798
vn 0.724366 -0.599859 -0.339798
vn 0.600923 -0.747950 -0.281891
vn 0.600923 -0.747950 -0.281891
vn 0.766457 -0.252261 0.590685
vn 0.696949 -0.341670 0.630495
vn 0.668254 -0.373976 0.643101
vn 0.668254 -0.373976 0.643101
vn -0.036297 0.252603 0.966889
vn 0.038021 0.340485 0.939481
vn 0.067321 0.373989 0.924987
vn 0.067321 0.373989 0.924987
vn -0.728877 0.593163 0.341900
vn -0.728882 0.593156 0.341903
vn -0.600924 0.747953 0.281881
vn -0.600924 0.747953 0.281881
vn -0.698131 0.340473 -0.629835
vn -0.766717 0.252600 -0.590202
vn -0.668253 0.373974 -0.643102
vn -0.668253 0.373974 -0.643102
vn 0.075250 -0.172698 -0.982096
vn 0.082436 -0.079975 -0.993382
vn 0.877689 -0.245267 -0.411712
vn 0.877688 -0.245268 -0.411712
vn 0.816599 -0.079979 0.571637
vn 0.803328 -0.172704 0.569945
vn -0.082066 0.081575 0.993283
vn -0.073720 0.176896 0.981465
vn -0.874224 0.259921 0.410088
vn -0.874224 0.259921 0.410088
vn -0.801849 0.176896 -0.570741
vn -0.816266 0.081572 -0.571888
s 1
g Lotus_Stalk_Short2
usemtl lambert4SG
f 79/180/187 80/174/188 109/133/189 110/175/190
s 2
f 80/174/191 81/173/192 108/136/193 109/133/194
s 3
f 81/173/195 82/172/196 107/138/197 108/136/198
s 4
f 82/172/199 83/171/200 106/140/201 107/138/202
s 5
f 83/171/203 84/169/204 105/142/205 106/140/206
s 6
f 84/169/207 79/170/208 110/134/209 105/142/210
s 7
f 80/132/211 79/181/212 91/143/213
f 81/135/214 80/132/211 91/143/213
f 82/137/215 81/135/214 91/143/213
f 83/139/216 82/137/215 91/143/213
f 84/141/217 83/139/216 91/143/213
f 79/131/212 84/141/217 91/143/213
s 8
f 85/178/218 86/168/219 92/146/220
f 86/168/219 87/167/221 92/146/220
f 87/167/221 88/166/222 92/146/220
f 88/166/222 89/165/223 92/146/220
f 89/165/223 90/163/224 92/146/220
f 90/163/224 85/164/218 92/146/220
s 5
f 94/151/225 93/152/226 90/150/227 89/149/228
s 4
f 95/153/229 94/151/230 89/149/231 88/148/232
s 3
f 96/154/233 95/153/234 88/148/235 87/147/236
s 2
f 97/155/237 96/154/238 87/147/239 86/145/240
s 1
f 98/177/241 97/155/242 86/145/243 85/179/244
s 6
f 93/152/245 98/156/246 85/144/247 90/150/248
s 5
f 100/157/249 99/158/250 93/152/226 94/151/225
s 4
f 101/159/251 100/157/252 94/151/230 95/153/229
s 3
f 102/160/253 101/159/254 95/153/234 96/154/233
s 2
f 103/161/255 102/160/256 96/154/238 97/155/237
s 1
f 104/176/257 103/161/258 97/155/242 98/177/241
s 6
f 99/158/259 104/162/260 98/156/246 93/152/245
s 5
f 106/140/206 105/142/205 99/158/250 100/157/249
s 4
f 107/138/202 106/140/201 100/157/252 101/159/251
s 3
f 108/136/198 107/138/197 101/159/254 102/160/253
s 2
f 109/133/194 108/136/193 102/160/256 103/161/255
s 1
f 110/175/190 109/133/189 103/161/258 104/176/257
s 6
f 105/142/210 110/134/209 104/162/260 99/158/259
g default
v -22.370670 -1.288921 18.136225
v -22.434945 -1.288921 18.059620
v -22.533429 -1.288921 18.076986
v -22.567632 -1.288921 18.170955
v -22.503352 -1.288921 18.247561
v -22.404871 -1.288921 18.230196
v -23.986579 4.331211 19.492136
v -24.050859 4.331211 19.415530
v -24.125320 4.264522 19.412742
v -24.135506 4.197834 19.486560
v -24.071231 4.197834 19.563165
v -23.996764 4.264522 19.565950
v -22.469150 -1.288921 18.153591
v -24.061045 4.264522 19.489348
v -22.901174 3.079624 18.646641
v -22.975638 3.012936 18.643855
v -23.039916 3.012936 18.567251
v -23.029733 3.079624 18.493435
v -22.955269 3.146313 18.496221
v -22.890989 3.146313 18.572827
v -22.510074 2.022441 18.318471
v -22.607944 2.010719 18.335324
v -22.672223 2.010719 18.258720
v -22.638631 2.022441 18.165262
v -22.540763 2.034163 18.148411
v -22.476485 2.034163 18.225014
v -22.404871 0.954103 18.230196
v -22.503352 0.954103 18.247561
v -22.567632 0.954103 18.170955
v -22.533429 0.954103 18.076986
v -22.434945 0.954103 18.059620
v -22.370670 0.954103 18.136225
vt 0.065457 0.063347
vt 0.065457 0.042605
vt 0.071763 0.294863
vt 0.063150 0.294863
vt 0.047492 0.032234
vt 0.028744 0.295230
vt 0.029529 0.042606
vt 0.037337 0.295659
vt 0.029530 0.063349
vt 0.045940 0.295672
vt 0.047494 0.073719
vt 0.054542 0.295265
vt 0.047493 0.052977
vt 0.062901 0.646419
vt 0.071513 0.646456
vt 0.047581 0.688624
vt 0.028820 0.646384
vt 0.037329 0.646355
vt 0.045835 0.646361
vt 0.054342 0.646381
vt 0.045826 0.485177
vt 0.054217 0.486715
vt 0.037131 0.485196
vt 0.028741 0.486748
vt 0.071180 0.488270
vt 0.062566 0.488225
vt 0.045800 0.388954
vt 0.054260 0.387791
vt 0.037163 0.388955
vt 0.028707 0.387785
vt 0.071321 0.386667
vt 0.062704 0.386646
vt 0.068562 0.688624
vt 0.058072 0.706794
vt 0.058071 0.670453
vt 0.037090 0.670454
vt 0.026600 0.688625
vt 0.037090 0.706795
vt 0.054841 0.102082
vt 0.063444 0.102089
vt 0.046250 0.102072
vt 0.037659 0.102057
vt 0.029057 0.102038
vt 0.072057 0.102096
vt 0.020144 0.294805
vt 0.020270 0.386632
vt 0.020393 0.488276
vt 0.020258 0.646432
vt 0.020443 0.102018
vn 0.766064 0.000000 -0.642764
vn 0.766064 0.000000 -0.642764
vn 0.765400 0.041531 -0.642213
vn 0.765400 0.041532 -0.642213
vn -0.173651 0.000000 -0.984807
vn -0.173651 0.000000 -0.984807
vn -0.174341 0.028085 -0.984285
vn -0.173902 0.009588 -0.984716
vn -0.939692 0.000000 -0.342021
vn -0.939692 0.000000 -0.342021
vn -0.939056 -0.028059 -0.342617
vn -0.939559 -0.009540 -0.342254
vn -0.766044 0.000000 0.642788
vn -0.766044 0.000000 0.642788
vn -0.765390 -0.041343 0.642238
vn -0.765390 -0.041343 0.642238
vn 0.173649 0.000000 0.984808
vn 0.173649 0.000000 0.984808
vn 0.173902 -0.009541 0.984717
vn 0.174347 -0.028059 0.984284
vn 0.939697 0.000000 0.342009
vn 0.939697 0.000000 0.342009
vn 0.939564 0.009588 0.342240
vn 0.939062 0.028085 0.342598
vn 0.000000 -1.000000 0.000000
vn 0.000000 -1.000000 0.000000
vn 0.000000 -1.000000 0.000000
vn 0.000000 -1.000000 0.000000
vn 0.000000 -1.000000 0.000000
vn 0.000000 -1.000000 0.000000
vn 0.000000 -1.000000 0.000000
vn -0.589886 0.637980 0.494992
vn -0.589905 0.637979 0.494970
vn -0.589896 0.637984 0.494974
vn -0.589910 0.637979 0.494964
vn -0.589908 0.637983 0.494961
vn -0.589880 0.637996 0.494977
vn -0.589873 0.637990 0.494993
vn 0.293388 -0.362310 0.884677
vn 0.228293 -0.284156 0.931202
vn 0.312321 -0.385016 0.868457
vn 0.312321 -0.385016 0.868457
vn -0.576975 -0.657813 0.484131
vn -0.576975 -0.657813 0.484131
vn -0.488727 -0.770053 0.410078
vn -0.488727 -0.770053 0.410078
vn -0.877414 -0.284166 -0.386515
vn -0.820294 -0.362319 -0.442540
vn -0.801031 -0.385027 -0.458370
vn -0.801031 -0.385027 -0.458370
vn -0.227085 0.283179 -0.931795
vn -0.292585 0.361462 -0.885291
vn -0.312320 0.385017 -0.868457
vn -0.312319 0.385017 -0.868457
vn 0.581324 0.651248 -0.487789
vn 0.581324 0.651248 -0.487789
vn 0.488721 0.770053 -0.410086
vn 0.488721 0.770053 -0.410086
vn 0.821036 0.361464 0.441863
vn 0.878208 0.283185 0.385431
vn 0.801030 0.385021 0.458377
vn 0.801030 0.385021 0.458377
vn 0.181176 -0.199370 0.963030
vn 0.176619 -0.092944 0.979881
vn -0.733848 -0.286867 0.615772
vn -0.733848 -0.286867 0.615771
vn -0.934326 -0.092944 -0.344088
vn -0.916941 -0.199375 -0.345642
vn -0.176773 0.093975 -0.979755
vn -0.181715 0.201503 -0.962484
vn 0.731731 0.295960 -0.613986
vn 0.731731 0.295960 -0.613986
vn 0.916311 0.201508 0.346075
vn 0.934179 0.093977 0.344207
s 1
g Lotus_Stalk_Tall
usemtl lambert4SG
f 111/221/261 112/225/262 141/184/263 142/185/264
s 2
f 112/230/265 113/224/266 140/187/267 141/226/268
s 3
f 113/224/269 114/223/270 139/189/271 140/187/272
s 4
f 114/223/273 115/222/274 138/191/275 139/189/276
s 5
f 115/222/277 116/220/278 137/193/279 138/191/280
s 6
f 116/220/281 111/221/282 142/185/283 137/193/284
s 7
f 112/183/285 111/182/286 123/194/287
f 113/186/288 112/183/285 123/194/287
f 114/188/289 113/186/288 123/194/287
f 115/190/290 114/188/289 123/194/287
f 116/192/291 115/190/290 123/194/287
f 111/182/286 116/192/291 123/194/287
s 8
f 117/215/292 118/219/293 124/197/294
f 118/219/293 119/218/295 124/197/294
f 119/218/295 120/217/296 124/197/294
f 120/217/296 121/216/297 124/197/294
f 121/216/297 122/214/298 124/197/294
f 122/214/298 117/215/292 124/197/294
s 5
f 126/202/299 125/203/300 122/201/301 121/200/302
s 4
f 127/204/303 126/202/304 121/200/305 120/199/306
s 3
f 128/205/307 127/204/308 120/199/309 119/198/310
s 2
f 129/228/311 128/205/312 119/198/313 118/229/314
s 1
f 130/207/315 129/206/316 118/196/317 117/195/318
s 6
f 125/203/319 130/207/320 117/195/321 122/201/322
s 5
f 132/208/323 131/209/324 125/203/300 126/202/299
s 4
f 133/210/325 132/208/326 126/202/304 127/204/303
s 3
f 134/211/327 133/210/328 127/204/308 128/205/307
s 2
f 135/227/329 134/211/330 128/205/312 129/228/311
s 1
f 136/213/331 135/212/332 129/206/316 130/207/315
s 6
f 131/209/333 136/213/334 130/207/320 125/203/319
s 5
f 138/191/280 137/193/279 131/209/324 132/208/323
s 4
f 139/189/276 138/191/275 132/208/326 133/210/325
s 3
f 140/187/272 139/189/271 133/210/328 134/211/327
s 2
f 141/226/268 140/187/267 134/211/330 135/227/329
s 1
f 142/185/264 141/184/263 135/212/332 136/213/331
s 6
f 137/193/284 142/185/283 136/213/334 131/209/333
