# This file uses centimeters as units for non-parametric coordinates.

mtllib Model_LilyPads.mtl
g default
v -6.922166 -0.148350 -1.415562
v -7.680536 -0.148350 -2.717900
v -8.861726 -0.148350 -3.751440
v -10.350112 -0.148350 -4.415014
v -12.000000 -0.148350 -4.643666
v -13.649888 -0.148350 -4.415014
v -15.138273 -0.148350 -3.751440
v -16.319462 -0.148350 -2.717899
v -17.077832 -0.148350 -1.415562
v -17.339147 -0.148350 0.028090
v -17.077832 -0.148350 1.471741
v -16.319462 -0.148350 2.774079
v -15.138272 -0.148350 3.807619
v -13.649888 -0.148350 4.471193
v -12.000000 -0.148350 4.699845
v -10.350113 -0.148350 4.471192
v -8.861728 -0.148350 3.807618
v -7.680540 -0.148350 2.774078
v -6.922170 -0.148350 1.471741
v -9.973420 -0.148350 0.028090
v -6.922166 0.385564 -1.415562
v -7.680536 0.385564 -2.717900
v -8.861726 0.385564 -3.751440
v -10.350112 0.385564 -4.415014
v -12.000000 0.385564 -4.643666
v -13.649888 0.385564 -4.415014
v -15.138273 0.385564 -3.751440
v -16.319462 0.385564 -2.717899
v -17.077832 0.385564 -1.415562
v -17.339147 0.385564 0.028090
v -17.077832 0.385564 1.471741
v -16.319462 0.385564 2.774079
v -15.138272 0.385564 3.807619
v -13.649888 0.385564 4.471193
v -12.000000 0.385564 4.699845
v -10.350113 0.385564 4.471192
v -8.861728 0.385564 3.807618
v -7.680540 0.385564 2.774078
v -6.922170 0.385564 1.471741
v -9.973420 0.385564 0.028090
v -12.000000 -0.148350 0.028090
v -12.000000 0.385564 0.028090
vt 0.271493 0.719116
vt 0.258301 0.695968
vt 0.177858 0.952389
vt 0.190497 0.929140
vt 0.237591 0.677503
vt 0.157660 0.971137
vt 0.211389 0.665527
vt 0.131880 0.983551
vt 0.182260 0.661212
vt 0.103040 0.988415
vt 0.153056 0.664982
vt 0.073966 0.985253
vt 0.126635 0.676467
vt 0.047500 0.974375
vt 0.105584 0.694543
vt 0.026236 0.956844
vt 0.091962 0.717440
vt 0.012254 0.934378
vt 0.087105 0.742918
vt 0.006924 0.909175
vt 0.091486 0.768482
vt 0.010765 0.883703
vt 0.104677 0.791629
vt 0.023404 0.860455
vt 0.125388 0.810095
vt 0.043601 0.841706
vt 0.151590 0.822071
vt 0.069382 0.829292
vt 0.180719 0.826385
vt 0.098221 0.824428
vt 0.209923 0.822615
vt 0.127296 0.827590
vt 0.236344 0.811130
vt 0.153761 0.838468
vt 0.257395 0.793055
vt 0.175025 0.855999
vt 0.271016 0.770157
vt 0.189007 0.878465
vt 0.217315 0.744133
vt 0.136199 0.905376
vt 0.181489 0.743799
vt 0.100631 0.906421
vt 0.935129 0.902739
vt 0.884299 0.902739
vt 0.456308 0.902738
vt 0.479003 0.902739
vt 0.502638 0.902739
vt 0.527177 0.902739
vt 0.552260 0.902738
vt 0.577342 0.902739
vt 0.601882 0.902739
vt 0.625517 0.902739
vt 0.648211 0.902739
vt 0.670303 0.902739
vt 0.692396 0.902739
vt 0.715090 0.902739
vt 0.738725 0.902739
vt 0.763265 0.902739
vt 0.788347 0.902739
vt 0.813430 0.902739
vt 0.837969 0.902739
vt 0.861604 0.902739
vt 0.405478 0.910779
vt 0.884299 0.910778
vt 0.456308 0.910779
vt 0.479003 0.910779
vt 0.502638 0.910779
vt 0.527177 0.910778
vt 0.552259 0.910778
vt 0.577342 0.910778
vt 0.601882 0.910778
vt 0.625517 0.910778
vt 0.648211 0.910778
vt 0.670303 0.910779
vt 0.692396 0.910779
vt 0.715090 0.910779
vt 0.738725 0.910779
vt 0.763265 0.910778
vt 0.788347 0.910779
vt 0.813430 0.910778
vt 0.837969 0.910779
vt 0.861604 0.910778
vt 0.935129 0.910778
vt 0.405478 0.902739
vn 0.767594 0.000000 0.640936
vn 0.769355 0.000000 -0.638822
vn 0.769355 0.000000 -0.638822
vn 0.767594 0.000000 0.640936
vn 0.536492 0.000000 -0.843906
vn 0.536492 0.000000 -0.843906
vn 0.273467 0.000000 -0.961881
vn 0.273467 0.000000 -0.961881
vn -0.000000 0.000000 -1.000000
vn -0.000000 0.000000 -1.000000
vn -0.273467 0.000000 -0.961881
vn -0.273467 0.000000 -0.961881
vn -0.536492 0.000000 -0.843906
vn -0.536492 0.000000 -0.843906
vn -0.769355 0.000000 -0.638821
vn -0.769355 0.000000 -0.638821
vn -0.937453 0.000000 -0.348110
vn -0.937453 0.000000 -0.348110
vn -1.000000 0.000000 0.000000
vn -1.000000 0.000000 0.000000
vn -0.937453 0.000000 0.348111
vn -0.937453 0.000000 0.348111
vn -0.769355 0.000000 0.638822
vn -0.769355 0.000000 0.638822
vn -0.536492 0.000000 0.843906
vn -0.536492 0.000000 0.843906
vn -0.273468 0.000000 0.961881
vn -0.273468 0.000000 0.961881
vn 0.000000 0.000000 1.000000
vn 0.000000 0.000000 1.000000
vn 0.273468 0.000000 0.961881
vn 0.273468 0.000000 0.961881
vn 0.536492 0.000000 0.843906
vn 0.536492 0.000000 0.843906
vn 0.769355 0.000000 0.638822
vn 0.769355 0.000000 0.638822
vn 0.767595 0.000000 -0.640936
vn 0.767595 0.000000 -0.640936
vn 1.000000 0.000000 0.000001
vn 1.000000 0.000000 0.000001
vn 0.000000 -1.000000 0.000000
vn 0.000000 -1.000000 0.000000
vn 0.000000 -1.000000 0.000000
vn 0.000000 -1.000000 0.000000
vn 0.000000 -1.000000 0.000000
vn 0.000000 -1.000000 0.000000
vn 0.000000 -1.000000 0.000000
vn 0.000000 -1.000000 0.000000
vn 0.000000 -1.000000 0.000000
vn 0.000000 -1.000000 0.000000
vn 0.000000 -1.000000 0.000000
vn 0.000000 -1.000000 0.000000
vn 0.000000 -1.000000 0.000000
vn 0.000000 -1.000000 0.000000
vn 0.000000 -1.000000 0.000000
vn 0.000000 -1.000000 0.000000
vn 0.000000 -1.000000 0.000000
vn 0.000000 -1.000000 0.000000
vn 0.000000 -1.000000 0.000000
vn 0.000000 -1.000000 0.000000
vn 0.000000 -1.000000 0.000000
vn 0.000000 1.000000 0.000000
vn 0.000000 1.000000 0.000000
vn 0.000000 1.000000 0.000000
vn 0.000000 1.000000 0.000000
vn 0.000000 1.000000 0.000000
vn 0.000000 1.000000 0.000000
vn 0.000000 1.000000 0.000000
vn 0.000000 1.000000 0.000000
vn 0.000000 1.000000 0.000000
vn 0.000000 1.000000 0.000000
vn 0.000000 1.000000 0.000000
vn 0.000000 1.000000 0.000000
vn 0.000000 1.000000 0.000000
vn 0.000000 1.000000 0.000000
vn 0.000000 1.000000 0.000000
vn 0.000000 1.000000 0.000000
vn 0.000000 1.000000 0.000000
vn 0.000000 1.000000 0.000000
vn 0.000000 1.000000 0.000000
vn 0.000000 1.000000 0.000000
vn 0.000000 1.000000 0.000000
s 1
g Left_Lily_Pad_Large
usemtl lambert4SG
f 1/64/1 2/82/2 22/62/3 21/44/4
f 2/82/2 3/81/5 23/61/6 22/62/3
f 3/81/5 4/80/7 24/60/8 23/61/6
f 4/80/7 5/79/9 25/59/10 24/60/8
f 5/79/9 6/78/11 26/58/12 25/59/10
f 6/78/11 7/77/13 27/57/14 26/58/12
f 7/77/13 8/76/15 28/56/16 27/57/14
f 8/76/15 9/75/17 29/55/18 28/56/16
f 9/75/17 10/74/19 30/54/20 29/55/18
f 10/74/19 11/73/21 31/53/22 30/54/20
f 11/73/21 12/72/23 32/52/24 31/53/22
f 12/72/23 13/71/25 33/51/26 32/52/24
f 13/71/25 14/70/27 34/50/28 33/51/26
f 14/70/27 15/69/29 35/49/30 34/50/28
f 15/69/29 16/68/31 36/48/32 35/49/30
f 16/68/31 17/67/33 37/47/34 36/48/32
f 17/67/33 18/66/35 38/46/36 37/47/34
f 18/66/35 19/65/37 39/45/38 38/46/36
f 19/65/37 20/63/39 40/84/40 39/45/38
f 20/83/39 1/64/1 21/44/4 40/43/40
s 2
f 2/2/41 1/1/42 41/41/43
f 3/5/44 2/2/41 41/41/43
f 4/7/45 3/5/44 41/41/43
f 5/9/46 4/7/45 41/41/43
f 6/11/47 5/9/46 41/41/43
f 7/13/48 6/11/47 41/41/43
f 8/15/49 7/13/48 41/41/43
f 9/17/50 8/15/49 41/41/43
f 10/19/51 9/17/50 41/41/43
f 11/21/52 10/19/51 41/41/43
f 12/23/53 11/21/52 41/41/43
f 13/25/54 12/23/53 41/41/43
f 14/27/55 13/25/54 41/41/43
f 15/29/56 14/27/55 41/41/43
f 16/31/57 15/29/56 41/41/43
f 17/33/58 16/31/57 41/41/43
f 18/35/59 17/33/58 41/41/43
f 19/37/60 18/35/59 41/41/43
f 20/39/61 19/37/60 41/41/43
f 1/1/42 20/39/61 41/41/43
s 3
f 21/4/62 22/3/63 42/42/64
f 22/3/63 23/6/65 42/42/64
f 23/6/65 24/8/66 42/42/64
f 24/8/66 25/10/67 42/42/64
f 25/10/67 26/12/68 42/42/64
f 26/12/68 27/14/69 42/42/64
f 27/14/69 28/16/70 42/42/64
f 28/16/70 29/18/71 42/42/64
f 29/18/71 30/20/72 42/42/64
f 30/20/72 31/22/73 42/42/64
f 31/22/73 32/24/74 42/42/64
f 32/24/74 33/26/75 42/42/64
f 33/26/75 34/28/76 42/42/64
f 34/28/76 35/30/77 42/42/64
f 35/30/77 36/32/78 42/42/64
f 36/32/78 37/34/79 42/42/64
f 37/34/79 38/36/80 42/42/64
f 38/36/80 39/38/81 42/42/64
f 39/38/81 40/40/82 42/42/64
f 40/40/82 21/4/62 42/42/64
g default
v -13.461084 -0.014872 5.568291
v -13.840268 -0.014872 5.010147
v -14.430863 -0.014872 4.567200
v -15.175056 -0.014872 4.282811
v -16.000000 -0.014872 4.184818
v -16.824944 -0.014872 4.282812
v -17.569137 -0.014872 4.567201
v -18.159731 -0.014872 5.010147
v -18.538915 -0.014872 5.568292
v -18.669573 -0.014872 6.186999
v -18.538915 -0.014872 6.805707
v -18.159731 -0.014872 7.363852
v -17.569137 -0.014872 7.806797
v -16.824944 -0.014872 8.091186
v -16.000000 -0.014872 8.189179
v -15.175056 -0.014872 8.091186
v -14.430864 -0.014872 7.806797
v -13.840269 -0.014872 7.363852
v -13.461085 -0.014872 6.805707
v -13.330427 -0.014872 6.186999
v -13.461084 0.252086 5.568291
v -13.840268 0.252086 5.010147
v -14.430863 0.252086 4.567200
v -15.175056 0.252086 4.282811
v -16.000000 0.252086 4.184818
v -16.824944 0.252086 4.282812
v -17.569137 0.252086 4.567201
v -18.159731 0.252086 5.010147
v -18.538915 0.252086 5.568292
v -18.669573 0.252086 6.186999
v -18.538915 0.252086 6.805707
v -18.159731 0.252086 7.363852
v -17.569137 0.252086 7.806797
v -16.824944 0.252086 8.091186
v -16.000000 0.252086 8.189179
v -15.175056 0.252086 8.091186
v -14.430864 0.252086 7.806797
v -13.840269 0.252086 7.363852
v -13.461085 0.252086 6.805707
v -13.330427 0.252086 6.186999
v -16.000000 -0.014872 6.186999
v -16.000000 0.252086 6.186999
vt 0.483461 0.736203
vt 0.492442 0.749274
vt 0.575227 0.868549
vt 0.583573 0.855126
vt 0.506377 0.759610
vt 0.561825 0.879475
vt 0.523902 0.766201
vt 0.544677 0.886836
vt 0.543302 0.768402
vt 0.525463 0.889911
vt 0.562678 0.765997
vt 0.506063 0.888400
vt 0.580132 0.759220
vt 0.488376 0.882450
vt 0.593957 0.748736
vt 0.474134 0.872642
vt 0.602799 0.735572
vt 0.464730 0.859938
vt 0.605793 0.721015
vt 0.461086 0.845582
vt 0.602646 0.706491
vt 0.463557 0.830978
vt 0.593665 0.693420
vt 0.471903 0.817556
vt 0.579730 0.683083
vt 0.485305 0.806629
vt 0.562204 0.676492
vt 0.502453 0.799268
vt 0.542804 0.674292
vt 0.521667 0.796192
vt 0.523429 0.676698
vt 0.541067 0.797704
vt 0.505974 0.683474
vt 0.558754 0.803655
vt 0.492149 0.693957
vt 0.572996 0.813462
vt 0.483307 0.707121
vt 0.582400 0.826165
vt 0.480313 0.721679
vt 0.586044 0.840522
vt 0.543053 0.721347
vt 0.523565 0.843052
vt 0.620801 0.955149
vt 0.633756 0.955149
vt 0.607846 0.955149
vt 0.594022 0.955149
vt 0.578897 0.955149
vt 0.562575 0.955149
vt 0.545556 0.955149
vt 0.528536 0.955149
vt 0.512214 0.955149
vt 0.497090 0.955149
vt 0.483266 0.955149
vt 0.470310 0.955149
vt 0.457355 0.955149
vt 0.443531 0.955149
vt 0.428406 0.955149
vt 0.412085 0.955149
vt 0.696046 0.955149
vt 0.679027 0.955149
vt 0.662705 0.955149
vt 0.647580 0.955149
vt 0.620801 0.949680
vt 0.633756 0.949680
vt 0.607846 0.949680
vt 0.594022 0.949680
vt 0.578897 0.949680
vt 0.562575 0.949680
vt 0.545556 0.949680
vt 0.528536 0.949680
vt 0.512214 0.949680
vt 0.497090 0.949680
vt 0.483266 0.949680
vt 0.470310 0.949680
vt 0.457355 0.949680
vt 0.443531 0.949680
vt 0.428406 0.949680
vt 0.713066 0.949680
vt 0.696046 0.949680
vt 0.679027 0.949680
vt 0.662705 0.949680
vt 0.647580 0.949680
vt 0.412085 0.949680
vt 0.713066 0.955149
vn 0.917592 0.000000 -0.397523
vn 0.718250 0.000000 -0.695785
vn 0.718250 0.000000 -0.695785
vn 0.917592 0.000000 -0.397523
vn 0.478482 0.000000 -0.878097
vn 0.478482 0.000000 -0.878097
vn 0.236761 0.000000 -0.971568
vn 0.236761 0.000000 -0.971568
vn -0.000000 0.000000 -1.000000
vn -0.000000 0.000000 -1.000000
vn -0.236761 0.000000 -0.971568
vn -0.236761 0.000000 -0.971568
vn -0.478482 0.000000 -0.878097
vn -0.478482 0.000000 -0.878097
vn -0.718251 0.000000 -0.695784
vn -0.718251 0.000000 -0.695784
vn -0.917592 0.000000 -0.397524
vn -0.917592 0.000000 -0.397524
vn -1.000000 0.000000 0.000000
vn -1.000000 0.000000 0.000000
vn -0.917592 0.000000 0.397524
vn -0.917592 0.000000 0.397524
vn -0.718250 0.000000 0.695785
vn -0.718250 0.000000 0.695785
vn -0.478481 0.000000 0.878098
vn -0.478481 0.000000 0.878098
vn -0.236761 0.000000 0.971568
vn -0.236761 0.000000 0.971568
vn 0.000000 0.000000 1.000000
vn 0.000000 0.000000 1.000000
vn 0.236761 0.000000 0.971568
vn 0.236761 0.000000 0.971568
vn 0.478481 0.000000 0.878098
vn 0.478481 0.000000 0.878098
vn 0.718250 0.000000 0.695785
vn 0.718250 0.000000 0.695785
vn 0.917592 0.000000 0.397524
vn 0.917592 0.000000 0.397524
vn 1.000000 0.000000 0.000001
vn 1.000000 0.000000 0.000001
vn 0.000000 -1.000000 0.000000
vn 0.000000 -1.000000 0.000000
vn 0.000000 -1.000000 0.000000
vn 0.000000 -1.000000 0.000000
vn 0.000000 -1.000000 0.000000
vn 0.000000 -1.000000 0.000000
vn 0.000000 -1.000000 0.000000
vn 0.000000 -1.000000 0.000000
vn 0.000000 -1.000000 0.000000
vn 0.000000 -1.000000 0.000000
vn 0.000000 -1.000000 0.000000
vn 0.000000 -1.000000 0.000000
vn 0.000000 -1.000000 0.000000
vn 0.000000 -1.000000 0.000000
vn 0.000000 -1.000000 0.000000
vn 0.000000 -1.000000 0.000000
vn 0.000000 -1.000000 0.000000
vn 0.000000 -1.000000 0.000000
vn 0.000000 -1.000000 0.000000
vn 0.000000 -1.000000 0.000000
vn 0.000000 -1.000000 0.000000
vn 0.000000 1.000000 0.000000
vn 0.000000 1.000000 0.000000
vn 0.000000 1.000000 0.000000
vn 0.000000 1.000000 0.000000
vn 0.000000 1.000000 0.000000
vn 0.000000 1.000000 0.000000
vn 0.000000 1.000000 0.000000
vn 0.000000 1.000000 -0.000000
vn 0.000000 1.000000 -0.000000
vn 0.000000 1.000000 0.000000
vn 0.000000 1.000000 0.000000
vn 0.000000 1.000000 0.000000
vn 0.000000 1.000000 0.000000
vn 0.000000 1.000000 0.000000
vn 0.000000 1.000000 0.000000
vn 0.000000 1.000000 0.000000
vn 0.000000 1.000000 0.000000
vn 0.000000 1.000000 0.000000
vn 0.000000 1.000000 0.000000
vn 0.000000 1.000000 0.000000
vn 0.000000 1.000000 0.000000
s 1
g Left_Lily_Pad_Small
usemtl lambert4SG
f 43/148/83 44/166/84 64/146/85 63/128/86
f 44/166/84 45/165/87 65/145/88 64/146/85
f 45/165/87 46/164/89 66/144/90 65/145/88
f 46/164/89 47/163/91 67/143/92 66/144/90
f 47/163/91 48/162/93 68/168/94 67/143/92
f 48/167/93 49/161/95 69/141/96 68/142/94
f 49/161/95 50/160/97 70/140/98 69/141/96
f 50/160/97 51/159/99 71/139/100 70/140/98
f 51/159/99 52/158/101 72/138/102 71/139/100
f 52/158/101 53/157/103 73/137/104 72/138/102
f 53/157/103 54/156/105 74/136/106 73/137/104
f 54/156/105 55/155/107 75/135/108 74/136/106
f 55/155/107 56/154/109 76/134/110 75/135/108
f 56/154/109 57/153/111 77/133/112 76/134/110
f 57/153/111 58/152/113 78/132/114 77/133/112
f 58/152/113 59/151/115 79/131/116 78/132/114
f 59/151/115 60/150/117 80/130/118 79/131/116
f 60/150/117 61/149/119 81/129/120 80/130/118
f 61/149/119 62/147/121 82/127/122 81/129/120
f 62/147/121 43/148/83 63/128/86 82/127/122
s 2
f 44/86/123 43/85/124 83/125/125
f 45/89/126 44/86/123 83/125/125
f 46/91/127 45/89/126 83/125/125
f 47/93/128 46/91/127 83/125/125
f 48/95/129 47/93/128 83/125/125
f 49/97/130 48/95/129 83/125/125
f 50/99/131 49/97/130 83/125/125
f 51/101/132 50/99/131 83/125/125
f 52/103/133 51/101/132 83/125/125
f 53/105/134 52/103/133 83/125/125
f 54/107/135 53/105/134 83/125/125
f 55/109/136 54/107/135 83/125/125
f 56/111/137 55/109/136 83/125/125
f 57/113/138 56/111/137 83/125/125
f 58/115/139 57/113/138 83/125/125
f 59/117/140 58/115/139 83/125/125
f 60/119/141 59/117/140 83/125/125
f 61/121/142 60/119/141 83/125/125
f 62/123/143 61/121/142 83/125/125
f 43/85/124 62/123/143 83/125/125
s 3
f 63/88/144 64/87/145 84/126/146
f 64/87/145 65/90/147 84/126/146
f 65/90/147 66/92/148 84/126/146
f 66/92/148 67/94/149 84/126/146
f 67/94/149 68/96/150 84/126/146
f 68/96/150 69/98/151 84/126/146
f 69/98/151 70/100/152 84/126/146
f 70/100/152 71/102/153 84/126/146
f 71/102/153 72/104/154 84/126/146
f 72/104/154 73/106/155 84/126/146
f 73/106/155 74/108/156 84/126/146
f 74/108/156 75/110/157 84/126/146
f 75/110/157 76/112/158 84/126/146
f 76/112/158 77/114/159 84/126/146
f 77/114/159 78/116/160 84/126/146
f 78/116/160 79/118/161 84/126/146
f 79/118/161 80/120/162 84/126/146
f 80/120/162 81/122/163 84/126/146
f 81/122/163 82/124/164 84/126/146
f 82/124/164 63/88/144 84/126/146
g default
v -11.306121 -0.014872 8.015625
v -11.495715 -0.014872 7.717947
v -11.791011 -0.014872 7.481710
v -12.163108 -0.014872 7.330036
v -12.575580 -0.014872 7.277773
v -12.988052 -0.014872 7.330036
v -13.360149 -0.014872 7.481710
v -13.655445 -0.014872 7.717948
v -13.845038 -0.014872 8.015625
v -13.910367 -0.014872 8.345602
v -13.845038 -0.014872 8.675580
v -13.355001 -0.014872 8.778574
v -13.360149 -0.014872 9.209494
v -12.988052 -0.014872 9.361168
v -12.575580 -0.014872 9.413432
v -12.163108 -0.014872 9.361168
v -11.791011 -0.014872 9.209494
v -11.495715 -0.014872 8.973257
v -11.306122 -0.014872 8.675579
v -11.240793 -0.014872 8.345602
v -11.306121 0.252086 8.015625
v -11.495715 0.252086 7.717947
v -11.791011 0.252086 7.481710
v -12.163108 0.252086 7.330036
v -12.575580 0.252086 7.277773
v -12.988052 0.252086 7.330036
v -13.360149 0.252086 7.481710
v -13.655445 0.252086 7.717948
v -13.845038 0.252086 8.015625
v -13.910367 0.252086 8.345602
v -13.845038 0.252086 8.675580
v -13.355001 0.252086 8.778574
v -13.360149 0.252086 9.209494
v -12.988052 0.252086 9.361168
v -12.575580 0.252086 9.413432
v -12.163108 0.252086 9.361168
v -11.791011 0.252086 9.209494
v -11.495715 0.252086 8.973257
v -11.306122 0.252086 8.675579
v -11.240793 0.252086 8.345602
v -12.575580 -0.014872 8.345602
v -12.575580 0.252086 8.345602
vt 0.914844 0.764631
vt 0.909018 0.754956
vt 0.820867 0.866137
vt 0.826834 0.856589
vt 0.899761 0.747161
vt 0.811511 0.873754
vt 0.887980 0.742011
vt 0.799681 0.878694
vt 0.874827 0.740007
vt 0.786537 0.880474
vt 0.861590 0.741348
vt 0.773364 0.878919
vt 0.849565 0.745901
vt 0.761451 0.874182
vt 0.839929 0.753221
vt 0.751966 0.866725
vt 0.833625 0.762591
vt 0.745837 0.857280
vt 0.831270 0.773095
vt 0.743663 0.846771
vt 0.833095 0.783703
vt 0.745657 0.836226
vt 0.848688 0.787392
vt 0.761262 0.832807
vt 0.848177 0.801172
vt 0.760980 0.819061
vt 0.859958 0.806323
vt 0.772810 0.814121
vt 0.873111 0.808326
vt 0.785955 0.812342
vt 0.886348 0.806987
vt 0.799127 0.813896
vt 0.898373 0.802433
vt 0.811040 0.818634
vt 0.908010 0.795113
vt 0.820525 0.826090
vt 0.914314 0.785743
vt 0.826654 0.835535
vt 0.916669 0.775239
vt 0.828828 0.846044
vt 0.873969 0.774167
vt 0.786246 0.846407
vt 0.808460 0.956136
vt 0.817553 0.956136
vt 0.799369 0.956136
vt 0.789829 0.956136
vt 0.779607 0.956136
vt 0.768746 0.956135
vt 0.757508 0.956135
vt 0.746269 0.956136
vt 0.735408 0.956136
vt 0.723760 0.956135
vt 0.919458 0.956135
vt 0.910366 0.956135
vt 0.901274 0.956135
vt 0.891734 0.956135
vt 0.881512 0.956135
vt 0.870651 0.956136
vt 0.859413 0.956135
vt 0.848175 0.956135
vt 0.837314 0.956135
vt 0.827092 0.956136
vt 0.808460 0.948920
vt 0.817553 0.948920
vt 0.799368 0.948920
vt 0.789829 0.948920
vt 0.779607 0.948920
vt 0.768746 0.948920
vt 0.757508 0.948920
vt 0.746269 0.948920
vt 0.735408 0.948920
vt 0.932993 0.948920
vt 0.919458 0.948920
vt 0.910366 0.948920
vt 0.901274 0.948920
vt 0.891734 0.948920
vt 0.881512 0.948920
vt 0.870651 0.948920
vt 0.859413 0.948920
vt 0.848175 0.948920
vt 0.837314 0.948920
vt 0.827092 0.948920
vt 0.723760 0.948920
vt 0.932993 0.956135
vn 0.926499 0.000000 -0.376297
vn 0.740276 0.000000 -0.672303
vn 0.740276 0.000000 -0.672303
vn 0.926499 0.000000 -0.376297
vn 0.502516 0.000000 -0.864568
vn 0.502516 0.000000 -0.864568
vn 0.251575 0.000000 -0.967838
vn 0.251575 0.000000 -0.967838
vn 0.000000 0.000000 -1.000000
vn 0.000000 0.000000 -1.000000
vn -0.251575 0.000000 -0.967838
vn -0.251575 0.000000 -0.967838
vn -0.502517 0.000000 -0.864567
vn -0.502517 0.000000 -0.864567
vn -0.740277 0.000000 -0.672302
vn -0.740277 0.000000 -0.672302
vn -0.926499 0.000000 -0.376297
vn -0.926499 0.000000 -0.376297
vn -1.000000 0.000000 0.000000
vn -1.000000 0.000000 0.000000
vn -0.614843 0.000000 0.788649
vn -0.614843 0.000000 0.788649
vn -0.740277 0.000000 0.672302
vn -0.740277 0.000000 0.672302
vn -0.846147 0.000000 0.532949
vn -0.846147 0.000000 0.532949
vn -0.251575 0.000000 0.967838
vn -0.251575 0.000000 0.967838
vn 0.000000 0.000000 1.000000
vn 0.000000 0.000000 1.000000
vn 0.251575 0.000000 0.967838
vn 0.251575 0.000000 0.967838
vn 0.502516 0.000000 0.864568
vn 0.502516 0.000000 0.864568
vn 0.740277 0.000000 0.672302
vn 0.740277 0.000000 0.672302
vn 0.926499 0.000000 0.376297
vn 0.926499 0.000000 0.376297
vn 1.000000 0.000000 0.000002
vn 1.000000 0.000000 0.000002
vn 0.000000 -1.000000 0.000000
vn 0.000000 -1.000000 0.000000
vn 0.000000 -1.000000 0.000000
vn 0.000000 -1.000000 0.000000
vn 0.000000 -1.000000 0.000000
vn 0.000000 -1.000000 0.000000
vn 0.000000 -1.000000 0.000000
vn 0.000000 -1.000000 0.000000
vn 0.000000 -1.000000 0.000000
vn 0.000000 -1.000000 0.000000
vn 0.000000 -1.000000 0.000000
vn 0.000000 -1.000000 0.000000
vn 0.000000 -1.000000 0.000000
vn 0.000000 -1.000000 0.000000
vn 0.000000 -1.000000 0.000000
vn 0.000000 -1.000000 0.000000
vn 0.000000 -1.000000 0.000000
vn 0.000000 -1.000000 0.000000
vn 0.000000 -1.000000 0.000000
vn 0.000000 -1.000000 0.000000
vn 0.000000 -1.000000 0.000000
vn 0.000000 1.000000 0.000000
vn 0.000000 1.000000 0.000000
vn 0.000000 1.000000 -0.000000
vn 0.000000 1.000000 0.000000
vn 0.000000 1.000000 0.000000
vn 0.000000 1.000000 0.000000
vn 0.000000 1.000000 0.000000
vn 0.000000 1.000000 -0.000000
vn 0.000000 1.000000 -0.000000
vn 0.000000 1.000000 0.000000
vn 0.000000 1.000000 0.000000
vn 0.000000 1.000000 0.000000
vn 0.000000 1.000000 0.000000
vn 0.000000 1.000000 0.000000
vn 0.000000 1.000000 0.000000
vn 0.000000 1.000000 0.000000
vn 0.000000 1.000000 0.000000
vn 0.000000 1.000000 0.000000
vn 0.000000 1.000000 0.000000
vn 0.000000 1.000000 0.000000
vn 0.000000 1.000000 0.000000
s 1
g Left_Lily_Pad_Smallest
usemtl lambert4SG
f 85/232/165 86/250/166 106/230/167 105/212/168
f 86/250/166 87/249/169 107/229/170 106/230/167
f 87/249/169 88/248/171 108/228/172 107/229/170
f 88/248/171 89/247/173 109/227/174 108/228/172
f 89/247/173 90/246/175 110/226/176 109/227/174
f 90/246/175 91/245/177 111/225/178 110/226/176
f 91/245/177 92/244/179 112/224/180 111/225/178
f 92/244/179 93/243/181 113/223/182 112/224/180
f 93/243/181 94/242/183 114/222/184 113/223/182
f 94/242/183 95/241/185 115/221/186 114/222/184
f 95/241/185 96/240/187 116/252/188 115/221/186
f 96/251/187 97/239/189 117/219/190 116/220/188
f 97/239/189 98/238/191 118/218/192 117/219/190
f 98/238/191 99/237/193 119/217/194 118/218/192
f 99/237/193 100/236/195 120/216/196 119/217/194
f 100/236/195 101/235/197 121/215/198 120/216/196
f 101/235/197 102/234/199 122/214/200 121/215/198
f 102/234/199 103/233/201 123/213/202 122/214/200
f 103/233/201 104/231/203 124/211/204 123/213/202
f 104/231/203 85/232/165 105/212/168 124/211/204
s 2
f 86/170/205 85/169/206 125/209/207
f 87/173/208 86/170/205 125/209/207
f 88/175/209 87/173/208 125/209/207
f 89/177/210 88/175/209 125/209/207
f 90/179/211 89/177/210 125/209/207
f 91/181/212 90/179/211 125/209/207
f 92/183/213 91/181/212 125/209/207
f 93/185/214 92/183/213 125/209/207
f 94/187/215 93/185/214 125/209/207
f 95/189/216 94/187/215 125/209/207
f 96/191/217 95/189/216 125/209/207
f 97/193/218 96/191/217 125/209/207
f 98/195/219 97/193/218 125/209/207
f 99/197/220 98/195/219 125/209/207
f 100/199/221 99/197/220 125/209/207
f 101/201/222 100/199/221 125/209/207
f 102/203/223 101/201/222 125/209/207
f 103/205/224 102/203/223 125/209/207
f 104/207/225 103/205/224 125/209/207
f 85/169/206 104/207/225 125/209/207
s 3
f 105/172/226 106/171/227 126/210/228
f 106/171/227 107/174/229 126/210/228
f 107/174/229 108/176/230 126/210/228
f 108/176/230 109/178/231 126/210/228
f 109/178/231 110/180/232 126/210/228
f 110/180/232 111/182/233 126/210/228
f 111/182/233 112/184/234 126/210/228
f 112/184/234 113/186/235 126/210/228
f 113/186/235 114/188/236 126/210/228
f 114/188/236 115/190/237 126/210/228
f 115/190/237 116/192/238 126/210/228
f 116/192/238 117/194/239 126/210/228
f 117/194/239 118/196/240 126/210/228
f 118/196/240 119/198/241 126/210/228
f 119/198/241 120/200/242 126/210/228
f 120/200/242 121/202/243 126/210/228
f 121/202/243 122/204/244 126/210/228
f 122/204/244 123/206/245 126/210/228
f 123/206/245 124/208/246 126/210/228
f 124/208/246 105/172/226 126/210/228
g default
v 17.077834 -0.148350 -1.415562
v 16.319464 -0.148350 -2.717900
v 15.138274 -0.148350 -3.751440
v 13.649888 -0.148350 -4.415014
v 12.000000 -0.148350 -4.643666
v 10.350112 -0.148350 -4.415014
v 8.861727 -0.148350 -3.751440
v 7.680538 -0.148350 -2.717899
v 6.922168 -0.148350 -1.415562
v 6.660852 -0.148350 0.028090
v 6.922168 -0.148350 1.471741
v 7.680538 -0.148350 2.774079
v 8.861728 -0.148350 3.807619
v 10.350112 -0.148350 4.471193
v 12.000000 -0.148350 4.699845
v 13.649887 -0.148350 4.471192
v 15.138272 -0.148350 3.807618
v 16.319460 -0.148350 2.774078
v 17.077830 -0.148350 1.471741
v 17.339147 -0.148350 0.028090
v 17.077834 0.385564 -1.415562
v 16.319464 0.385564 -2.717900
v 15.138274 0.385564 -3.751440
v 13.649888 0.385564 -4.415014
v 12.000000 0.385564 -4.643666
v 10.350112 0.385564 -4.415014
v 8.861727 0.385564 -3.751440
v 7.680538 0.385564 -2.717899
v 6.922168 0.385564 -1.415562
v 6.660852 0.385564 0.028090
v 6.922168 0.385564 1.471741
v 7.680538 0.385564 2.774079
v 8.861728 0.385564 3.807619
v 10.350112 0.385564 4.471193
v 12.000000 0.385564 4.699845
v 13.649887 0.385564 4.471192
v 15.138272 0.385564 3.807618
v 16.319460 0.385564 2.774078
v 17.077830 0.385564 1.471741
v 17.339147 0.385564 0.028090
v 12.000000 -0.148350 0.028090
v 12.000000 0.385564 0.028090
vt 0.295318 0.779091
vt 0.308421 0.801500
vt 0.371999 0.959237
vt 0.385743 0.936762
vt 0.328799 0.819266
vt 0.350967 0.976854
vt 0.354457 0.830651
vt 0.324705 0.987890
vt 0.382883 0.834538
vt 0.295785 0.991265
vt 0.411296 0.830549
vt 0.267038 0.986648
vt 0.436913 0.819073
vt 0.241276 0.974490
vt 0.457227 0.801234
vt 0.221023 0.955983
vt 0.470250 0.778777
vt 0.208260 0.932938
vt 0.474706 0.753902
vt 0.204236 0.907609
vt 0.470161 0.729043
vt 0.209347 0.882478
vt 0.457058 0.706634
vt 0.223091 0.860004
vt 0.436680 0.688867
vt 0.244123 0.842386
vt 0.411022 0.677483
vt 0.270384 0.831350
vt 0.382595 0.673595
vt 0.299305 0.827975
vt 0.354183 0.677584
vt 0.328052 0.832593
vt 0.328566 0.689060
vt 0.353813 0.844750
vt 0.308251 0.706900
vt 0.374067 0.863257
vt 0.295228 0.729356
vt 0.386831 0.886303
vt 0.290772 0.754231
vt 0.390853 0.911631
vt 0.382739 0.754067
vt 0.297545 0.909620
vt 0.747204 0.936263
vt 0.771886 0.936263
vt 0.722522 0.936263
vt 0.697168 0.936263
vt 0.670762 0.936263
vt 0.643347 0.936263
vt 0.615325 0.936263
vt 0.587302 0.936263
vt 0.559887 0.936263
vt 0.533481 0.936263
vt 0.508127 0.936263
vt 0.483445 0.936264
vt 0.458764 0.936263
vt 0.433409 0.936263
vt 0.407004 0.936264
vt 0.907105 0.936263
vt 0.879083 0.936263
vt 0.851061 0.936263
vt 0.823645 0.936263
vt 0.797240 0.936263
vt 0.747204 0.927281
vt 0.771886 0.927281
vt 0.722522 0.927281
vt 0.697168 0.927281
vt 0.670762 0.927281
vt 0.643347 0.927281
vt 0.615325 0.927281
vt 0.587302 0.927281
vt 0.559886 0.927281
vt 0.533481 0.927281
vt 0.508128 0.927281
vt 0.483445 0.927281
vt 0.458764 0.927281
vt 0.433409 0.927281
vt 0.934521 0.927281
vt 0.907105 0.927281
vt 0.879083 0.927281
vt 0.851061 0.927281
vt 0.823645 0.927281
vt 0.797240 0.927281
vt 0.407004 0.927281
vt 0.934521 0.936263
vn 0.937454 0.000000 -0.348110
vn 0.769355 0.000000 -0.638822
vn 0.769355 0.000000 -0.638822
vn 0.937454 0.000000 -0.348110
vn 0.536492 0.000000 -0.843906
vn 0.536492 0.000000 -0.843906
vn 0.273467 0.000000 -0.961881
vn 0.273467 0.000000 -0.961881
vn -0.000000 0.000000 -1.000000
vn -0.000000 0.000000 -1.000000
vn -0.273467 0.000000 -0.961881
vn -0.273467 0.000000 -0.961881
vn -0.536492 0.000000 -0.843906
vn -0.536492 0.000000 -0.843906
vn -0.769355 0.000000 -0.638821
vn -0.769355 0.000000 -0.638821
vn -0.937453 0.000000 -0.348111
vn -0.937453 0.000000 -0.348111
vn -1.000000 0.000000 0.000000
vn -1.000000 0.000000 0.000000
vn -0.937453 0.000000 0.348111
vn -0.937453 0.000000 0.348111
vn -0.769355 0.000000 0.638822
vn -0.769355 0.000000 0.638822
vn -0.536492 0.000000 0.843906
vn -0.536492 0.000000 0.843906
vn -0.273468 0.000000 0.961881
vn -0.273468 0.000000 0.961881
vn 0.000000 0.000000 1.000000
vn 0.000000 0.000000 1.000000
vn 0.273468 0.000000 0.961881
vn 0.273468 0.000000 0.961881
vn 0.536492 0.000000 0.843906
vn 0.536492 0.000000 0.843906
vn 0.769355 0.000000 0.638822
vn 0.769355 0.000000 0.638822
vn 0.937453 0.000000 0.348111
vn 0.937453 0.000000 0.348111
vn 1.000000 0.000000 0.000001
vn 1.000000 0.000000 0.000001
vn 0.000000 -1.000000 0.000000
vn 0.000000 -1.000000 0.000000
vn 0.000000 -1.000000 0.000000
vn 0.000000 -1.000000 0.000000
vn 0.000000 -1.000000 0.000000
vn 0.000000 -1.000000 0.000000
vn 0.000000 -1.000000 0.000000
vn 0.000000 -1.000000 0.000000
vn 0.000000 -1.000000 0.000000
vn 0.000000 -1.000000 0.000000
vn 0.000000 -1.000000 0.000000
vn 0.000000 -1.000000 0.000000
vn 0.000000 -1.000000 0.000000
vn 0.000000 -1.000000 0.000000
vn 0.000000 -1.000000 0.000000
vn 0.000000 -1.000000 0.000000
vn 0.000000 -1.000000 0.000000
vn 0.000000 -1.000000 0.000000
vn 0.000000 -1.000000 0.000000
vn 0.000000 -1.000000 0.000000
vn 0.000000 -1.000000 0.000000
vn 0.000000 1.000000 0.000000
vn 0.000000 1.000000 0.000000
vn 0.000000 1.000000 0.000000
vn 0.000000 1.000000 0.000000
vn 0.000000 1.000000 0.000000
vn 0.000000 1.000000 0.000000
vn 0.000000 1.000000 0.000000
vn 0.000000 1.000000 0.000000
vn 0.000000 1.000000 0.000000
vn 0.000000 1.000000 0.000000
vn 0.000000 1.000000 0.000000
vn 0.000000 1.000000 0.000000
vn 0.000000 1.000000 0.000000
vn 0.000000 1.000000 0.000000
vn 0.000000 1.000000 0.000000
vn 0.000000 1.000000 0.000000
vn 0.000000 1.000000 0.000000
vn 0.000000 1.000000 0.000000
vn 0.000000 1.000000 0.000000
vn 0.000000 1.000000 0.000000
vn 0.000000 1.000000 0.000000
s 1
g Right_Lily_Pad
usemtl lambert4SG
f 127/316/247 128/334/248 148/314/249 147/296/250
f 128/334/248 129/333/251 149/313/252 148/314/249
f 129/333/251 130/332/253 150/312/254 149/313/252
f 130/332/253 131/331/255 151/311/256 150/312/254
f 131/331/255 132/330/257 152/310/258 151/311/256
f 132/330/257 133/329/259 153/336/260 152/310/258
f 133/335/259 134/328/261 154/308/262 153/309/260
f 134/328/261 135/327/263 155/307/264 154/308/262
f 135/327/263 136/326/265 156/306/266 155/307/264
f 136/326/265 137/325/267 157/305/268 156/306/266
f 137/325/267 138/324/269 158/304/270 157/305/268
f 138/324/269 139/323/271 159/303/272 158/304/270
f 139/323/271 140/322/273 160/302/274 159/303/272
f 140/322/273 141/321/275 161/301/276 160/302/274
f 141/321/275 142/320/277 162/300/278 161/301/276
f 142/320/277 143/319/279 163/299/280 162/300/278
f 143/319/279 144/318/281 164/298/282 163/299/280
f 144/318/281 145/317/283 165/297/284 164/298/282
f 145/317/283 146/315/285 166/295/286 165/297/284
f 146/315/285 127/316/247 147/296/250 166/295/286
s 2
f 128/254/287 127/253/288 167/293/289
f 129/257/290 128/254/287 167/293/289
f 130/259/291 129/257/290 167/293/289
f 131/261/292 130/259/291 167/293/289
f 132/263/293 131/261/292 167/293/289
f 133/265/294 132/263/293 167/293/289
f 134/267/295 133/265/294 167/293/289
f 135/269/296 134/267/295 167/293/289
f 136/271/297 135/269/296 167/293/289
f 137/273/298 136/271/297 167/293/289
f 138/275/299 137/273/298 167/293/289
f 139/277/300 138/275/299 167/293/289
f 140/279/301 139/277/300 167/293/289
f 141/281/302 140/279/301 167/293/289
f 142/283/303 141/281/302 167/293/289
f 143/285/304 142/283/303 167/293/289
f 144/287/305 143/285/304 167/293/289
f 145/289/306 144/287/305 167/293/289
f 146/291/307 145/289/306 167/293/289
f 127/253/288 146/291/307 167/293/289
s 3
f 147/256/308 148/255/309 168/294/310
f 148/255/309 149/258/311 168/294/310
f 149/258/311 150/260/312 168/294/310
f 150/260/312 151/262/313 168/294/310
f 151/262/313 152/264/314 168/294/310
f 152/264/314 153/266/315 168/294/310
f 153/266/315 154/268/316 168/294/310
f 154/268/316 155/270/317 168/294/310
f 155/270/317 156/272/318 168/294/310
f 156/272/318 157/274/319 168/294/310
f 157/274/319 158/276/320 168/294/310
f 158/276/320 159/278/321 168/294/310
f 159/278/321 160/280/322 168/294/310
f 160/280/322 161/282/323 168/294/310
f 161/282/323 162/284/324 168/294/310
f 162/284/324 163/286/325 168/294/310
f 163/286/325 164/288/326 168/294/310
f 164/288/326 165/290/327 168/294/310
f 165/290/327 166/292/328 168/294/310
f 166/292/328 147/256/308 168/294/310
g default
v 17.699198 -0.014872 5.888425
v 17.320011 -0.014872 5.330280
v 16.729418 -0.014872 4.887334
v 15.985225 -0.014872 4.602945
v 15.160281 -0.014872 4.504952
v 14.335337 -0.014872 4.602945
v 13.591143 -0.014872 4.887334
v 13.000550 -0.014872 5.330280
v 12.621364 -0.014872 5.888425
v 12.490707 -0.014872 6.507133
v 12.621364 -0.014872 7.125841
v 13.000550 -0.014872 7.683985
v 13.591145 -0.014872 8.126931
v 14.335337 -0.014872 8.411320
v 15.160281 -0.014872 8.509313
v 15.985225 -0.014872 8.411320
v 16.729418 -0.014872 8.126931
v 17.320011 -0.014872 7.683985
v 17.699196 -0.014872 7.125840
v 16.473393 -0.014872 6.507133
v 17.699198 0.252086 5.888425
v 17.320011 0.252086 5.330280
v 16.729418 0.252086 4.887334
v 15.985225 0.252086 4.602945
v 15.160281 0.252086 4.504952
v 14.335337 0.252086 4.602945
v 13.591143 0.252086 4.887334
v 13.000550 0.252086 5.330280
v 12.621364 0.252086 5.888425
v 12.490707 0.252086 6.507133
v 12.621364 0.252086 7.125841
v 13.000550 0.252086 7.683985
v 13.591145 0.252086 8.126931
v 14.335337 0.252086 8.411320
v 15.160281 0.252086 8.509313
v 15.985225 0.252086 8.411320
v 16.729418 0.252086 8.126931
v 17.320011 0.252086 7.683985
v 17.699196 0.252086 7.125840
v 16.473393 0.252086 6.507133
v 15.160281 -0.014872 6.507133
v 15.160281 0.252086 6.507133
vt 0.733776 0.658755
vt 0.724543 0.645948
vt 0.718638 0.827746
vt 0.727221 0.814490
vt 0.710441 0.635975
vt 0.705049 0.838415
vt 0.692849 0.629810
vt 0.687783 0.845454
vt 0.673490 0.628057
vt 0.668532 0.848174
vt 0.654261 0.630888
vt 0.649180 0.846308
vt 0.637041 0.638026
vt 0.631621 0.840039
vt 0.623517 0.648772
vt 0.617573 0.829980
vt 0.615013 0.662075
vt 0.608413 0.817117
vt 0.612362 0.676631
vt 0.605036 0.802709
vt 0.615823 0.691016
vt 0.607772 0.788165
vt 0.625056 0.703822
vt 0.616356 0.774910
vt 0.639159 0.713796
vt 0.629945 0.764240
vt 0.656750 0.719961
vt 0.647210 0.757201
vt 0.676109 0.721714
vt 0.666461 0.754481
vt 0.695339 0.718883
vt 0.685813 0.756348
vt 0.712558 0.711744
vt 0.703373 0.762617
vt 0.726082 0.700998
vt 0.717421 0.772675
vt 0.734586 0.687696
vt 0.726581 0.785538
vt 0.705511 0.674026
vt 0.698220 0.800648
vt 0.674799 0.674885
vt 0.667497 0.801328
vt 0.540644 0.978833
vt 0.567200 0.978833
vt 0.826877 0.978833
vt 0.813826 0.978833
vt 0.799548 0.978833
vt 0.784139 0.978833
vt 0.768072 0.978833
vt 0.752005 0.978833
vt 0.736597 0.978833
vt 0.722319 0.978833
vt 0.709268 0.978833
vt 0.697039 0.978833
vt 0.684808 0.978833
vt 0.671758 0.978833
vt 0.657480 0.978833
vt 0.642071 0.978833
vt 0.626004 0.978833
vt 0.609937 0.978833
vt 0.594529 0.978833
vt 0.580251 0.978833
vt 0.853433 0.973670
vt 0.567201 0.973670
vt 0.826877 0.973670
vt 0.813826 0.973670
vt 0.799548 0.973670
vt 0.784139 0.973670
vt 0.768072 0.973670
vt 0.752005 0.973670
vt 0.736597 0.973670
vt 0.722319 0.973670
vt 0.709268 0.973670
vt 0.697039 0.973670
vt 0.684808 0.973670
vt 0.671758 0.973670
vt 0.657480 0.973670
vt 0.642071 0.973670
vt 0.626004 0.973670
vt 0.609937 0.973670
vt 0.594529 0.973670
vt 0.580251 0.973670
vt 0.540644 0.973670
vt 0.853433 0.978833
vn 0.811768 0.000000 0.583980
vn 0.718250 0.000000 -0.695785
vn 0.718250 0.000000 -0.695785
vn 0.811768 0.000000 0.583980
vn 0.478482 0.000000 -0.878097
vn 0.478482 0.000000 -0.878097
vn 0.236761 0.000000 -0.971568
vn 0.236761 0.000000 -0.971568
vn -0.000000 0.000000 -1.000000
vn -0.000000 0.000000 -1.000000
vn -0.236761 0.000000 -0.971568
vn -0.236761 0.000000 -0.971568
vn -0.478482 0.000000 -0.878097
vn -0.478482 0.000000 -0.878097
vn -0.718250 0.000000 -0.695785
vn -0.718250 0.000000 -0.695785
vn -0.917592 0.000000 -0.397524
vn -0.917592 0.000000 -0.397524
vn -1.000000 0.000000 0.000000
vn -1.000000 0.000000 0.000000
vn -0.917592 0.000000 0.397524
vn -0.917592 0.000000 0.397524
vn -0.718249 0.000000 0.695786
vn -0.718249 0.000000 0.695786
vn -0.478482 0.000000 0.878097
vn -0.478482 0.000000 0.878097
vn -0.236761 0.000000 0.971568
vn -0.236761 0.000000 0.971568
vn 0.000000 0.000000 1.000000
vn 0.000000 0.000000 1.000000
vn 0.236761 0.000000 0.971568
vn 0.236761 0.000000 0.971568
vn 0.478482 0.000000 0.878097
vn 0.478482 0.000000 0.878097
vn 0.718251 0.000000 0.695784
vn 0.718251 0.000000 0.695784
vn 0.811768 0.000000 -0.583980
vn 0.811768 0.000000 -0.583980
vn 1.000000 0.000000 0.000002
vn 1.000000 0.000000 0.000002
vn 0.000000 -1.000000 0.000000
vn 0.000000 -1.000000 0.000000
vn 0.000000 -1.000000 0.000000
vn 0.000000 -1.000000 0.000000
vn 0.000000 -1.000000 0.000000
vn 0.000000 -1.000000 0.000000
vn 0.000000 -1.000000 0.000000
vn 0.000000 -1.000000 0.000000
vn 0.000000 -1.000000 0.000000
vn 0.000000 -1.000000 0.000000
vn 0.000000 -1.000000 0.000000
vn 0.000000 -1.000000 0.000000
vn 0.000000 -1.000000 0.000000
vn 0.000000 -1.000000 0.000000
vn 0.000000 -1.000000 0.000000
vn 0.000000 -1.000000 0.000000
vn 0.000000 -1.000000 0.000000
vn 0.000000 -1.000000 0.000000
vn 0.000000 -1.000000 0.000000
vn 0.000000 -1.000000 0.000000
vn 0.000000 -1.000000 0.000000
vn 0.000000 1.000000 0.000000
vn 0.000000 1.000000 0.000000
vn 0.000000 1.000000 0.000000
vn 0.000000 1.000000 0.000000
vn 0.000000 1.000000 0.000000
vn 0.000000 1.000000 0.000000
vn 0.000000 1.000000 0.000000
vn 0.000000 1.000000 -0.000000
vn 0.000000 1.000000 -0.000000
vn 0.000000 1.000000 0.000000
vn 0.000000 1.000000 0.000000
vn 0.000000 1.000000 0.000000
vn 0.000000 1.000000 0.000000
vn 0.000000 1.000000 0.000000
vn 0.000000 1.000000 0.000000
vn 0.000000 1.000000 0.000000
vn 0.000000 1.000000 0.000000
vn 0.000000 1.000000 0.000000
vn 0.000000 1.000000 0.000000
vn 0.000000 1.000000 0.000000
vn 0.000000 1.000000 0.000000
s 1
g Right_Lily_Pad_Small
usemtl lambert4SG
f 169/400/329 170/418/330 190/398/331 189/380/332
f 170/418/330 171/417/333 191/397/334 190/398/331
f 171/417/333 172/416/335 192/396/336 191/397/334
f 172/416/335 173/415/337 193/395/338 192/396/336
f 173/415/337 174/414/339 194/394/340 193/395/338
f 174/414/339 175/413/341 195/393/342 194/394/340
f 175/413/341 176/412/343 196/392/344 195/393/342
f 176/412/343 177/411/345 197/391/346 196/392/344
f 177/411/345 178/410/347 198/390/348 197/391/346
f 178/410/347 179/409/349 199/389/350 198/390/348
f 179/409/349 180/408/351 200/388/352 199/389/350
f 180/408/351 181/407/353 201/387/354 200/388/352
f 181/407/353 182/406/355 202/386/356 201/387/354
f 182/406/355 183/405/357 203/385/358 202/386/356
f 183/405/357 184/404/359 204/384/360 203/385/358
f 184/404/359 185/403/361 205/383/362 204/384/360
f 185/403/361 186/402/363 206/382/364 205/383/362
f 186/402/363 187/401/365 207/381/366 206/382/364
f 187/401/365 188/399/367 208/420/368 207/381/366
f 188/419/367 169/400/329 189/380/332 208/379/368
s 2
f 170/338/369 169/337/370 209/377/371
f 171/341/372 170/338/369 209/377/371
f 172/343/373 171/341/372 209/377/371
f 173/345/374 172/343/373 209/377/371
f 174/347/375 173/345/374 209/377/371
f 175/349/376 174/347/375 209/377/371
f 176/351/377 175/349/376 209/377/371
f 177/353/378 176/351/377 209/377/371
f 178/355/379 177/353/378 209/377/371
f 179/357/380 178/355/379 209/377/371
f 180/359/381 179/357/380 209/377/371
f 181/361/382 180/359/381 209/377/371
f 182/363/383 181/361/382 209/377/371
f 183/365/384 182/363/383 209/377/371
f 184/367/385 183/365/384 209/377/371
f 185/369/386 184/367/385 209/377/371
f 186/371/387 185/369/386 209/377/371
f 187/373/388 186/371/387 209/377/371
f 188/375/389 187/373/388 209/377/371
f 169/337/370 188/375/389 209/377/371
s 3
f 189/340/390 190/339/391 210/378/392
f 190/339/391 191/342/393 210/378/392
f 191/342/393 192/344/394 210/378/392
f 192/344/394 193/346/395 210/378/392
f 193/346/395 194/348/396 210/378/392
f 194/348/396 195/350/397 210/378/392
f 195/350/397 196/352/398 210/378/392
f 196/352/398 197/354/399 210/378/392
f 197/354/399 198/356/400 210/378/392
f 198/356/400 199/358/401 210/378/392
f 199/358/401 200/360/402 210/378/392
f 200/360/402 201/362/403 210/378/392
f 201/362/403 202/364/404 210/378/392
f 202/364/404 203/366/405 210/378/392
f 203/366/405 204/368/406 210/378/392
f 204/368/406 205/370/407 210/378/392
f 205/370/407 206/372/408 210/378/392
f 206/372/408 207/374/409 210/378/392
f 207/374/409 208/376/410 210/378/392
f 208/376/410 189/340/390 210/378/392
